<?xml version="1.0" encoding="UTF-8" standalone="no"?>
<!-- Created with Inkscape (http://www.inkscape.org/) -->

<svg
   width="68.427597mm"
   height="6.5193357mm"
   viewBox="0 0 68.427598 6.5193358"
   version="1.1"
   id="svg5"
   inkscape:version="1.2.2 (b0a8486541, 2022-12-01)"
   sodipodi:docname="Andrew Cameron.svg"
   xmlns:inkscape="http://www.inkscape.org/namespaces/inkscape"
   xmlns:sodipodi="http://sodipodi.sourceforge.net/DTD/sodipodi-0.dtd"
   xmlns="http://www.w3.org/2000/svg"
   xmlns:svg="http://www.w3.org/2000/svg">
  <sodipodi:namedview
     id="namedview7"
     pagecolor="#ffffff"
     bordercolor="#666666"
     borderopacity="1.0"
     inkscape:showpageshadow="2"
     inkscape:pageopacity="0.0"
     inkscape:pagecheckerboard="0"
     inkscape:deskcolor="#d1d1d1"
     inkscape:document-units="mm"
     showgrid="false"
     inkscape:zoom="1.626692"
     inkscape:cx="62.703941"
     inkscape:cy="78.994671"
     inkscape:window-width="1920"
     inkscape:window-height="1119"
     inkscape:window-x="0"
     inkscape:window-y="44"
     inkscape:window-maximized="1"
     inkscape:current-layer="layer1" />
  <defs
     id="defs2" />
  <g
     inkscape:label="Layer 1"
     inkscape:groupmode="layer"
     id="layer1"
     transform="translate(-30.117226,-69.147591)">
    <g
       aria-label="Andrew Cameron"
       id="text236"
       style="font-size:3.175px;line-height:1.25;font-family:'Futura Condensed Extra Bold';-inkscape-font-specification:'Futura Condensed Extra Bold, ';letter-spacing:0px;word-spacing:0px;stroke-width:0.264583">
      <path
         d="M 34.731561,75.58226 34.003427,73.711126 H 31.60736 l -0.719667,1.871134 h -0.770467 l 2.362201,-6.070602 h 0.6858 l 2.353734,6.070602 z m -1.634068,-4.377268 q -0.0254,-0.06773 -0.08467,-0.245534 -0.05927,-0.1778 -0.118534,-0.364067 -0.0508,-0.194733 -0.08467,-0.296333 -0.05927,0.262467 -0.135467,0.516467 -0.0762,0.245533 -0.127,0.389467 l -0.6858,1.8288 h 1.913467 z"
         style="font-size:8.46667px;font-family:'Noto Sans';-inkscape-font-specification:'Noto Sans, Normal'"
         id="path11041" />
      <path
         d="m 38.431495,70.959458 q 0.8128,0 1.227667,0.397934 0.414867,0.389467 0.414867,1.27 v 2.954868 h -0.7366 v -2.904068 q 0,-1.0922 -1.016001,-1.0922 -0.753533,0 -1.0414,0.423333 -0.287867,0.423334 -0.287867,1.219201 v 2.353734 h -0.745067 v -4.538135 h 0.601134 l 0.110066,0.618067 h 0.04233 q 0.220133,-0.3556 0.6096,-0.524934 0.389467,-0.1778 0.821267,-0.1778 z"
         style="font-size:8.46667px;font-family:'Noto Sans';-inkscape-font-specification:'Noto Sans, Normal'"
         id="path11043" />
      <path
         d="m 43.088164,75.666927 q -0.846667,0 -1.354667,-0.5842 -0.508001,-0.592667 -0.508001,-1.761068 0,-1.1684 0.508001,-1.761067 0.516466,-0.601134 1.363133,-0.601134 0.524934,0 0.855134,0.194734 0.338667,0.194733 0.550334,0.474133 h 0.0508 q -0.0085,-0.110066 -0.03387,-0.321733 -0.01693,-0.220134 -0.01693,-0.347134 v -1.811867 h 0.745067 v 6.434669 h -0.601134 l -0.110067,-0.6096 h -0.03387 q -0.2032,0.287867 -0.541867,0.491067 -0.338667,0.2032 -0.872067,0.2032 z m 0.118533,-0.618067 q 0.719667,0 1.007534,-0.389467 0.296333,-0.397933 0.296333,-1.1938 v -0.135467 q 0,-0.846667 -0.2794,-1.295401 -0.2794,-0.4572 -1.032934,-0.4572 -0.601133,0 -0.905933,0.4826 -0.296334,0.474134 -0.296334,1.278468 0,0.8128 0.296334,1.261533 0.3048,0.448734 0.9144,0.448734 z"
         style="font-size:8.46667px;font-family:'Noto Sans';-inkscape-font-specification:'Noto Sans, Normal'"
         id="path11045" />
      <path
         d="m 48.803164,70.959458 q 0.127,0 0.270933,0.01693 0.1524,0.0085 0.262467,0.03387 l -0.09313,0.685801 q -0.110067,-0.0254 -0.245534,-0.04233 -0.127,-0.01693 -0.245533,-0.01693 -0.347134,0 -0.651934,0.194733 -0.3048,0.186267 -0.491067,0.533401 -0.1778,0.338666 -0.1778,0.795867 v 2.421467 h -0.745067 v -4.538135 h 0.6096 l 0.08467,0.829734 h 0.03387 q 0.220133,-0.372534 0.567267,-0.643467 0.347133,-0.270934 0.821267,-0.270934 z"
         style="font-size:8.46667px;font-family:'Noto Sans';-inkscape-font-specification:'Noto Sans, Normal'"
         id="path11047" />
      <path
         d="m 51.766495,70.959458 q 0.5842,0 0.999067,0.254 0.423334,0.254 0.643467,0.719667 0.2286,0.457201 0.2286,1.075267 v 0.448734 h -3.107268 q 0.01693,0.770467 0.389467,1.176867 0.381,0.397934 1.058334,0.397934 0.4318,0 0.762,-0.0762 0.338667,-0.08467 0.694267,-0.237067 v 0.651933 q -0.347133,0.1524 -0.6858,0.220134 -0.338667,0.0762 -0.804334,0.0762 -0.643467,0 -1.143,-0.262467 -0.491067,-0.262467 -0.770467,-0.778934 -0.270934,-0.524933 -0.270934,-1.278467 0,-0.745067 0.245534,-1.278467 0.254,-0.5334 0.702733,-0.821267 0.457201,-0.287867 1.058334,-0.287867 z m -0.0085,0.609601 q -0.533401,0 -0.846667,0.347133 -0.304801,0.338667 -0.364067,0.948267 h 2.311401 q -0.0085,-0.575734 -0.270934,-0.931334 -0.262467,-0.364066 -0.829733,-0.364066 z"
         style="font-size:8.46667px;font-family:'Noto Sans';-inkscape-font-specification:'Noto Sans, Normal'"
         id="path11049" />
      <path
         d="m 57.54922,73.016859 q -0.110066,-0.347133 -0.194733,-0.677333 -0.0762,-0.338667 -0.118534,-0.524934 h -0.03387 q -0.03387,0.186267 -0.110067,0.524934 -0.0762,0.3302 -0.194733,0.6858 l -0.812801,2.548467 h -0.846667 l -1.2446,-4.538135 h 0.770467 l 0.626533,2.421468 q 0.09313,0.364067 0.1778,0.7366 0.08467,0.372534 0.118534,0.618067 h 0.03387 q 0.03387,-0.143933 0.0762,-0.3556 0.0508,-0.211667 0.110066,-0.440267 0.05927,-0.237067 0.118534,-0.423333 l 0.804333,-2.556935 h 0.812801 l 0.778933,2.556935 q 0.09313,0.287866 0.1778,0.626533 0.09313,0.338667 0.127,0.5842 h 0.03387 q 0.0254,-0.211666 0.110067,-0.5842 0.09313,-0.372533 0.194733,-0.762 l 0.635,-2.421468 h 0.762001 l -1.261534,4.538135 h -0.872067 z"
         style="font-size:8.46667px;font-family:'Noto Sans';-inkscape-font-specification:'Noto Sans, Normal'"
         id="path11051" />
      <path
         d="m 66.168286,70.121258 q -0.973667,0 -1.532467,0.651934 -0.558801,0.651933 -0.558801,1.786467 0,1.126067 0.516467,1.786467 0.524934,0.651934 1.566334,0.651934 0.397934,0 0.753534,-0.06773 0.3556,-0.06773 0.694267,-0.169334 v 0.6604 q -0.338667,0.127 -0.702734,0.186267 -0.3556,0.05927 -0.855133,0.05927 -0.922867,0 -1.540934,-0.381 -0.618067,-0.381 -0.931334,-1.083734 -0.3048,-0.702734 -0.3048,-1.651001 0,-0.9144 0.3302,-1.608667 0.338667,-0.702734 0.9906,-1.0922 0.651934,-0.397934 1.583268,-0.397934 0.956733,0 1.667934,0.3556 l -0.3048,0.643467 q -0.279401,-0.127 -0.626534,-0.2286 -0.338667,-0.1016 -0.745067,-0.1016 z"
         style="font-size:8.46667px;font-family:'Noto Sans';-inkscape-font-specification:'Noto Sans, Normal'"
         id="path11053" />
      <path
         d="m 70.545556,70.967925 q 0.829733,0 1.227667,0.364067 0.397933,0.364067 0.397933,1.159934 V 75.58226 H 71.62929 l -0.143934,-0.643467 h -0.03387 q -0.296334,0.372534 -0.626534,0.550334 -0.321734,0.1778 -0.897467,0.1778 -0.618067,0 -1.024467,-0.321734 -0.4064,-0.3302 -0.4064,-1.024467 0,-0.677333 0.5334,-1.0414 0.5334,-0.372534 1.642534,-0.4064 l 0.770467,-0.0254 v -0.270934 q 0,-0.567267 -0.245534,-0.7874 -0.245533,-0.220133 -0.694267,-0.220133 -0.3556,0 -0.677333,0.110066 -0.321734,0.1016 -0.601134,0.237067 l -0.2286,-0.5588 q 0.296334,-0.160867 0.702734,-0.270934 0.4064,-0.118533 0.846667,-0.118533 z m 0.220133,2.421468 q -0.846667,0.03387 -1.176867,0.270933 -0.321733,0.237067 -0.321733,0.668867 0,0.381 0.2286,0.5588 0.237066,0.1778 0.601133,0.1778 0.575734,0 0.956734,-0.313267 0.381,-0.321733 0.381,-0.982133 v -0.4064 z"
         style="font-size:8.46667px;font-family:'Noto Sans';-inkscape-font-specification:'Noto Sans, Normal'"
         id="path11055" />
      <path
         d="m 78.555033,70.959458 q 0.770467,0 1.151467,0.397934 0.381,0.389467 0.381,1.27 v 2.954868 h -0.7366 v -2.921001 q 0,-1.075267 -0.922867,-1.075267 -0.6604,0 -0.948267,0.381 -0.2794,0.381 -0.2794,1.109134 v 2.506134 h -0.7366 v -2.921001 q 0,-1.075267 -0.931334,-1.075267 -0.6858,0 -0.948267,0.423333 -0.262467,0.423334 -0.262467,1.219201 v 2.353734 h -0.745067 v -4.538135 h 0.601134 l 0.110066,0.618067 h 0.04233 q 0.211666,-0.3556 0.567267,-0.524934 0.364066,-0.1778 0.770467,-0.1778 1.0668,0 1.388533,0.762001 h 0.04233 q 0.2286,-0.389467 0.618067,-0.575734 0.397933,-0.186267 0.8382,-0.186267 z"
         style="font-size:8.46667px;font-family:'Noto Sans';-inkscape-font-specification:'Noto Sans, Normal'"
         id="path11057" />
      <path
         d="m 83.24556,70.959458 q 0.5842,0 0.999067,0.254 0.423334,0.254 0.643467,0.719667 0.2286,0.457201 0.2286,1.075267 v 0.448734 h -3.107268 q 0.01693,0.770467 0.389467,1.176867 0.381,0.397934 1.058334,0.397934 0.4318,0 0.762,-0.0762 0.338667,-0.08467 0.694267,-0.237067 v 0.651933 q -0.347133,0.1524 -0.6858,0.220134 -0.338667,0.0762 -0.804334,0.0762 -0.643467,0 -1.143,-0.262467 -0.491067,-0.262467 -0.770467,-0.778934 -0.270934,-0.524933 -0.270934,-1.278467 0,-0.745067 0.245534,-1.278467 0.254,-0.5334 0.702733,-0.821267 0.457201,-0.287867 1.058334,-0.287867 z m -0.0085,0.609601 q -0.533401,0 -0.846667,0.347133 -0.304801,0.338667 -0.364067,0.948267 h 2.311401 q -0.0085,-0.575734 -0.270934,-0.931334 -0.262467,-0.364066 -0.829733,-0.364066 z"
         style="font-size:8.46667px;font-family:'Noto Sans';-inkscape-font-specification:'Noto Sans, Normal'"
         id="path11059" />
      <path
         d="m 88.384823,70.959458 q 0.127,0 0.270934,0.01693 0.1524,0.0085 0.262466,0.03387 l -0.09313,0.685801 q -0.110067,-0.0254 -0.245534,-0.04233 -0.127,-0.01693 -0.245533,-0.01693 -0.347133,0 -0.651934,0.194733 -0.3048,0.186267 -0.491066,0.533401 -0.1778,0.338666 -0.1778,0.795867 v 2.421467 h -0.745067 v -4.538135 h 0.6096 l 0.08467,0.829734 h 0.03387 q 0.220134,-0.372534 0.567267,-0.643467 0.347134,-0.270934 0.821267,-0.270934 z"
         style="font-size:8.46667px;font-family:'Noto Sans';-inkscape-font-specification:'Noto Sans, Normal'"
         id="path11061" />
      <path
         d="m 93.541024,73.304726 q 0,1.126067 -0.575734,1.744134 -0.567266,0.618067 -1.540933,0.618067 -0.601134,0 -1.075268,-0.270934 -0.465666,-0.2794 -0.7366,-0.804333 -0.270933,-0.5334 -0.270933,-1.286934 0,-1.126067 0.567267,-1.735667 0.567266,-0.609601 1.540934,-0.609601 0.618066,0 1.083733,0.2794 0.474134,0.270934 0.736601,0.795867 0.270933,0.516467 0.270933,1.270001 z m -3.429001,0 q 0,0.804334 0.313266,1.278467 0.321734,0.465667 1.016001,0.465667 0.6858,0 1.007534,-0.465667 0.321733,-0.474133 0.321733,-1.278467 0,-0.804334 -0.321733,-1.261534 -0.321734,-0.4572 -1.016001,-0.4572 -0.694267,0 -1.007534,0.4572 -0.313266,0.4572 -0.313266,1.261534 z"
         style="font-size:8.46667px;font-family:'Noto Sans';-inkscape-font-specification:'Noto Sans, Normal'"
         id="path11063" />
      <path
         d="m 96.902286,70.959458 q 0.812801,0 1.227668,0.397934 0.414866,0.389467 0.414866,1.27 v 2.954868 h -0.7366 v -2.904068 q 0,-1.0922 -1.016,-1.0922 -0.753534,0 -1.041401,0.423333 -0.287867,0.423334 -0.287867,1.219201 v 2.353734 h -0.745067 v -4.538135 h 0.601134 l 0.110067,0.618067 h 0.04233 q 0.220134,-0.3556 0.6096,-0.524934 0.389467,-0.1778 0.821267,-0.1778 z"
         style="font-size:8.46667px;font-family:'Noto Sans';-inkscape-font-specification:'Noto Sans, Normal'"
         id="path11065" />
    </g>
  </g>
</svg>
