<?xml version="1.0" encoding="UTF-8" standalone="no"?>
<!-- Created with Inkscape (http://www.inkscape.org/) -->

<svg
   width="133.10757mm"
   height="6.5193334mm"
   viewBox="0 0 133.10758 6.5193326"
   version="1.1"
   id="svg5"
   inkscape:version="1.2.2 (b0a8486541, 2022-12-01)"
   sodipodi:docname="Co-founder Commercial Director.svg"
   inkscape:export-filename="/home/blinken/Documents/pemberton-digital-logo.png"
   inkscape:export-xdpi="300"
   inkscape:export-ydpi="300"
   xmlns:inkscape="http://www.inkscape.org/namespaces/inkscape"
   xmlns:sodipodi="http://sodipodi.sourceforge.net/DTD/sodipodi-0.dtd"
   xmlns="http://www.w3.org/2000/svg"
   xmlns:svg="http://www.w3.org/2000/svg">
  <sodipodi:namedview
     id="namedview7"
     pagecolor="#ffffff"
     bordercolor="#666666"
     borderopacity="1.0"
     inkscape:pageshadow="2"
     inkscape:pageopacity="0.0"
     inkscape:pagecheckerboard="0"
     inkscape:document-units="mm"
     showgrid="false"
     fit-margin-top="0"
     fit-margin-left="0"
     fit-margin-right="0"
     fit-margin-bottom="0"
     lock-margins="true"
     inkscape:zoom="2.1336591"
     inkscape:cx="197.31362"
     inkscape:cy="50.851611"
     inkscape:window-width="1920"
     inkscape:window-height="1119"
     inkscape:window-x="0"
     inkscape:window-y="44"
     inkscape:window-maximized="1"
     inkscape:current-layer="layer1"
     inkscape:showpageshadow="2"
     inkscape:deskcolor="#d1d1d1" />
  <defs
     id="defs2">
    <rect
       x="-29.807989"
       y="-337.1311"
       width="22.339674"
       height="42.327774"
       id="rect30046" />
    <rect
       x="12.587432"
       y="158.12903"
       width="655.03162"
       height="136.9935"
       id="rect1706" />
  </defs>
  <g
     inkscape:label="Layer 1"
     inkscape:groupmode="layer"
     id="layer1"
     transform="translate(-3.8470127,-43.107216)">
    <g
       aria-label="Co-Founder / Commercial Director"
       transform="scale(0.26458333)"
       id="text1704"
       style="font-size:32px;line-height:1.25;font-family:'Noto Sans';-inkscape-font-specification:'Noto Sans, Normal';letter-spacing:-0.3px;word-spacing:0px;white-space:pre;shape-inside:url(#rect1706);display:inline">
      <path
         d="m 25.483891,166.60491 q -3.68,0 -5.792,2.464 -2.112,2.464 -2.112,6.752 0,4.256 1.952,6.752 1.984,2.464 5.92,2.464 1.504,0 2.848,-0.256 1.344,-0.256 2.624,-0.64 v 2.496 q -1.28,0.48 -2.656,0.704 -1.344,0.224 -3.232,0.224 -3.488,0 -5.824,-1.44 -2.336,-1.44 -3.52,-4.096 -1.152,-2.656 -1.152,-6.24 0,-3.456 1.248,-6.08 1.28,-2.656 3.744,-4.128 2.464,-1.504 5.984,-1.504 3.616,0 6.304,1.344 l -1.152,2.432 q -1.056,-0.48 -2.368,-0.864 -1.28,-0.384 -2.816,-0.384 z"
         id="path10846" />
      <path
         d="m 50.14389,178.63691 q 0,4.256 -2.176,6.592 -2.144,2.336 -5.824,2.336 -2.272,0 -4.064,-1.024 -1.76,-1.056 -2.784,-3.04 -1.024,-2.016 -1.024,-4.864 0,-4.256 2.144,-6.56 2.144,-2.304 5.824,-2.304 2.336,0 4.096,1.056 1.792,1.024 2.784,3.008 1.024,1.952 1.024,4.8 z m -12.96,0 q 0,3.04 1.184,4.832 1.216,1.76 3.84,1.76 2.592,0 3.808,-1.76 1.216,-1.792 1.216,-4.832 0,-3.04 -1.216,-4.768 -1.216,-1.728 -3.84,-1.728 -2.624,0 -3.808,1.728 -1.184,1.728 -1.184,4.768 z"
         id="path10848" />
      <path
         d="m 52.851877,179.91691 v -2.496 h 7.744 v 2.496 z"
         id="path10850" />
      <path
         d="m 67.55989,187.24491 h -2.88 v -22.848 h 12.768 v 2.528 h -9.888 v 8.096 h 9.28 v 2.528 h -9.28 z"
         id="path10852" />
      <path
         d="m 95.515865,178.63691 q 0,4.256 -2.176,6.592 -2.144,2.336 -5.824,2.336 -2.272,0 -4.064,-1.024 -1.76,-1.056 -2.784,-3.04 -1.024,-2.016 -1.024,-4.864 0,-4.256 2.144,-6.56 2.144,-2.304 5.824,-2.304 2.336,0 4.096,1.056 1.792,1.024 2.784,3.008 1.024,1.952 1.024,4.8 z m -12.96,0 q 0,3.04 1.184,4.832 1.216,1.76 3.84,1.76 2.592,0 3.808,-1.76 1.216,-1.792 1.216,-4.832 0,-3.04 -1.216,-4.768 -1.216,-1.728 -3.84,-1.728 -2.624,0 -3.808,1.728 -1.184,1.728 -1.184,4.768 z"
         id="path10854" />
      <path
         d="m 113.99985,170.09291 v 17.152 h -2.304 l -0.416,-2.272 h -0.128 q -0.832,1.344 -2.304,1.984 -1.472,0.608 -3.136,0.608 -3.104,0 -4.672,-1.472 -1.568002,-1.504 -1.568002,-4.768 v -11.232 h 2.848002 v 11.04 q 0,4.096 3.808,4.096 2.848,0 3.936,-1.6 1.12,-1.6 1.12,-4.608 v -8.928 z"
         id="path10856" />
      <path
         d="m 127.39585,169.77291 q 3.072,0 4.64,1.504 1.568,1.472 1.568,4.8 v 11.168 h -2.784 v -10.976 q 0,-4.128 -3.84,-4.128 -2.848,0 -3.936,1.6 -1.088,1.6 -1.088,4.608 v 8.896 h -2.816 v -17.152 h 2.272 l 0.416,2.336 h 0.16 q 0.832,-1.344 2.304,-1.984 1.472,-0.672 3.104,-0.672 z"
         id="path10858" />
      <path
         d="m 144.69585,187.56491 q -3.2,0 -5.12,-2.208 -1.92,-2.24 -1.92,-6.656 0,-4.416 1.92,-6.656 1.952,-2.272 5.152,-2.272 1.984,0 3.232,0.736 1.28,0.736 2.08,1.792 h 0.192 q -0.032,-0.416 -0.128,-1.216 -0.064,-0.832 -0.064,-1.312 v -6.848 h 2.816 v 24.32 h -2.272 l -0.416,-2.304 h -0.128 q -0.768,1.088 -2.048,1.856 -1.28,0.768 -3.296,0.768 z m 0.448,-2.336 q 2.72,0 3.808,-1.472 1.12,-1.504 1.12,-4.512 v -0.512 q 0,-3.2 -1.056,-4.896 -1.056,-1.728 -3.904,-1.728 -2.272,0 -3.424,1.824 -1.12,1.792 -1.12,4.832 0,3.072 1.12,4.768 1.152,1.696 3.456,1.696 z"
         id="path10860" />
      <path
         d="m 164.61985,169.77291 q 2.208,0 3.776,0.96 1.6,0.96 2.432,2.72 0.864,1.728 0.864,4.064 v 1.696 h -11.744 q 0.064,2.912 1.472,4.448 1.44,1.504 4,1.504 1.632,0 2.88,-0.288 1.28,-0.32 2.624,-0.896 v 2.464 q -1.312,0.576 -2.592,0.832 -1.28,0.288 -3.04,0.288 -2.432,0 -4.32,-0.992 -1.856,-0.992 -2.912,-2.944 -1.024,-1.984 -1.024,-4.832 0,-2.816 0.928,-4.832 0.96,-2.016 2.656,-3.104 1.728,-1.088 4,-1.088 z m -0.032,2.304 q -2.016,0 -3.2,1.312 -1.152,1.28 -1.376,3.584 h 8.736 q -0.032,-2.176 -1.024,-3.52 -0.992,-1.376 -3.136,-1.376 z"
         id="path10862" />
      <path
         d="m 183.74382,169.77291 q 0.48,0 1.024,0.064 0.576,0.032 0.992,0.128 l -0.352,2.592 q -0.416,-0.096 -0.928,-0.16 -0.48,-0.064 -0.928,-0.064 -1.312,0 -2.464,0.736 -1.152,0.704 -1.856,2.016 -0.672,1.28 -0.672,3.008 v 9.152 h -2.816 v -17.152 h 2.304 l 0.32,3.136 h 0.128 q 0.832,-1.408 2.144,-2.432 1.312,-1.024 3.104,-1.024 z"
         id="path10864" />
      <path
         d="m 205.54382,164.39691 -8.512,22.848 h -2.752 l 8.512,-22.848 z"
         id="path10866" />
      <path
         d="m 226.47983,166.60491 q -3.68,0 -5.792,2.464 -2.112,2.464 -2.112,6.752 0,4.256 1.952,6.752 1.984,2.464 5.92,2.464 1.504,0 2.848,-0.256 1.344,-0.256 2.624,-0.64 v 2.496 q -1.28,0.48 -2.656,0.704 -1.344,0.224 -3.232,0.224 -3.488,0 -5.824,-1.44 -2.336,-1.44 -3.52,-4.096 -1.152,-2.656 -1.152,-6.24 0,-3.456 1.248,-6.08 1.28,-2.656 3.744,-4.128 2.464,-1.504 5.984,-1.504 3.616,0 6.304,1.344 l -1.152,2.432 q -1.056,-0.48 -2.368,-0.864 -1.28,-0.384 -2.816,-0.384 z"
         id="path10868" />
      <path
         d="m 251.13983,178.63691 q 0,4.256 -2.176,6.592 -2.144,2.336 -5.824,2.336 -2.272,0 -4.064,-1.024 -1.76,-1.056 -2.784,-3.04 -1.024,-2.016 -1.024,-4.864 0,-4.256 2.144,-6.56 2.144,-2.304 5.824,-2.304 2.336,0 4.096,1.056 1.792,1.024 2.784,3.008 1.024,1.952 1.024,4.8 z m -12.96,0 q 0,3.04 1.184,4.832 1.216,1.76 3.84,1.76 2.592,0 3.808,-1.76 1.216,-1.792 1.216,-4.832 0,-3.04 -1.216,-4.768 -1.216,-1.728 -3.84,-1.728 -2.624,0 -3.808,1.728 -1.184,1.728 -1.184,4.768 z"
         id="path10870" />
      <path
         d="m 274.10381,169.77291 q 2.912,0 4.352,1.504 1.44,1.472 1.44,4.8 v 11.168 h -2.784 v -11.04 q 0,-4.064 -3.488,-4.064 -2.496,0 -3.584,1.44 -1.056,1.44 -1.056,4.192 v 9.472 h -2.784 v -11.04 q 0,-4.064 -3.52,-4.064 -2.592,0 -3.584,1.6 -0.992,1.6 -0.992,4.608 v 8.896 h -2.816 v -17.152 h 2.272 l 0.416,2.336 h 0.16 q 0.8,-1.344 2.144,-1.984 1.376,-0.672 2.912,-0.672 4.032,0 5.248,2.88 h 0.16 q 0.864,-1.472 2.336,-2.176 1.504,-0.704 3.168,-0.704 z"
         id="path10872" />
      <path
         d="m 303.72381,169.77291 q 2.912,0 4.352,1.504 1.44,1.472 1.44,4.8 v 11.168 h -2.784 v -11.04 q 0,-4.064 -3.488,-4.064 -2.496,0 -3.584,1.44 -1.056,1.44 -1.056,4.192 v 9.472 h -2.784 v -11.04 q 0,-4.064 -3.52,-4.064 -2.592,0 -3.584,1.6 -0.992,1.6 -0.992,4.608 v 8.896 h -2.816 v -17.152 h 2.272 l 0.416,2.336 h 0.16 q 0.8,-1.344 2.144,-1.984 1.376,-0.672 2.912,-0.672 4.032,0 5.248,2.88 h 0.16 q 0.864,-1.472 2.336,-2.176 1.504,-0.704 3.168,-0.704 z"
         id="path10874" />
      <path
         d="m 321.15177,169.77291 q 2.208,0 3.776,0.96 1.6,0.96 2.432,2.72 0.864,1.728 0.864,4.064 v 1.696 h -11.744 q 0.064,2.912 1.472,4.448 1.44,1.504 4,1.504 1.632,0 2.88,-0.288 1.28,-0.32 2.624,-0.896 v 2.464 q -1.312,0.576 -2.592,0.832 -1.28,0.288 -3.04,0.288 -2.432,0 -4.32,-0.992 -1.856,-0.992 -2.912,-2.944 -1.024,-1.984 -1.024,-4.832 0,-2.816 0.928,-4.832 0.96,-2.016 2.656,-3.104 1.728,-1.088 4,-1.088 z m -0.032,2.304 q -2.016,0 -3.2,1.312 -1.152,1.28 -1.376,3.584 h 8.736 q -0.032,-2.176 -1.024,-3.52 -0.992,-1.376 -3.136,-1.376 z"
         id="path10876" />
      <path
         d="m 340.27576,169.77291 q 0.48,0 1.024,0.064 0.576,0.032 0.992,0.128 l -0.352,2.592 q -0.416,-0.096 -0.928,-0.16 -0.48,-0.064 -0.928,-0.064 -1.312,0 -2.464,0.736 -1.152,0.704 -1.856,2.016 -0.672,1.28 -0.672,3.008 v 9.152 h -2.816 v -17.152 h 2.304 l 0.32,3.136 h 0.128 q 0.832,-1.408 2.144,-2.432 1.312,-1.024 3.104,-1.024 z"
         id="path10878" />
      <path
         d="m 351.43173,187.56491 q -2.272,0 -4.064,-0.928 -1.76,-0.928 -2.784,-2.88 -0.992,-1.952 -0.992,-4.992 0,-3.168 1.056,-5.152 1.056,-1.984 2.848,-2.912 1.824,-0.928 4.128,-0.928 1.312,0 2.528,0.288 1.216,0.256 1.984,0.64 l -0.864,2.336 q -0.768,-0.288 -1.792,-0.544 -1.024,-0.256 -1.92,-0.256 -5.056,0 -5.056,6.496 0,3.104 1.216,4.768 1.248,1.632 3.68,1.632 1.408,0 2.464,-0.288 1.088,-0.288 1.984,-0.704 v 2.496 q -0.864,0.448 -1.92,0.672 -1.024,0.256 -2.496,0.256 z"
         id="path10880" />
      <path
         d="m 361.05172,163.66091 q 0.64,0 1.12,0.448 0.512,0.416 0.512,1.344 0,0.896 -0.512,1.344 -0.48,0.448 -1.12,0.448 -0.704,0 -1.184,-0.448 -0.48,-0.448 -0.48,-1.344 0,-0.928 0.48,-1.344 0.48,-0.448 1.184,-0.448 z m 1.376,6.432 v 17.152 h -2.816 v -17.152 z"
         id="path10882" />
      <path
         d="m 374.06372,169.80491 q 3.136,0 4.64,1.376 1.504,1.376 1.504,4.384 v 11.68 h -2.048 l -0.544,-2.432 h -0.128 q -1.12,1.408 -2.368,2.08 -1.216,0.672 -3.392,0.672 -2.336,0 -3.872,-1.216 -1.536,-1.248 -1.536,-3.872 0,-2.56 2.016,-3.936 2.016,-1.408 6.208,-1.536 l 2.912,-0.096 v -1.024 q 0,-2.144 -0.928,-2.976 -0.928,-0.832 -2.624,-0.832 -1.344,0 -2.56,0.416 -1.216,0.384 -2.272,0.896 l -0.864,-2.112 q 1.12,-0.608 2.656,-1.024 1.536,-0.448 3.2,-0.448 z m 0.832,9.152 q -3.2,0.128 -4.448,1.024 -1.216,0.896 -1.216,2.528 0,1.44 0.864,2.112 0.896,0.672 2.272,0.672 2.176,0 3.616,-1.184 1.44,-1.216 1.44,-3.712 v -1.536 z"
         id="path10884" />
      <path
         d="m 388.03573,187.24491 h -2.816 v -24.32 h 2.816 z"
         id="path10886" />
      <path
         d="m 419.88371,175.59691 q 0,5.792 -3.168,8.736 -3.136,2.912 -8.768,2.912 h -6.368 v -22.848 h 7.04 q 3.456,0 5.984,1.28 2.528,1.28 3.904,3.776 1.376,2.464 1.376,6.144 z m -3.04,0.096 q 0,-4.576 -2.272,-6.688 -2.24,-2.144 -6.368,-2.144 h -3.744 v 17.92 h 3.104 q 9.28,0 9.28,-9.088 z"
         id="path10888" />
      <path
         d="m 425.69571,163.66091 q 0.64,0 1.12,0.448 0.512,0.416 0.512,1.344 0,0.896 -0.512,1.344 -0.48,0.448 -1.12,0.448 -0.704,0 -1.184,-0.448 -0.48,-0.448 -0.48,-1.344 0,-0.928 0.48,-1.344 0.48,-0.448 1.184,-0.448 z m 1.376,6.432 v 17.152 h -2.816 v -17.152 z"
         id="path10890" />
      <path
         d="m 440.2117,169.77291 q 0.48,0 1.024,0.064 0.576,0.032 0.992,0.128 l -0.352,2.592 q -0.416,-0.096 -0.928,-0.16 -0.48,-0.064 -0.928,-0.064 -1.312,0 -2.464,0.736 -1.152,0.704 -1.856,2.016 -0.672,1.28 -0.672,3.008 v 9.152 h -2.816 v -17.152 h 2.304 l 0.32,3.136 h 0.128 q 0.832,-1.408 2.144,-2.432 1.312,-1.024 3.104,-1.024 z"
         id="path10892" />
      <path
         d="m 451.11167,169.77291 q 2.208,0 3.776,0.96 1.6,0.96 2.432,2.72 0.864,1.728 0.864,4.064 v 1.696 h -11.744 q 0.064,2.912 1.472,4.448 1.44,1.504 4,1.504 1.632,0 2.88,-0.288 1.28,-0.32 2.624,-0.896 v 2.464 q -1.312,0.576 -2.592,0.832 -1.28,0.288 -3.04,0.288 -2.432,0 -4.32,-0.992 -1.856,-0.992 -2.912,-2.944 -1.024,-1.984 -1.024,-4.832 0,-2.816 0.928,-4.832 0.96,-2.016 2.656,-3.104 1.728,-1.088 4,-1.088 z m -0.032,2.304 q -2.016,0 -3.2,1.312 -1.152,1.28 -1.376,3.584 h 8.736 q -0.032,-2.176 -1.024,-3.52 -0.992,-1.376 -3.136,-1.376 z"
         id="path10894" />
      <path
         d="m 469.11566,187.56491 q -2.272,0 -4.064,-0.928 -1.76,-0.928 -2.784,-2.88 -0.992,-1.952 -0.992,-4.992 0,-3.168 1.056,-5.152 1.056,-1.984 2.848,-2.912 1.824,-0.928 4.128,-0.928 1.312,0 2.528,0.288 1.216,0.256 1.984,0.64 l -0.864,2.336 q -0.768,-0.288 -1.792,-0.544 -1.024,-0.256 -1.92,-0.256 -5.056,0 -5.056,6.496 0,3.104 1.216,4.768 1.248,1.632 3.68,1.632 1.408,0 2.464,-0.288 1.088,-0.288 1.984,-0.704 v 2.496 q -0.864,0.448 -1.92,0.672 -1.024,0.256 -2.496,0.256 z"
         id="path10896" />
      <path
         d="m 483.02362,185.26091 q 0.64,0 1.312,-0.096 0.672,-0.128 1.088,-0.256 v 2.144 q -0.448,0.224 -1.28,0.352 -0.832,0.16 -1.6,0.16 -1.344,0 -2.496,-0.448 -1.12,-0.48 -1.824,-1.632 -0.704,-1.152 -0.704,-3.232 v -9.984 h -2.432 v -1.344 l 2.464,-1.12 1.12,-3.648 h 1.664 v 3.936 h 4.96 v 2.176 h -4.96 v 9.92 q 0,1.568 0.736,2.336 0.768,0.736 1.952,0.736 z"
         id="path10898" />
      <path
         d="m 503.45964,178.63691 q 0,4.256 -2.176,6.592 -2.144,2.336 -5.824,2.336 -2.272,0 -4.064,-1.024 -1.76,-1.056 -2.784,-3.04 -1.024,-2.016 -1.024,-4.864 0,-4.256 2.144,-6.56 2.144,-2.304 5.824,-2.304 2.336,0 4.096,1.056 1.792,1.024 2.784,3.008 1.024,1.952 1.024,4.8 z m -12.96,0 q 0,3.04 1.184,4.832 1.216,1.76 3.84,1.76 2.592,0 3.808,-1.76 1.216,-1.792 1.216,-4.832 0,-3.04 -1.216,-4.768 -1.216,-1.728 -3.84,-1.728 -2.624,0 -3.808,1.728 -1.184,1.728 -1.184,4.768 z"
         id="path10900" />
      <path
         d="m 515.60763,169.77291 q 0.48,0 1.024,0.064 0.576,0.032 0.992,0.128 l -0.352,2.592 q -0.416,-0.096 -0.928,-0.16 -0.48,-0.064 -0.928,-0.064 -1.312,0 -2.464,0.736 -1.152,0.704 -1.856,2.016 -0.672,1.28 -0.672,3.008 v 9.152 h -2.816 v -17.152 h 2.304 l 0.32,3.136 h 0.128 q 0.832,-1.408 2.144,-2.432 1.312,-1.024 3.104,-1.024 z"
         id="path10902" />
    </g>
    <text
       xml:space="preserve"
       transform="matrix(0.26458333,0,0,0.26458333,3.556324,43.204229)"
       id="text30044"
       style="font-size:12px;line-height:1.25;font-family:'Futura Condensed Extra Bold';-inkscape-font-specification:'Futura Condensed Extra Bold, ';letter-spacing:0px;word-spacing:0px;white-space:pre;shape-inside:url(#rect30046);display:inline" />
  </g>
</svg>
