<?xml version="1.0" encoding="UTF-8" standalone="no"?>
<!-- Created with Inkscape (http://www.inkscape.org/) -->

<svg
   width="76.902824mm"
   height="8.2516956mm"
   viewBox="0 0 76.902823 8.2516957"
   version="1.1"
   id="svg5"
   inkscape:version="1.2.2 (b0a8486541, 2022-12-01)"
   sodipodi:docname="Pemberton Digital.svg"
   xmlns:inkscape="http://www.inkscape.org/namespaces/inkscape"
   xmlns:sodipodi="http://sodipodi.sourceforge.net/DTD/sodipodi-0.dtd"
   xmlns="http://www.w3.org/2000/svg"
   xmlns:svg="http://www.w3.org/2000/svg">
  <sodipodi:namedview
     id="namedview7"
     pagecolor="#ffffff"
     bordercolor="#666666"
     borderopacity="1.0"
     inkscape:showpageshadow="2"
     inkscape:pageopacity="0.0"
     inkscape:pagecheckerboard="0"
     inkscape:deskcolor="#d1d1d1"
     inkscape:document-units="mm"
     showgrid="false"
     inkscape:zoom="1.626692"
     inkscape:cx="60.859708"
     inkscape:cy="78.379927"
     inkscape:window-width="1920"
     inkscape:window-height="1119"
     inkscape:window-x="0"
     inkscape:window-y="44"
     inkscape:window-maximized="1"
     inkscape:current-layer="layer1" />
  <defs
     id="defs2" />
  <g
     inkscape:label="Layer 1"
     inkscape:groupmode="layer"
     id="layer1"
     transform="translate(-30.762148,-69.17438)">
    <g
       aria-label="Pemberton Digital"
       id="text236"
       style="font-size:3.175px;line-height:1.25;font-family:'Futura Condensed Extra Bold';-inkscape-font-specification:'Futura Condensed Extra Bold, ';letter-spacing:0px;word-spacing:0px;stroke-width:0.264583">
      <path
         d="m 32.308307,75.58226 h -1.546159 v -6.052346 h 1.723926 q 1.00459,0 1.42627,0.09922 0.413412,0.107487 0.690398,0.338997 0.330729,0.276986 0.508496,0.686264 0.177767,0.417545 0.177767,0.930176 0,0.545703 -0.177767,0.950846 -0.157096,0.409278 -0.508496,0.677996 -0.252181,0.198437 -0.607715,0.285254 -0.318327,0.08682 -1.107943,0.08682 h -0.28112 -0.297657 z m 0,-3.327963 H 32.6225 q 0.587045,0 0.830957,-0.169499 0.235645,-0.157097 0.235645,-0.549838 0,-0.376204 -0.23151,-0.537435 -0.227377,-0.165364 -0.818555,-0.165364 h -0.33073 z"
         style="font-weight:bold;font-size:8.46667px;font-family:Futura;-inkscape-font-specification:'Futura, Bold'"
         id="path1048" />
      <path
         d="m 38.902222,72.957096 q -0.03721,-0.347265 -0.268717,-0.566374 -0.231511,-0.219108 -0.566374,-0.219108 -0.3514,0 -0.570508,0.194304 -0.227376,0.219108 -0.285254,0.591178 z m 1.451075,0.830958 h -3.175001 q 0.0124,0.487825 0.243913,0.744141 0.239779,0.264583 0.694531,0.264583 0.33073,0 0.566374,-0.128158 0.239779,-0.136425 0.347266,-0.37207 l 1.107943,0.446485 q -0.194303,0.475423 -0.7028,0.735872 -0.504362,0.264584 -1.2361,0.264584 -1.091407,0 -1.752866,-0.61185 -0.657324,-0.595312 -0.657324,-1.591634 0,-0.971518 0.657324,-1.624708 0.657325,-0.640788 1.670183,-0.640788 1.033529,0 1.632976,0.649056 0.305925,0.334864 0.454753,0.781348 0.148828,0.442351 0.148828,1.012859 z"
         style="font-weight:bold;font-size:8.46667px;font-family:Futura;-inkscape-font-specification:'Futura, Bold'"
         id="path1050" />
      <path
         d="m 46.715703,75.58226 v -2.277898 q 0,-0.537435 -0.124024,-0.744141 -0.14056,-0.21084 -0.467155,-0.21084 -0.417546,0 -0.574642,0.285254 -0.16123,0.28112 -0.16123,1.178223 v 1.769402 h -1.422136 v -2.277898 q 0,-0.558106 -0.136426,-0.752409 -0.124024,-0.202572 -0.458887,-0.202572 -0.417546,0 -0.582911,0.276986 -0.16123,0.28112 -0.16123,1.186491 v 1.769402 h -1.430404 v -4.175457 h 1.44694 v 0.727604 q 0.264584,-0.438216 0.603581,-0.649056 0.33073,-0.21084 0.802019,-0.21084 0.508496,0 0.839225,0.194303 0.314193,0.198438 0.458887,0.591179 0.252181,-0.409277 0.599447,-0.591179 0.343132,-0.194303 0.822689,-0.194303 0.376205,0 0.657325,0.124024 0.289388,0.136425 0.475423,0.380338 0.157097,0.194304 0.219108,0.458887 0.06201,0.243913 0.06201,0.86403 v 0.09095 2.389519 z"
         style="font-weight:bold;font-size:8.46667px;font-family:Futura;-inkscape-font-specification:'Futura, Bold'"
         id="path1052" />
      <path
         d="m 50.53976,73.498666 q 0,0.500228 0.26045,0.773079 0.239779,0.276986 0.694531,0.276986 0.450619,0 0.7028,-0.276986 0.252181,-0.276985 0.252181,-0.773079 0,-0.49196 -0.252181,-0.768946 -0.256315,-0.28112 -0.7028,-0.28112 -0.450618,0 -0.694531,0.28112 -0.26045,0.272852 -0.26045,0.768946 z M 49.23338,69.17438 h 1.405599 v 2.182813 q 0,0.322461 -0.0083,0.442351 -0.01654,0.21084 -0.03307,0.30179 0.260449,-0.450618 0.591179,-0.63252 0.330729,-0.194303 0.86403,-0.194303 0.835091,0 1.35599,0.607715 0.516765,0.615983 0.516765,1.61644 0,1.029394 -0.516765,1.632975 -0.520899,0.61185 -1.405599,0.61185 -0.442351,0 -0.781348,-0.21084 -0.3514,-0.202572 -0.63252,-0.628386 v 0.677995 h -1.35599 z"
         style="font-weight:bold;font-size:8.46667px;font-family:Futura;-inkscape-font-specification:'Futura, Bold'"
         id="path1054" />
      <path
         d="m 57.691781,72.957096 q -0.03721,-0.347265 -0.268717,-0.566374 -0.231511,-0.219108 -0.566374,-0.219108 -0.3514,0 -0.570508,0.194304 -0.227377,0.219108 -0.285254,0.591178 z m 1.451075,0.830958 h -3.175001 q 0.0124,0.487825 0.243913,0.744141 0.239778,0.264583 0.694531,0.264583 0.33073,0 0.566374,-0.128158 0.239779,-0.136425 0.347266,-0.37207 l 1.107943,0.446485 q -0.194303,0.475423 -0.7028,0.735872 -0.504362,0.264584 -1.2361,0.264584 -1.091407,0 -1.752866,-0.61185 -0.657324,-0.595312 -0.657324,-1.591634 0,-0.971518 0.657324,-1.624708 0.657325,-0.640788 1.670183,-0.640788 1.033529,0 1.632976,0.649056 0.305925,0.334864 0.454753,0.781348 0.148828,0.442351 0.148828,1.012859 z"
         style="font-weight:bold;font-size:8.46667px;font-family:Futura;-inkscape-font-specification:'Futura, Bold'"
         id="path1056" />
      <path
         d="m 59.994484,75.58226 v -4.175457 h 1.389063 v 0.983919 q 0.219109,-0.541569 0.582911,-0.806152 0.376204,-0.268718 0.905371,-0.268718 0.11989,0 0.177767,0.0083 0.04547,0.0041 0.08268,0.0083 0.03721,0 0.09508,0.0083 l -0.14056,1.339454 q -0.152962,-0.04961 -0.264583,-0.07028 -0.165365,-0.01654 -0.243913,-0.01654 -0.537435,0 -0.830957,0.330729 -0.289389,0.326596 -0.289389,0.930177 v 1.72806 z"
         style="font-weight:bold;font-size:8.46667px;font-family:Futura;-inkscape-font-specification:'Futura, Bold'"
         id="path1058" />
      <path
         d="m 64.004577,75.58226 -0.0083,-3.13366 h -0.624251 v -1.041797 h 0.624251 v -1.244369 h 1.459343 v 1.244369 h 0.615984 V 72.4486 h -0.615984 v 3.13366 z"
         style="font-weight:bold;font-size:8.46667px;font-family:Futura;-inkscape-font-specification:'Futura, Bold'"
         id="path1060" />
      <path
         d="m 69.722058,73.506934 q 0,-0.467155 -0.235644,-0.735873 -0.243913,-0.268717 -0.636654,-0.268717 -0.405144,0 -0.636654,0.268717 -0.235645,0.260449 -0.235645,0.735873 0,0.463021 0.227377,0.727604 0.248047,0.272852 0.644922,0.272852 0.396875,0 0.644922,-0.272852 0.227376,-0.272851 0.227376,-0.727604 z m 1.463477,0 q 0,0.458887 -0.177767,0.855762 -0.186035,0.42168 -0.508496,0.727604 -0.363802,0.338998 -0.752409,0.49196 -0.405143,0.161231 -0.897103,0.161231 -0.496094,0 -0.897104,-0.161231 -0.409277,-0.16123 -0.756543,-0.487826 -0.343131,-0.330729 -0.496094,-0.731738 -0.177767,-0.384473 -0.177767,-0.855762 0,-0.458887 0.177767,-0.864031 0.165365,-0.409277 0.500228,-0.727604 0.326596,-0.314193 0.752409,-0.483692 0.405144,-0.157096 0.897104,-0.157096 0.487825,0 0.897103,0.157096 0.425814,0.169499 0.752409,0.483692 0.343132,0.310059 0.508496,0.727604 0.177767,0.405144 0.177767,0.864031 z"
         style="font-weight:bold;font-size:8.46667px;font-family:Futura;-inkscape-font-specification:'Futura, Bold'"
         id="path1062" />
      <path
         d="m 72.033032,75.58226 v -4.175457 h 1.347722 v 0.847494 q 0.285254,-0.496094 0.677995,-0.744141 0.380339,-0.235645 0.921908,-0.235645 0.409277,0 0.727604,0.124024 0.314193,0.140559 0.508497,0.380338 0.177767,0.239779 0.235644,0.508496 0.07028,0.343132 0.07028,0.905372 v 2.389519 h -1.475879 v -2.236557 q 0,-0.508496 -0.161231,-0.727604 -0.16123,-0.227377 -0.525033,-0.227377 -0.454752,0 -0.669726,0.338998 -0.21084,0.338997 -0.21084,1.099675 v 1.752865 z"
         style="font-weight:bold;font-size:8.46667px;font-family:Futura;-inkscape-font-specification:'Futura, Bold'"
         id="path1064" />
      <path
         d="m 80.313665,75.58226 v -6.052346 h 1.260906 q 1.430404,0 1.996778,0.132292 0.587044,0.132291 1.025261,0.44235 0.578776,0.396875 0.872298,1.025261 0.297657,0.63252 0.297657,1.430404 0,0.797885 -0.297657,1.430404 -0.293522,0.620118 -0.872298,1.025261 -0.454753,0.310059 -1.000456,0.429948 -0.545704,0.136426 -1.744597,0.136426 h -0.276986 z m 1.632976,-1.35599 h 0.276986 q 0.975651,0 1.418002,-0.405143 0.446484,-0.396876 0.446484,-1.260906 0,-0.859896 -0.446484,-1.269174 -0.446485,-0.409277 -1.418002,-0.409277 h -0.276986 z"
         style="font-weight:bold;font-size:8.46667px;font-family:Futura;-inkscape-font-specification:'Futura, Bold'"
         id="path1066" />
      <path
         d="m 86.663667,75.58226 v -4.175457 h 1.471745 v 4.175457 z m 0.186035,-5.250327 h 0.0083 q 0,-0.231511 0.161231,-0.380339 0.16123,-0.161231 0.388607,-0.161231 0.239778,0 0.392741,0.152963 0.157096,0.152962 0.157096,0.388607 0,0.239778 -0.16123,0.396875 -0.157097,0.16123 -0.388607,0.16123 -0.235645,0 -0.396875,-0.169499 -0.161231,-0.157096 -0.161231,-0.388606 z"
         style="font-weight:bold;font-size:8.46667px;font-family:Futura;-inkscape-font-specification:'Futura, Bold'"
         id="path1068" />
      <path
         d="m 92.52171,73.482129 q 0,-0.483692 -0.252181,-0.760677 -0.272852,-0.272852 -0.719336,-0.272852 -0.446485,0 -0.719337,0.272852 -0.264583,0.276985 -0.264583,0.760677 0,0.487826 0.264583,0.752409 0.268718,0.28112 0.719337,0.28112 0.44235,0 0.711068,-0.28112 0.260449,-0.260449 0.260449,-0.752409 z m 1.293978,-2.075326 v 4.167189 q 0,0.946713 -0.574642,1.397331 -0.276986,0.223242 -0.727604,0.338998 -0.450619,0.115755 -1.058334,0.115755 -0.988054,0 -1.533757,-0.363802 -0.545704,-0.367937 -0.582911,-1.021127 h 1.525489 q 0.04134,0.198438 0.219108,0.301791 0.181902,0.111621 0.483692,0.111621 0.471289,0 0.657325,-0.227377 0.177767,-0.227376 0.177767,-0.967383 V 74.87946 q -0.235645,0.396876 -0.591179,0.582911 -0.367936,0.194303 -0.855762,0.194303 -0.826823,0 -1.327051,-0.599447 Q 89.383916,74.763705 89.255758,74.36683 89.1276,73.965821 89.1276,73.465593 q 0,-1.000457 0.525033,-1.599903 0.26045,-0.297657 0.611849,-0.442351 0.355534,-0.148828 0.793751,-0.148828 0.467155,0 0.810287,0.194303 0.338997,0.181902 0.587044,0.607716 v -0.669727 z"
         style="font-weight:bold;font-size:8.46667px;font-family:Futura;-inkscape-font-specification:'Futura, Bold'"
         id="path1070" />
      <path
         d="m 94.894689,75.58226 v -4.175457 h 1.471745 v 4.175457 z m 0.186035,-5.250327 h 0.0083 q 0,-0.231511 0.161231,-0.380339 0.16123,-0.161231 0.388607,-0.161231 0.239778,0 0.392741,0.152963 0.157096,0.152962 0.157096,0.388607 0,0.239778 -0.161231,0.396875 -0.157096,0.16123 -0.388606,0.16123 -0.235645,0 -0.396876,-0.169499 -0.16123,-0.157096 -0.16123,-0.388606 z"
         style="font-weight:bold;font-size:8.46667px;font-family:Futura;-inkscape-font-specification:'Futura, Bold'"
         id="path1072" />
      <path
         d="m 97.805107,75.58226 -0.0083,-3.13366 h -0.624252 v -1.041797 h 0.624252 v -1.244369 h 1.459343 v 1.244369 h 0.615983 V 72.4486 h -0.615983 v 3.13366 z"
         style="font-weight:bold;font-size:8.46667px;font-family:Futura;-inkscape-font-specification:'Futura, Bold'"
         id="path1074" />
      <path
         d="m 103.7417,73.490397 q 0,-0.496094 -0.26045,-0.768945 -0.26458,-0.289388 -0.71107,-0.289388 -0.44648,0 -0.7028,0.281119 -0.26458,0.289389 -0.26458,0.777214 0,0.49196 0.26458,0.77308 0.25218,0.276986 0.7028,0.276986 0.44649,0 0.70694,-0.276986 0.26458,-0.276986 0.26458,-0.77308 z m 1.29398,-2.083594 v 4.175457 h -1.35186 v -0.677995 q -0.29352,0.434082 -0.65732,0.636654 -0.35967,0.202572 -0.84336,0.202572 -0.83923,0 -1.33532,-0.61185 -0.24391,-0.30179 -0.37207,-0.711068 -0.12816,-0.409277 -0.12816,-0.921907 0,-1.025261 0.52503,-1.624708 0.52504,-0.599447 1.4056,-0.599447 0.47129,0 0.81029,0.202572 0.34313,0.194303 0.58704,0.615983 v -0.686263 z"
         style="font-weight:bold;font-size:8.46667px;font-family:Futura;-inkscape-font-specification:'Futura, Bold'"
         id="path1076" />
      <path
         d="m 106.1891,75.58226 v -6.40788 h 1.47588 v 6.40788 z"
         style="font-weight:bold;font-size:8.46667px;font-family:Futura;-inkscape-font-specification:'Futura, Bold'"
         id="path1078" />
    </g>
  </g>
</svg>
