G04 #@! TF.GenerationSoftware,KiCad,Pcbnew,6.0.11+dfsg-1*
G04 #@! TF.CreationDate,2023-08-15T17:49:34+01:00*
G04 #@! TF.ProjectId,business card,62757369-6e65-4737-9320-636172642e6b,rev?*
G04 #@! TF.SameCoordinates,Original*
G04 #@! TF.FileFunction,Copper,L1,Top*
G04 #@! TF.FilePolarity,Positive*
%FSLAX46Y46*%
G04 Gerber Fmt 4.6, Leading zero omitted, Abs format (unit mm)*
G04 Created by KiCad (PCBNEW 6.0.11+dfsg-1) date 2023-08-15 17:49:34*
%MOMM*%
%LPD*%
G01*
G04 APERTURE LIST*
G04 #@! TA.AperFunction,ComponentPad*
%ADD10C,4.200000*%
G04 #@! TD*
G04 #@! TA.AperFunction,ViaPad*
%ADD11C,1.209040*%
G04 #@! TD*
G04 #@! TA.AperFunction,Conductor*
%ADD12C,0.250000*%
G04 #@! TD*
G04 APERTURE END LIST*
D10*
X131500000Y-55250000D03*
D11*
X80794580Y-88670620D03*
X85892640Y-88670620D03*
X85892640Y-90669600D03*
D12*
X82905600Y-93203240D02*
X82786220Y-93281980D01*
X82397600Y-93464860D02*
X82260440Y-93508040D01*
X82120740Y-93543600D02*
X81981040Y-93566460D01*
X83672680Y-92189780D02*
X83621880Y-92321860D01*
X82514440Y-63819260D02*
X82550000Y-63908160D01*
X82059780Y-63364600D02*
X82143600Y-63405240D01*
X83411060Y-92697780D02*
X83324700Y-92812080D01*
X82572860Y-63997060D02*
X82588100Y-64091040D01*
X83126580Y-93020360D02*
X83019900Y-93116880D01*
X81836260Y-93581700D02*
X81694020Y-93586780D01*
X83751420Y-91912920D02*
X83715860Y-92052620D01*
X81881980Y-63306180D02*
X81970880Y-63329040D01*
X83789520Y-91628440D02*
X83774280Y-91773220D01*
X82296000Y-63517000D02*
X82362040Y-63583040D01*
X82659220Y-93350560D02*
X82529680Y-93414060D01*
X83794600Y-91486200D02*
X83789520Y-91628440D01*
X83621880Y-92321860D02*
X83558380Y-92451400D01*
X82786220Y-93281980D02*
X82659220Y-93350560D01*
X82550000Y-63908160D02*
X82572860Y-63997060D01*
X82362040Y-63583040D02*
X82420460Y-63656700D01*
X82588100Y-64091040D02*
X82593180Y-64185020D01*
X81694020Y-92987340D02*
X81810860Y-92982260D01*
X81927700Y-92969560D02*
X82044540Y-92946700D01*
X82044540Y-92946700D02*
X82158840Y-92913680D01*
X82158840Y-92913680D02*
X82268060Y-92873040D01*
X81970880Y-63329040D02*
X82059780Y-63364600D01*
X82222340Y-63458580D02*
X82296000Y-63517000D01*
X83715860Y-92052620D02*
X83672680Y-92189780D01*
X82478880Y-92766360D02*
X82575400Y-92700320D01*
X81988660Y-64134220D02*
X81975960Y-64083420D01*
X82143600Y-63405240D02*
X82222340Y-63458580D01*
X81744820Y-63890380D02*
X81694020Y-63885300D01*
X82260440Y-93508040D02*
X82120740Y-93543600D01*
X82575400Y-92700320D02*
X82669380Y-92626660D01*
X82755740Y-92547920D02*
X82834480Y-92461560D01*
X83019900Y-93116880D02*
X82905600Y-93203240D01*
X81788000Y-63290940D02*
X81881980Y-63306180D01*
X82420460Y-63656700D02*
X82473800Y-63735440D01*
X83489800Y-92578400D02*
X83411060Y-92697780D01*
X82669380Y-92626660D02*
X82755740Y-92547920D01*
X82529680Y-93414060D02*
X82397600Y-93464860D01*
X82473800Y-63735440D02*
X82514440Y-63819260D01*
X81953100Y-64035160D02*
X81922620Y-63991980D01*
X81843880Y-63925940D02*
X81795620Y-63903080D01*
X82834480Y-92461560D02*
X82908140Y-92367580D01*
X83774280Y-91773220D02*
X83751420Y-91912920D01*
X82268060Y-92873040D02*
X82374740Y-92824780D01*
X83228180Y-92918760D02*
X83126580Y-93020360D01*
X81981040Y-93566460D02*
X81836260Y-93581700D01*
X83558380Y-92451400D02*
X83489800Y-92578400D01*
X82908140Y-92367580D02*
X82974180Y-92271060D01*
X82974180Y-92271060D02*
X83032600Y-92166920D01*
X83032600Y-92166920D02*
X83080860Y-92060240D01*
X81810860Y-92982260D02*
X81927700Y-92969560D01*
X81922620Y-63991980D02*
X81887060Y-63956420D01*
X82374740Y-92824780D02*
X82478880Y-92766360D01*
X83080860Y-92060240D02*
X83121500Y-91951020D01*
X83121500Y-91951020D02*
X83154520Y-91836720D01*
X81694020Y-63285860D02*
X81788000Y-63290940D01*
X81887060Y-63956420D02*
X81843880Y-63925940D01*
X81795620Y-63903080D02*
X81744820Y-63890380D01*
X81993740Y-64185020D02*
X81988660Y-64134220D01*
X83324700Y-92812080D02*
X83228180Y-92918760D01*
X81975960Y-64083420D02*
X81953100Y-64035160D01*
X81988660Y-91537000D02*
X81993740Y-91486200D01*
X82550000Y-91763060D02*
X82514440Y-91851960D01*
X82588100Y-91580180D02*
X82572860Y-91674160D01*
X81975960Y-91587800D02*
X81988660Y-91537000D01*
X82593180Y-91486200D02*
X82588100Y-91580180D01*
X82572860Y-91674160D02*
X82550000Y-91763060D01*
X82059780Y-92306620D02*
X81970880Y-92342180D01*
X81795620Y-91768140D02*
X81843880Y-91745280D01*
X81953100Y-91636060D02*
X81975960Y-91587800D01*
X81843880Y-91745280D02*
X81887060Y-91714800D01*
X83154520Y-91836720D02*
X83177380Y-91719880D01*
X82222340Y-92212640D02*
X82143600Y-92265980D01*
X82296000Y-92154220D02*
X82222340Y-92212640D01*
X83177380Y-91719880D02*
X83190080Y-91603040D01*
X82473800Y-91935780D02*
X82420460Y-92014520D01*
X82420460Y-92014520D02*
X82362040Y-92088180D01*
X83190080Y-91603040D02*
X83195160Y-91486200D01*
X81970880Y-92342180D02*
X81881980Y-92365040D01*
X81744820Y-91780840D02*
X81795620Y-91768140D01*
X81922620Y-91679240D02*
X81953100Y-91636060D01*
X82362040Y-92088180D02*
X82296000Y-92154220D01*
X81881980Y-92365040D02*
X81788000Y-92380280D01*
X82143600Y-92265980D02*
X82059780Y-92306620D01*
X81788000Y-92380280D02*
X81694020Y-92385360D01*
X82514440Y-91851960D02*
X82473800Y-91935780D01*
X81694020Y-91785920D02*
X81744820Y-91780840D01*
X81887060Y-91714800D02*
X81922620Y-91679240D01*
X54352340Y-63890380D02*
X54301540Y-63903080D01*
X82397600Y-62206360D02*
X82529680Y-62257160D01*
X54126280Y-63329040D02*
X54215180Y-63306180D01*
X82529680Y-62257160D02*
X82659220Y-62320660D01*
X82659220Y-62320660D02*
X82786220Y-62389240D01*
X82120740Y-62127620D02*
X82260440Y-62163180D01*
X54037380Y-63364600D02*
X54126280Y-63329040D01*
X54301540Y-63903080D02*
X54253280Y-63925940D01*
X53801160Y-63517000D02*
X53874820Y-63458580D01*
X53874820Y-63458580D02*
X53953560Y-63405240D01*
X54215180Y-63306180D02*
X54309160Y-63290940D01*
X54309160Y-63290940D02*
X54403140Y-63285860D01*
X54253280Y-63925940D02*
X54210100Y-63956420D01*
X54121200Y-64083420D02*
X54108500Y-64134220D01*
X81836260Y-62089520D02*
X81981040Y-62104760D01*
X81694020Y-62084440D02*
X81836260Y-62089520D01*
X82786220Y-62389240D02*
X82905600Y-62467980D01*
X54210100Y-63956420D02*
X54174540Y-63991980D01*
X53953560Y-63405240D02*
X54037380Y-63364600D01*
X54403140Y-63885300D02*
X54352340Y-63890380D01*
X54174540Y-63991980D02*
X54144060Y-64035160D01*
X54144060Y-64035160D02*
X54121200Y-64083420D01*
X54108500Y-64134220D02*
X54103420Y-64185020D01*
X81981040Y-62104760D02*
X82120740Y-62127620D01*
X82260440Y-62163180D02*
X82397600Y-62206360D01*
X82834480Y-63209660D02*
X82755740Y-63123300D01*
X82755740Y-63123300D02*
X82669380Y-63044560D01*
X82158840Y-62757540D02*
X82044540Y-62724520D01*
X82044540Y-62724520D02*
X81927700Y-62701660D01*
X83228180Y-62752460D02*
X83324700Y-62859140D01*
X83621880Y-63349360D02*
X83672680Y-63481440D01*
X81927700Y-62701660D02*
X81810860Y-62688960D01*
X81810860Y-62688960D02*
X81694020Y-62683880D01*
X82575400Y-62970900D02*
X82478880Y-62904860D01*
X83751420Y-63758300D02*
X83774280Y-63898000D01*
X83195160Y-64185020D02*
X83190080Y-64068180D01*
X83121500Y-63720200D02*
X83080860Y-63610980D01*
X83019900Y-62554340D02*
X83126580Y-62650860D01*
X83489800Y-63092820D02*
X83558380Y-63219820D01*
X83177380Y-63951340D02*
X83154520Y-63834500D01*
X83715860Y-63618600D02*
X83751420Y-63758300D01*
X83080860Y-63610980D02*
X83032600Y-63504300D01*
X83154520Y-63834500D02*
X83121500Y-63720200D01*
X82908140Y-63303640D02*
X82834480Y-63209660D01*
X82478880Y-62904860D02*
X82374740Y-62846440D01*
X83789520Y-64042780D02*
X83794600Y-64185020D01*
X83190080Y-64068180D02*
X83177380Y-63951340D01*
X82374740Y-62846440D02*
X82268060Y-62798180D01*
X82268060Y-62798180D02*
X82158840Y-62757540D01*
X83126580Y-62650860D02*
X83228180Y-62752460D01*
X83558380Y-63219820D02*
X83621880Y-63349360D01*
X82669380Y-63044560D02*
X82575400Y-62970900D01*
X83774280Y-63898000D02*
X83789520Y-64042780D01*
X83324700Y-62859140D02*
X83411060Y-62973440D01*
X83672680Y-63481440D02*
X83715860Y-63618600D01*
X82974180Y-63400160D02*
X82908140Y-63303640D01*
X82905600Y-62467980D02*
X83019900Y-62554340D01*
X83411060Y-62973440D02*
X83489800Y-63092820D01*
X83032600Y-63504300D02*
X82974180Y-63400160D01*
X82496660Y-61606920D02*
X82339180Y-61563740D01*
X52868980Y-61962520D02*
X52736900Y-62059040D01*
X81394020Y-88068640D02*
X80794580Y-88670620D01*
X83360260Y-62059040D02*
X83228180Y-61962520D01*
X53757980Y-61563740D02*
X53600500Y-61606920D01*
X83916520Y-62650860D02*
X83820000Y-62518780D01*
X83484720Y-62163180D02*
X83360260Y-62059040D01*
X54240580Y-61490080D02*
X54078020Y-61505320D01*
X84373720Y-63859900D02*
X84350860Y-63697340D01*
X83228180Y-61962520D02*
X83091020Y-61873620D01*
X82181700Y-61528180D02*
X82019140Y-61505320D01*
X52736900Y-62059040D02*
X52612440Y-62163180D01*
X82339180Y-61563740D02*
X82181700Y-61528180D01*
X52612440Y-62163180D02*
X52493060Y-62274940D01*
X83715860Y-62394320D02*
X83604100Y-62274940D01*
X54403140Y-62084440D02*
X81694020Y-62084440D01*
X82948780Y-61794880D02*
X82801460Y-61723760D01*
X54078020Y-61505320D02*
X53915460Y-61528180D01*
X53445560Y-61660260D02*
X53295700Y-61723760D01*
X53915460Y-61528180D02*
X53757980Y-61563740D01*
X84272120Y-63382380D02*
X84218780Y-63227440D01*
X54403140Y-63285860D02*
X81694020Y-63285860D01*
X54403140Y-61485000D02*
X54240580Y-61490080D01*
X84394040Y-64185020D02*
X84388960Y-64022460D01*
X84315300Y-63539860D02*
X84272120Y-63382380D01*
X84155280Y-63077580D02*
X84084160Y-62930260D01*
X84005420Y-62788020D02*
X83916520Y-62650860D01*
X83604100Y-62274940D02*
X83484720Y-62163180D01*
X84388960Y-64022460D02*
X84373720Y-63859900D01*
X83820000Y-62518780D02*
X83715860Y-62394320D01*
X83091020Y-61873620D02*
X82948780Y-61794880D01*
X84350860Y-63697340D02*
X84315300Y-63539860D01*
X84084160Y-62930260D02*
X84005420Y-62788020D01*
X82019140Y-61505320D02*
X81856580Y-61490080D01*
X81694020Y-61485000D02*
X54403140Y-61485000D01*
X81694020Y-62683880D02*
X54403140Y-62683880D01*
X81694020Y-63885300D02*
X54403140Y-63885300D01*
X53600500Y-61606920D02*
X53445560Y-61660260D01*
X82651600Y-61660260D02*
X82496660Y-61606920D01*
X53295700Y-61723760D02*
X53148380Y-61794880D01*
X53148380Y-61794880D02*
X53006140Y-61873620D01*
X82801460Y-61723760D02*
X82651600Y-61660260D01*
X53006140Y-61873620D02*
X52868980Y-61962520D01*
X81856580Y-61490080D02*
X81694020Y-61485000D01*
X84218780Y-63227440D02*
X84155280Y-63077580D01*
X53836720Y-93508040D02*
X53699560Y-93464860D01*
X53191560Y-93203240D02*
X53077260Y-93116880D01*
X52772460Y-92812080D02*
X52686100Y-92697780D01*
X54103420Y-64185020D02*
X54103420Y-91486200D01*
X51825040Y-92288840D02*
X51878380Y-92443780D01*
X52868980Y-93708700D02*
X53006140Y-93797600D01*
X53006140Y-93797600D02*
X53148380Y-93876340D01*
X53915460Y-94143040D02*
X54078020Y-94165900D01*
X52475280Y-92321860D02*
X52424480Y-92189780D01*
X52424480Y-92189780D02*
X52381300Y-92052620D01*
X52493060Y-62274940D02*
X52381300Y-62394320D01*
X51781860Y-63539860D02*
X51746300Y-63697340D01*
X51723440Y-91811320D02*
X51746300Y-91973880D01*
X51941880Y-92593640D02*
X52013000Y-92740960D01*
X52091740Y-92883200D02*
X52180640Y-93020360D01*
X52180640Y-62650860D02*
X52091740Y-62788020D01*
X51746300Y-63697340D02*
X51723440Y-63859900D01*
X51708200Y-64022460D02*
X51703120Y-64185020D01*
X52013000Y-62930260D02*
X51941880Y-63077580D01*
X53757980Y-94107480D02*
X53915460Y-94143040D01*
X54403140Y-93586780D02*
X54260900Y-93581700D01*
X53503980Y-91486200D02*
X53503980Y-64185020D01*
X51878380Y-92443780D02*
X51941880Y-92593640D01*
X52277160Y-93152440D02*
X52381300Y-93276900D01*
X52736900Y-93612180D02*
X52868980Y-93708700D01*
X51723440Y-63859900D02*
X51708200Y-64022460D01*
X52381300Y-93276900D02*
X52493060Y-93396280D01*
X53295700Y-93947460D02*
X53445560Y-94010960D01*
X51941880Y-63077580D02*
X51878380Y-63227440D01*
X51781860Y-92131360D02*
X51825040Y-92288840D01*
X51825040Y-63382380D02*
X51781860Y-63539860D01*
X54260900Y-93581700D02*
X54116120Y-93566460D01*
X51746300Y-91973880D02*
X51781860Y-92131360D01*
X54116120Y-93566460D02*
X53976420Y-93543600D01*
X53567480Y-93414060D02*
X53437940Y-93350560D01*
X51878380Y-63227440D02*
X51825040Y-63382380D01*
X51703120Y-64185020D02*
X51703120Y-91486200D01*
X53437940Y-93350560D02*
X53310940Y-93281980D01*
X53310940Y-93281980D02*
X53191560Y-93203240D01*
X53077260Y-93116880D02*
X52970580Y-93020360D01*
X52686100Y-92697780D02*
X52607360Y-92578400D01*
X52607360Y-92578400D02*
X52538780Y-92451400D01*
X54078020Y-94165900D02*
X54240580Y-94181140D01*
X52381300Y-62394320D02*
X52277160Y-62518780D01*
X53699560Y-93464860D02*
X53567480Y-93414060D01*
X52180640Y-93020360D02*
X52277160Y-93152440D01*
X52970580Y-93020360D02*
X52868980Y-92918760D01*
X52868980Y-92918760D02*
X52772460Y-92812080D01*
X52538780Y-92451400D02*
X52475280Y-92321860D01*
X52091740Y-62788020D02*
X52013000Y-62930260D01*
X52305100Y-91486200D02*
X52305100Y-64185020D01*
X52381300Y-92052620D02*
X52345740Y-91912920D01*
X53600500Y-94064300D02*
X53757980Y-94107480D01*
X51708200Y-91648760D02*
X51723440Y-91811320D01*
X52013000Y-92740960D02*
X52091740Y-92883200D01*
X52277160Y-62518780D02*
X52180640Y-62650860D01*
X52904540Y-64185020D02*
X52904540Y-91486200D01*
X52493060Y-93396280D02*
X52612440Y-93508040D01*
X52612440Y-93508040D02*
X52736900Y-93612180D01*
X53445560Y-94010960D02*
X53600500Y-94064300D01*
X54240580Y-94181140D02*
X54403140Y-94186220D01*
X53976420Y-93543600D02*
X53836720Y-93508040D01*
X51703120Y-91486200D02*
X51708200Y-91648760D01*
X53148380Y-93876340D02*
X53295700Y-93947460D01*
X54037380Y-92306620D02*
X53953560Y-92265980D01*
X53524300Y-91674160D02*
X53509060Y-91580180D01*
X52345740Y-91912920D02*
X52322880Y-91773220D01*
X54174540Y-91679240D02*
X54210100Y-91714800D01*
X53801160Y-92154220D02*
X53735120Y-92088180D01*
X54301540Y-91768140D02*
X54352340Y-91780840D01*
X54121200Y-91587800D02*
X54144060Y-91636060D01*
X54253280Y-91745280D02*
X54301540Y-91768140D01*
X52307640Y-64042780D02*
X52322880Y-63898000D01*
X52907080Y-91603040D02*
X52919780Y-91719880D01*
X54352340Y-91780840D02*
X54403140Y-91785920D01*
X52381300Y-63618600D02*
X52424480Y-63481440D01*
X53189020Y-92367580D02*
X53262680Y-92461560D01*
X53618280Y-92766360D02*
X53722420Y-92824780D01*
X54169460Y-92969560D02*
X54286300Y-92982260D01*
X52322880Y-91773220D02*
X52307640Y-91628440D01*
X52902000Y-91486200D02*
X52907080Y-91603040D01*
X52322880Y-63898000D02*
X52345740Y-63758300D01*
X52475280Y-63349360D02*
X52538780Y-63219820D01*
X52772460Y-62859140D02*
X52868980Y-62752460D01*
X53623360Y-91935780D02*
X53582720Y-91851960D01*
X52975660Y-91951020D02*
X53016300Y-92060240D01*
X52424480Y-63481440D02*
X52475280Y-63349360D01*
X52868980Y-62752460D02*
X52970580Y-62650860D01*
X53077260Y-62554340D02*
X53191560Y-62467980D01*
X52307640Y-91628440D02*
X52302560Y-91486200D01*
X53191560Y-62467980D02*
X53310940Y-62389240D01*
X52686100Y-62973440D02*
X52772460Y-62859140D01*
X53310940Y-62389240D02*
X53437940Y-62320660D01*
X53547160Y-91763060D02*
X53524300Y-91674160D01*
X53427780Y-92626660D02*
X53521760Y-92700320D01*
X53938320Y-92913680D02*
X54052620Y-92946700D01*
X52302560Y-64185020D02*
X52307640Y-64042780D01*
X53437940Y-62320660D02*
X53567480Y-62257160D01*
X52970580Y-62650860D02*
X53077260Y-62554340D01*
X54210100Y-91714800D02*
X54253280Y-91745280D01*
X53953560Y-92265980D02*
X53874820Y-92212640D01*
X53676700Y-92014520D02*
X53623360Y-91935780D01*
X53262680Y-92461560D02*
X53341420Y-92547920D01*
X54309160Y-92380280D02*
X54215180Y-92365040D01*
X54108500Y-91537000D02*
X54121200Y-91587800D01*
X53016300Y-92060240D02*
X53064560Y-92166920D01*
X54403140Y-92385360D02*
X54309160Y-92380280D01*
X53509060Y-91580180D02*
X53503980Y-91486200D01*
X53735120Y-92088180D02*
X53676700Y-92014520D01*
X54052620Y-92946700D02*
X54169460Y-92969560D01*
X54103420Y-91486200D02*
X54108500Y-91537000D01*
X52345740Y-63758300D02*
X52381300Y-63618600D01*
X54144060Y-91636060D02*
X54174540Y-91679240D01*
X52538780Y-63219820D02*
X52607360Y-63092820D01*
X52919780Y-91719880D02*
X52942640Y-91836720D01*
X52607360Y-63092820D02*
X52686100Y-62973440D01*
X53722420Y-92824780D02*
X53829100Y-92873040D01*
X53122980Y-92271060D02*
X53189020Y-92367580D01*
X53829100Y-92873040D02*
X53938320Y-92913680D01*
X52942640Y-91836720D02*
X52975660Y-91951020D01*
X54286300Y-92982260D02*
X54403140Y-92987340D01*
X54126280Y-92342180D02*
X54037380Y-92306620D01*
X53341420Y-92547920D02*
X53427780Y-92626660D01*
X54215180Y-92365040D02*
X54126280Y-92342180D01*
X53874820Y-92212640D02*
X53801160Y-92154220D01*
X53582720Y-91851960D02*
X53547160Y-91763060D01*
X53064560Y-92166920D02*
X53122980Y-92271060D01*
X53521760Y-92700320D02*
X53618280Y-92766360D01*
X52919780Y-63951340D02*
X52907080Y-64068180D01*
X52907080Y-64068180D02*
X52902000Y-64185020D01*
X53509060Y-64091040D02*
X53524300Y-63997060D01*
X52942640Y-63834500D02*
X52919780Y-63951340D01*
X53524300Y-63997060D02*
X53547160Y-63908160D01*
X53503980Y-64185020D02*
X53509060Y-64091040D01*
X53547160Y-63908160D02*
X53582720Y-63819260D01*
X53676700Y-63656700D02*
X53735120Y-63583040D01*
X53735120Y-63583040D02*
X53801160Y-63517000D01*
X53699560Y-62206360D02*
X53836720Y-62163180D01*
X53427780Y-63044560D02*
X53341420Y-63123300D01*
X54260900Y-62089520D02*
X54403140Y-62084440D01*
X54052620Y-62724520D02*
X53938320Y-62757540D01*
X53189020Y-63303640D02*
X53122980Y-63400160D01*
X53567480Y-62257160D02*
X53699560Y-62206360D01*
X53521760Y-62970900D02*
X53427780Y-63044560D01*
X54403140Y-62683880D02*
X54286300Y-62688960D01*
X54286300Y-62688960D02*
X54169460Y-62701660D01*
X53064560Y-63504300D02*
X53016300Y-63610980D01*
X53016300Y-63610980D02*
X52975660Y-63720200D01*
X53262680Y-63209660D02*
X53189020Y-63303640D01*
X53122980Y-63400160D02*
X53064560Y-63504300D01*
X53829100Y-62798180D02*
X53722420Y-62846440D01*
X54116120Y-62104760D02*
X54260900Y-62089520D01*
X53938320Y-62757540D02*
X53829100Y-62798180D01*
X53582720Y-63819260D02*
X53623360Y-63735440D01*
X53623360Y-63735440D02*
X53676700Y-63656700D01*
X53341420Y-63123300D02*
X53262680Y-63209660D01*
X53836720Y-62163180D02*
X53976420Y-62127620D01*
X54169460Y-62701660D02*
X54052620Y-62724520D01*
X53722420Y-62846440D02*
X53618280Y-62904860D01*
X53976420Y-62127620D02*
X54116120Y-62104760D01*
X53618280Y-62904860D02*
X53521760Y-62970900D01*
X52975660Y-63720200D02*
X52942640Y-63834500D01*
X82496660Y-94064300D02*
X82651600Y-94010960D01*
X82339180Y-94107480D02*
X82496660Y-94064300D01*
X81694020Y-92385360D02*
X54403140Y-92385360D01*
X81694020Y-93584240D02*
X54403140Y-93584240D01*
X83715860Y-93276900D02*
X83820000Y-93152440D01*
X82801460Y-93947460D02*
X82948780Y-93876340D01*
X83091020Y-93797600D02*
X83228180Y-93708700D01*
X83228180Y-93708700D02*
X83360260Y-93612180D01*
X83360260Y-93612180D02*
X83484720Y-93508040D01*
X83820000Y-93152440D02*
X83916520Y-93020360D01*
X83916520Y-93020360D02*
X84005420Y-92883200D01*
X83484720Y-93508040D02*
X83604100Y-93396280D01*
X54403140Y-94183680D02*
X81694020Y-94183680D01*
X54403140Y-92984800D02*
X81694020Y-92984800D01*
X54403140Y-91785920D02*
X81694020Y-91785920D01*
X81694020Y-94186220D02*
X81856580Y-94181140D01*
X82019140Y-94165900D02*
X82181700Y-94143040D01*
X84005420Y-92883200D02*
X84084160Y-92740960D01*
X82651600Y-94010960D02*
X82801460Y-93947460D01*
X84084160Y-92740960D02*
X84155280Y-92593640D01*
X83604100Y-93396280D02*
X83715860Y-93276900D01*
X84155280Y-92593640D02*
X84218780Y-92443780D01*
X81856580Y-94181140D02*
X82019140Y-94165900D01*
X82948780Y-93876340D02*
X83091020Y-93797600D01*
X82181700Y-94143040D02*
X82339180Y-94107480D01*
X84543900Y-90872800D02*
X84597240Y-90819460D01*
X84653120Y-90776280D02*
X84714080Y-90738180D01*
X82593180Y-91287500D02*
X82593180Y-91486200D01*
X81993740Y-91486200D02*
X81993740Y-91287500D01*
X84411820Y-91126800D02*
X84432140Y-91055680D01*
X84399120Y-91197920D02*
X84411820Y-91126800D01*
X84714080Y-90738180D02*
X84780120Y-90707700D01*
X84394040Y-91269040D02*
X84399120Y-91197920D01*
X84315300Y-92131360D02*
X84350860Y-91973880D01*
X84851240Y-90687380D02*
X84922360Y-90674680D01*
X84350860Y-91973880D02*
X84373720Y-91811320D01*
X84462620Y-90989640D02*
X84500720Y-90928680D01*
X84500720Y-90928680D02*
X84543900Y-90872800D01*
X84373720Y-91811320D02*
X84388960Y-91648760D01*
X84780120Y-90707700D02*
X84851240Y-90687380D01*
X84993480Y-90669600D02*
X85892640Y-90669600D01*
X84218780Y-92443780D02*
X84272120Y-92288840D01*
X84432140Y-91055680D02*
X84462620Y-90989640D01*
X84388960Y-91648760D02*
X84394040Y-91486200D01*
X84597240Y-90819460D02*
X84653120Y-90776280D01*
X84922360Y-90674680D02*
X84993480Y-90669600D01*
X84394040Y-89671380D02*
X83794600Y-90270820D01*
X83192620Y-91486200D02*
X83192620Y-91287500D01*
X84272120Y-92288840D02*
X84315300Y-92131360D01*
X83794600Y-91287500D02*
X83794600Y-91486200D01*
X83192620Y-89270060D02*
X82593180Y-89869500D01*
X81993740Y-89668840D02*
X82593180Y-89069400D01*
X84394040Y-91486200D02*
X84394040Y-91287500D01*
X83794600Y-90270820D02*
X83794600Y-91287500D01*
X83192620Y-90070160D02*
X83192620Y-91287500D01*
X82593180Y-89869500D02*
X82593180Y-91287500D01*
X81993740Y-89668840D02*
X81993740Y-91287500D01*
X82593180Y-89069400D02*
X82593180Y-64185020D01*
X83192620Y-64187560D02*
X83195160Y-64185020D01*
X83192620Y-89270060D02*
X83192620Y-64187560D01*
X83789520Y-89463100D02*
X83794600Y-89468180D01*
X83789520Y-64042780D02*
X83789520Y-89463100D01*
X84394040Y-89668840D02*
X84394040Y-64185020D01*
X54703140Y-64485020D02*
X54703140Y-91186200D01*
X81394020Y-88068640D02*
X81394020Y-64485020D01*
X54705000Y-91186200D02*
X81392000Y-91186200D01*
X81393000Y-64485020D02*
X54702860Y-64485020D01*
X81394020Y-89468180D02*
X81993460Y-88868740D01*
X81392000Y-89470200D02*
X81394020Y-89468180D01*
X81392000Y-91186200D02*
X81392000Y-89470200D01*
X81993460Y-64185300D02*
X81993740Y-64185020D01*
X81993460Y-88868740D02*
X81993460Y-64185300D01*
X83192620Y-90070160D02*
X83789520Y-89468180D01*
X84394040Y-89671380D02*
X83794600Y-90270820D01*
G04 #@! TA.AperFunction,NonConductor*
G36*
X133989805Y-50876073D02*
G01*
X134000000Y-50879385D01*
X134001763Y-50878812D01*
X134007811Y-50876847D01*
X134012192Y-50876299D01*
X134254610Y-50892188D01*
X134256128Y-50892388D01*
X134505633Y-50942018D01*
X134507099Y-50942410D01*
X134747999Y-51024185D01*
X134749407Y-51024769D01*
X134977563Y-51137282D01*
X134978885Y-51138045D01*
X135190414Y-51279384D01*
X135191605Y-51280298D01*
X135382893Y-51448054D01*
X135383946Y-51449107D01*
X135551702Y-51640395D01*
X135552616Y-51641586D01*
X135642421Y-51775989D01*
X135693953Y-51853112D01*
X135694718Y-51854437D01*
X135807230Y-52082590D01*
X135807816Y-52084004D01*
X135889588Y-52324895D01*
X135889984Y-52326373D01*
X135939612Y-52575872D01*
X135939812Y-52577390D01*
X135955701Y-52819808D01*
X135955153Y-52824189D01*
X135952615Y-52832000D01*
X135955927Y-52842192D01*
X135956500Y-52845808D01*
X135956500Y-102954192D01*
X135955927Y-102957805D01*
X135952615Y-102968000D01*
X135953188Y-102969763D01*
X135955153Y-102975811D01*
X135955701Y-102980192D01*
X135939812Y-103222610D01*
X135939612Y-103224128D01*
X135889984Y-103473627D01*
X135889588Y-103475105D01*
X135807816Y-103715996D01*
X135807230Y-103717410D01*
X135694718Y-103945563D01*
X135693955Y-103946885D01*
X135552616Y-104158414D01*
X135551702Y-104159605D01*
X135383946Y-104350893D01*
X135382893Y-104351946D01*
X135191605Y-104519702D01*
X135190414Y-104520616D01*
X135006385Y-104643580D01*
X134978888Y-104661953D01*
X134977566Y-104662717D01*
X134749407Y-104775231D01*
X134747999Y-104775815D01*
X134507099Y-104857590D01*
X134505633Y-104857982D01*
X134326860Y-104893542D01*
X134274427Y-104903972D01*
X134272144Y-104904197D01*
X133698985Y-104904194D01*
X52499958Y-104903808D01*
X52497675Y-104903583D01*
X52468663Y-104897812D01*
X52279302Y-104860146D01*
X52277836Y-104859754D01*
X52044801Y-104780649D01*
X52043393Y-104780065D01*
X51935759Y-104726986D01*
X51822688Y-104671225D01*
X51821363Y-104670460D01*
X51718428Y-104601681D01*
X51616751Y-104533743D01*
X51615541Y-104532815D01*
X51601637Y-104520621D01*
X51430524Y-104370559D01*
X51429441Y-104369476D01*
X51267185Y-104184459D01*
X51266254Y-104183245D01*
X51129540Y-103978637D01*
X51128775Y-103977312D01*
X51019936Y-103756610D01*
X51019350Y-103755196D01*
X50940246Y-103522164D01*
X50939852Y-103520692D01*
X50930785Y-103475105D01*
X50891845Y-103279340D01*
X50891645Y-103277822D01*
X50876299Y-103043692D01*
X50876847Y-103039311D01*
X50878812Y-103033263D01*
X50879385Y-103031500D01*
X50876073Y-103021305D01*
X50875500Y-103017692D01*
X50875500Y-95479093D01*
X50878927Y-95470820D01*
X50887199Y-95467393D01*
X81737201Y-95465145D01*
X81737283Y-95465142D01*
X81737295Y-95465142D01*
X82041689Y-95454711D01*
X82041695Y-95454710D01*
X82042000Y-95454700D01*
X82042305Y-95454656D01*
X82042310Y-95454656D01*
X82397320Y-95403940D01*
X82397600Y-95403900D01*
X82397866Y-95403836D01*
X82397872Y-95403835D01*
X82714950Y-95327736D01*
X82715100Y-95327700D01*
X82763244Y-95313545D01*
X82930805Y-95264278D01*
X82930812Y-95264276D01*
X82930998Y-95264221D01*
X82931179Y-95264154D01*
X82931189Y-95264151D01*
X83172164Y-95175350D01*
X83172300Y-95175300D01*
X83172410Y-95175254D01*
X83172431Y-95175246D01*
X83324610Y-95111838D01*
X83324630Y-95111829D01*
X83324700Y-95111800D01*
X83489802Y-95035600D01*
X83642200Y-94959400D01*
X83896200Y-94807000D01*
X84010401Y-94718177D01*
X84010564Y-94718052D01*
X84112028Y-94641954D01*
X84112166Y-94641852D01*
X84251800Y-94540300D01*
X84353400Y-94451400D01*
X84467700Y-94349800D01*
X84556600Y-94260900D01*
X84658200Y-94146600D01*
X84785200Y-94006900D01*
X84886800Y-93879900D01*
X84932951Y-93816442D01*
X84988226Y-93740440D01*
X84988231Y-93740433D01*
X84988400Y-93740200D01*
X85077300Y-93587800D01*
X85178900Y-93410000D01*
X85280500Y-93206800D01*
X85369400Y-93016300D01*
X85432820Y-92826040D01*
X85433000Y-92825540D01*
X85496291Y-92660984D01*
X85496292Y-92660980D01*
X85496400Y-92660700D01*
X85547200Y-92470200D01*
X85598000Y-92254300D01*
X85623400Y-92051100D01*
X85674200Y-91543100D01*
X85674200Y-91464133D01*
X85677627Y-91455860D01*
X85685900Y-91452433D01*
X85689978Y-91453167D01*
X85696037Y-91455420D01*
X85696039Y-91455420D01*
X85696656Y-91455650D01*
X85816433Y-91471632D01*
X85875028Y-91479450D01*
X85875030Y-91479450D01*
X85875674Y-91479536D01*
X85927400Y-91474829D01*
X86054880Y-91463228D01*
X86054883Y-91463227D01*
X86055536Y-91463168D01*
X86056162Y-91462965D01*
X86056165Y-91462964D01*
X86226681Y-91407560D01*
X86226683Y-91407559D01*
X86227302Y-91407358D01*
X86382434Y-91314880D01*
X86513223Y-91190331D01*
X86613169Y-91039901D01*
X86677303Y-90871067D01*
X86702438Y-90692220D01*
X86702754Y-90669600D01*
X86682622Y-90490120D01*
X86623227Y-90319561D01*
X86527521Y-90166399D01*
X86400261Y-90038247D01*
X86247771Y-89941474D01*
X86077630Y-89880890D01*
X86076980Y-89880813D01*
X86076978Y-89880812D01*
X85898946Y-89859583D01*
X85898942Y-89859583D01*
X85898296Y-89859506D01*
X85718680Y-89878384D01*
X85689669Y-89888260D01*
X85680734Y-89887682D01*
X85674824Y-89880955D01*
X85674200Y-89877184D01*
X85674200Y-89465153D01*
X85677627Y-89456880D01*
X85685900Y-89453453D01*
X85689978Y-89454187D01*
X85696037Y-89456440D01*
X85696039Y-89456440D01*
X85696656Y-89456670D01*
X85816433Y-89472652D01*
X85875028Y-89480470D01*
X85875030Y-89480470D01*
X85875674Y-89480556D01*
X85927400Y-89475849D01*
X86054880Y-89464248D01*
X86054883Y-89464247D01*
X86055536Y-89464188D01*
X86056162Y-89463985D01*
X86056165Y-89463984D01*
X86226681Y-89408580D01*
X86226683Y-89408579D01*
X86227302Y-89408378D01*
X86382434Y-89315900D01*
X86513223Y-89191351D01*
X86613169Y-89040921D01*
X86677303Y-88872087D01*
X86702438Y-88693240D01*
X86702754Y-88670620D01*
X86682622Y-88491140D01*
X86623227Y-88320581D01*
X86527521Y-88167419D01*
X86400261Y-88039267D01*
X86247771Y-87942494D01*
X86077630Y-87881910D01*
X86076980Y-87881833D01*
X86076978Y-87881832D01*
X85898946Y-87860603D01*
X85898942Y-87860603D01*
X85898296Y-87860526D01*
X85718680Y-87879404D01*
X85689669Y-87889280D01*
X85680734Y-87888702D01*
X85674824Y-87881975D01*
X85674200Y-87878204D01*
X85674200Y-64149200D01*
X85661500Y-63895200D01*
X85636100Y-63590400D01*
X85610700Y-63438000D01*
X85585300Y-63311000D01*
X85560031Y-63222557D01*
X85559808Y-63221638D01*
X85534583Y-63095515D01*
X85534500Y-63095100D01*
X85471149Y-62917716D01*
X85470887Y-62916886D01*
X85432900Y-62777600D01*
X85382100Y-62650600D01*
X85305900Y-62472800D01*
X85305828Y-62472657D01*
X85305822Y-62472643D01*
X85242492Y-62345985D01*
X85242400Y-62345800D01*
X85166340Y-62219033D01*
X85166071Y-62218560D01*
X85077486Y-62054046D01*
X85077300Y-62053700D01*
X84975832Y-61914181D01*
X84975567Y-61913801D01*
X84899620Y-61799880D01*
X84899500Y-61799700D01*
X84810600Y-61685400D01*
X84810468Y-61685249D01*
X84721866Y-61583988D01*
X84721535Y-61583593D01*
X84620303Y-61457053D01*
X84620297Y-61457047D01*
X84620100Y-61456800D01*
X84404200Y-61240900D01*
X84201000Y-61063100D01*
X84048600Y-60948800D01*
X84048354Y-60948652D01*
X84048346Y-60948647D01*
X83921685Y-60872651D01*
X83921504Y-60872540D01*
X83820136Y-60809185D01*
X83819847Y-60808998D01*
X83705700Y-60732900D01*
X83705500Y-60732789D01*
X83705492Y-60732784D01*
X83591499Y-60669455D01*
X83591400Y-60669400D01*
X83591310Y-60669355D01*
X83591293Y-60669346D01*
X83464483Y-60605941D01*
X83464465Y-60605933D01*
X83464400Y-60605900D01*
X83324700Y-60542400D01*
X83210400Y-60491600D01*
X83108800Y-60453500D01*
X82969100Y-60402700D01*
X82968960Y-60402658D01*
X82968948Y-60402654D01*
X82842125Y-60364607D01*
X82842071Y-60364592D01*
X82702489Y-60326524D01*
X82702469Y-60326519D01*
X82702400Y-60326500D01*
X82626306Y-60307476D01*
X82550285Y-60288471D01*
X82550280Y-60288470D01*
X82550000Y-60288400D01*
X82549710Y-60288359D01*
X82549702Y-60288357D01*
X82372354Y-60263022D01*
X82372086Y-60262981D01*
X82067400Y-60212200D01*
X81940400Y-60199500D01*
X50887200Y-60199500D01*
X50878927Y-60196073D01*
X50875500Y-60187800D01*
X50875500Y-55250000D01*
X129194564Y-55250000D01*
X129214287Y-55550920D01*
X129273120Y-55846691D01*
X129370055Y-56132252D01*
X129503434Y-56402718D01*
X129670975Y-56653461D01*
X129869811Y-56880189D01*
X130096539Y-57079025D01*
X130347282Y-57246566D01*
X130617748Y-57379945D01*
X130903309Y-57476880D01*
X130903677Y-57476953D01*
X130903680Y-57476954D01*
X131000921Y-57496296D01*
X131199080Y-57535713D01*
X131500000Y-57555436D01*
X131800920Y-57535713D01*
X131999079Y-57496296D01*
X132096320Y-57476954D01*
X132096323Y-57476953D01*
X132096691Y-57476880D01*
X132382252Y-57379945D01*
X132652718Y-57246566D01*
X132903461Y-57079025D01*
X133130189Y-56880189D01*
X133329025Y-56653461D01*
X133496566Y-56402718D01*
X133629945Y-56132252D01*
X133726880Y-55846691D01*
X133785713Y-55550920D01*
X133805436Y-55250000D01*
X133785713Y-54949080D01*
X133726880Y-54653309D01*
X133629945Y-54367748D01*
X133496566Y-54097282D01*
X133329025Y-53846539D01*
X133130189Y-53619811D01*
X132903461Y-53420975D01*
X132652718Y-53253434D01*
X132382252Y-53120055D01*
X132096691Y-53023120D01*
X132096323Y-53023047D01*
X132096320Y-53023046D01*
X131999079Y-53003704D01*
X131800920Y-52964287D01*
X131500000Y-52944564D01*
X131199080Y-52964287D01*
X131000921Y-53003704D01*
X130903680Y-53023046D01*
X130903677Y-53023047D01*
X130903309Y-53023120D01*
X130617748Y-53120055D01*
X130347282Y-53253434D01*
X130096539Y-53420975D01*
X129869811Y-53619811D01*
X129670975Y-53846539D01*
X129503434Y-54097282D01*
X129370055Y-54367748D01*
X129273120Y-54653309D01*
X129214287Y-54949080D01*
X129194564Y-55250000D01*
X50875500Y-55250000D01*
X50875500Y-52845808D01*
X50876073Y-52842192D01*
X50879385Y-52832000D01*
X50876847Y-52824189D01*
X50876299Y-52819808D01*
X50892188Y-52577390D01*
X50892388Y-52575872D01*
X50942016Y-52326373D01*
X50942412Y-52324895D01*
X51024184Y-52084004D01*
X51024770Y-52082590D01*
X51137282Y-51854437D01*
X51138047Y-51853112D01*
X51189579Y-51775989D01*
X51279384Y-51641586D01*
X51280298Y-51640395D01*
X51448054Y-51449107D01*
X51449107Y-51448054D01*
X51640395Y-51280298D01*
X51641586Y-51279384D01*
X51853115Y-51138045D01*
X51854437Y-51137282D01*
X52082593Y-51024769D01*
X52084001Y-51024185D01*
X52324901Y-50942410D01*
X52326367Y-50942018D01*
X52575872Y-50892388D01*
X52577390Y-50892188D01*
X52819808Y-50876299D01*
X52824189Y-50876847D01*
X52832000Y-50879385D01*
X52842195Y-50876073D01*
X52845808Y-50875500D01*
X133986192Y-50875500D01*
X133989805Y-50876073D01*
G37*
G04 #@! TD.AperFunction*
M02*
