%TF.GenerationSoftware,KiCad,Pcbnew,8.0.5+dfsg-1*%
%TF.CreationDate,2024-09-24T14:54:02+01:00*%
%TF.ProjectId,business card-generic-panel,62757369-6e65-4737-9320-636172642d67,rev?*%
%TF.SameCoordinates,Original*%
%TF.FileFunction,Other,Comment*%
%FSLAX46Y46*%
G04 Gerber Fmt 4.6, Leading zero omitted, Abs format (unit mm)*
G04 Created by KiCad (PCBNEW 8.0.5+dfsg-1) date 2024-09-24 14:54:02*
%MOMM*%
%LPD*%
G01*
G04 APERTURE LIST*
%ADD10C,0.300000*%
G04 APERTURE END LIST*
D10*
X150004000Y-17000000D02*
X150004000Y-306000000D01*
X51767000Y-248800000D02*
X245233000Y-248800000D01*
X51767000Y-188600000D02*
X245233000Y-188600000D01*
X51767000Y-245800000D02*
X245233000Y-245800000D01*
X147004000Y-17000000D02*
X147004000Y-306000000D01*
X51767000Y-134400000D02*
X245233000Y-134400000D01*
X51767000Y-74200000D02*
X245233000Y-74200000D01*
X51767000Y-77200000D02*
X245233000Y-77200000D01*
X235234000Y-17000000D02*
X235234000Y-306000000D01*
X61764000Y-17000000D02*
X61764000Y-306000000D01*
X51767000Y-191600000D02*
X245233000Y-191600000D01*
X51767000Y-131400000D02*
X245233000Y-131400000D01*
X248620844Y-190509638D02*
X249287510Y-192509638D01*
X249287510Y-192509638D02*
X249954177Y-190509638D01*
X250620844Y-191747733D02*
X252144654Y-191747733D01*
X254239891Y-192319161D02*
X254144653Y-192414400D01*
X254144653Y-192414400D02*
X253858939Y-192509638D01*
X253858939Y-192509638D02*
X253668463Y-192509638D01*
X253668463Y-192509638D02*
X253382748Y-192414400D01*
X253382748Y-192414400D02*
X253192272Y-192223923D01*
X253192272Y-192223923D02*
X253097034Y-192033447D01*
X253097034Y-192033447D02*
X253001796Y-191652495D01*
X253001796Y-191652495D02*
X253001796Y-191366780D01*
X253001796Y-191366780D02*
X253097034Y-190985828D01*
X253097034Y-190985828D02*
X253192272Y-190795352D01*
X253192272Y-190795352D02*
X253382748Y-190604876D01*
X253382748Y-190604876D02*
X253668463Y-190509638D01*
X253668463Y-190509638D02*
X253858939Y-190509638D01*
X253858939Y-190509638D02*
X254144653Y-190604876D01*
X254144653Y-190604876D02*
X254239891Y-190700114D01*
X255097034Y-190509638D02*
X255097034Y-192128685D01*
X255097034Y-192128685D02*
X255192272Y-192319161D01*
X255192272Y-192319161D02*
X255287510Y-192414400D01*
X255287510Y-192414400D02*
X255477986Y-192509638D01*
X255477986Y-192509638D02*
X255858939Y-192509638D01*
X255858939Y-192509638D02*
X256049415Y-192414400D01*
X256049415Y-192414400D02*
X256144653Y-192319161D01*
X256144653Y-192319161D02*
X256239891Y-192128685D01*
X256239891Y-192128685D02*
X256239891Y-190509638D01*
X256906558Y-190509638D02*
X258049415Y-190509638D01*
X257477986Y-192509638D02*
X257477986Y-190509638D01*
X248620844Y-76109638D02*
X249287510Y-78109638D01*
X249287510Y-78109638D02*
X249954177Y-76109638D01*
X250620844Y-77347733D02*
X252144654Y-77347733D01*
X254239891Y-77919161D02*
X254144653Y-78014400D01*
X254144653Y-78014400D02*
X253858939Y-78109638D01*
X253858939Y-78109638D02*
X253668463Y-78109638D01*
X253668463Y-78109638D02*
X253382748Y-78014400D01*
X253382748Y-78014400D02*
X253192272Y-77823923D01*
X253192272Y-77823923D02*
X253097034Y-77633447D01*
X253097034Y-77633447D02*
X253001796Y-77252495D01*
X253001796Y-77252495D02*
X253001796Y-76966780D01*
X253001796Y-76966780D02*
X253097034Y-76585828D01*
X253097034Y-76585828D02*
X253192272Y-76395352D01*
X253192272Y-76395352D02*
X253382748Y-76204876D01*
X253382748Y-76204876D02*
X253668463Y-76109638D01*
X253668463Y-76109638D02*
X253858939Y-76109638D01*
X253858939Y-76109638D02*
X254144653Y-76204876D01*
X254144653Y-76204876D02*
X254239891Y-76300114D01*
X255097034Y-76109638D02*
X255097034Y-77728685D01*
X255097034Y-77728685D02*
X255192272Y-77919161D01*
X255192272Y-77919161D02*
X255287510Y-78014400D01*
X255287510Y-78014400D02*
X255477986Y-78109638D01*
X255477986Y-78109638D02*
X255858939Y-78109638D01*
X255858939Y-78109638D02*
X256049415Y-78014400D01*
X256049415Y-78014400D02*
X256144653Y-77919161D01*
X256144653Y-77919161D02*
X256239891Y-77728685D01*
X256239891Y-77728685D02*
X256239891Y-76109638D01*
X256906558Y-76109638D02*
X258049415Y-76109638D01*
X257477986Y-78109638D02*
X257477986Y-76109638D01*
X248620844Y-130309638D02*
X249287510Y-132309638D01*
X249287510Y-132309638D02*
X249954177Y-130309638D01*
X250620844Y-131547733D02*
X252144654Y-131547733D01*
X254239891Y-132119161D02*
X254144653Y-132214400D01*
X254144653Y-132214400D02*
X253858939Y-132309638D01*
X253858939Y-132309638D02*
X253668463Y-132309638D01*
X253668463Y-132309638D02*
X253382748Y-132214400D01*
X253382748Y-132214400D02*
X253192272Y-132023923D01*
X253192272Y-132023923D02*
X253097034Y-131833447D01*
X253097034Y-131833447D02*
X253001796Y-131452495D01*
X253001796Y-131452495D02*
X253001796Y-131166780D01*
X253001796Y-131166780D02*
X253097034Y-130785828D01*
X253097034Y-130785828D02*
X253192272Y-130595352D01*
X253192272Y-130595352D02*
X253382748Y-130404876D01*
X253382748Y-130404876D02*
X253668463Y-130309638D01*
X253668463Y-130309638D02*
X253858939Y-130309638D01*
X253858939Y-130309638D02*
X254144653Y-130404876D01*
X254144653Y-130404876D02*
X254239891Y-130500114D01*
X255097034Y-130309638D02*
X255097034Y-131928685D01*
X255097034Y-131928685D02*
X255192272Y-132119161D01*
X255192272Y-132119161D02*
X255287510Y-132214400D01*
X255287510Y-132214400D02*
X255477986Y-132309638D01*
X255477986Y-132309638D02*
X255858939Y-132309638D01*
X255858939Y-132309638D02*
X256049415Y-132214400D01*
X256049415Y-132214400D02*
X256144653Y-132119161D01*
X256144653Y-132119161D02*
X256239891Y-131928685D01*
X256239891Y-131928685D02*
X256239891Y-130309638D01*
X256906558Y-130309638D02*
X258049415Y-130309638D01*
X257477986Y-132309638D02*
X257477986Y-130309638D01*
X145913638Y-13612155D02*
X147913638Y-12945489D01*
X147913638Y-12945489D02*
X145913638Y-12278822D01*
X147151733Y-11612155D02*
X147151733Y-10088346D01*
X147723161Y-7993108D02*
X147818400Y-8088346D01*
X147818400Y-8088346D02*
X147913638Y-8374060D01*
X147913638Y-8374060D02*
X147913638Y-8564536D01*
X147913638Y-8564536D02*
X147818400Y-8850251D01*
X147818400Y-8850251D02*
X147627923Y-9040727D01*
X147627923Y-9040727D02*
X147437447Y-9135965D01*
X147437447Y-9135965D02*
X147056495Y-9231203D01*
X147056495Y-9231203D02*
X146770780Y-9231203D01*
X146770780Y-9231203D02*
X146389828Y-9135965D01*
X146389828Y-9135965D02*
X146199352Y-9040727D01*
X146199352Y-9040727D02*
X146008876Y-8850251D01*
X146008876Y-8850251D02*
X145913638Y-8564536D01*
X145913638Y-8564536D02*
X145913638Y-8374060D01*
X145913638Y-8374060D02*
X146008876Y-8088346D01*
X146008876Y-8088346D02*
X146104114Y-7993108D01*
X145913638Y-7135965D02*
X147532685Y-7135965D01*
X147532685Y-7135965D02*
X147723161Y-7040727D01*
X147723161Y-7040727D02*
X147818400Y-6945489D01*
X147818400Y-6945489D02*
X147913638Y-6755013D01*
X147913638Y-6755013D02*
X147913638Y-6374060D01*
X147913638Y-6374060D02*
X147818400Y-6183584D01*
X147818400Y-6183584D02*
X147723161Y-6088346D01*
X147723161Y-6088346D02*
X147532685Y-5993108D01*
X147532685Y-5993108D02*
X145913638Y-5993108D01*
X145913638Y-5326441D02*
X145913638Y-4183584D01*
X147913638Y-4755013D02*
X145913638Y-4755013D01*
X234143638Y-13612155D02*
X236143638Y-12945489D01*
X236143638Y-12945489D02*
X234143638Y-12278822D01*
X235381733Y-11612155D02*
X235381733Y-10088346D01*
X235953161Y-7993108D02*
X236048400Y-8088346D01*
X236048400Y-8088346D02*
X236143638Y-8374060D01*
X236143638Y-8374060D02*
X236143638Y-8564536D01*
X236143638Y-8564536D02*
X236048400Y-8850251D01*
X236048400Y-8850251D02*
X235857923Y-9040727D01*
X235857923Y-9040727D02*
X235667447Y-9135965D01*
X235667447Y-9135965D02*
X235286495Y-9231203D01*
X235286495Y-9231203D02*
X235000780Y-9231203D01*
X235000780Y-9231203D02*
X234619828Y-9135965D01*
X234619828Y-9135965D02*
X234429352Y-9040727D01*
X234429352Y-9040727D02*
X234238876Y-8850251D01*
X234238876Y-8850251D02*
X234143638Y-8564536D01*
X234143638Y-8564536D02*
X234143638Y-8374060D01*
X234143638Y-8374060D02*
X234238876Y-8088346D01*
X234238876Y-8088346D02*
X234334114Y-7993108D01*
X234143638Y-7135965D02*
X235762685Y-7135965D01*
X235762685Y-7135965D02*
X235953161Y-7040727D01*
X235953161Y-7040727D02*
X236048400Y-6945489D01*
X236048400Y-6945489D02*
X236143638Y-6755013D01*
X236143638Y-6755013D02*
X236143638Y-6374060D01*
X236143638Y-6374060D02*
X236048400Y-6183584D01*
X236048400Y-6183584D02*
X235953161Y-6088346D01*
X235953161Y-6088346D02*
X235762685Y-5993108D01*
X235762685Y-5993108D02*
X234143638Y-5993108D01*
X234143638Y-5326441D02*
X234143638Y-4183584D01*
X236143638Y-4755013D02*
X234143638Y-4755013D01*
X248620844Y-133309638D02*
X249287510Y-135309638D01*
X249287510Y-135309638D02*
X249954177Y-133309638D01*
X250620844Y-134547733D02*
X252144654Y-134547733D01*
X254239891Y-135119161D02*
X254144653Y-135214400D01*
X254144653Y-135214400D02*
X253858939Y-135309638D01*
X253858939Y-135309638D02*
X253668463Y-135309638D01*
X253668463Y-135309638D02*
X253382748Y-135214400D01*
X253382748Y-135214400D02*
X253192272Y-135023923D01*
X253192272Y-135023923D02*
X253097034Y-134833447D01*
X253097034Y-134833447D02*
X253001796Y-134452495D01*
X253001796Y-134452495D02*
X253001796Y-134166780D01*
X253001796Y-134166780D02*
X253097034Y-133785828D01*
X253097034Y-133785828D02*
X253192272Y-133595352D01*
X253192272Y-133595352D02*
X253382748Y-133404876D01*
X253382748Y-133404876D02*
X253668463Y-133309638D01*
X253668463Y-133309638D02*
X253858939Y-133309638D01*
X253858939Y-133309638D02*
X254144653Y-133404876D01*
X254144653Y-133404876D02*
X254239891Y-133500114D01*
X255097034Y-133309638D02*
X255097034Y-134928685D01*
X255097034Y-134928685D02*
X255192272Y-135119161D01*
X255192272Y-135119161D02*
X255287510Y-135214400D01*
X255287510Y-135214400D02*
X255477986Y-135309638D01*
X255477986Y-135309638D02*
X255858939Y-135309638D01*
X255858939Y-135309638D02*
X256049415Y-135214400D01*
X256049415Y-135214400D02*
X256144653Y-135119161D01*
X256144653Y-135119161D02*
X256239891Y-134928685D01*
X256239891Y-134928685D02*
X256239891Y-133309638D01*
X256906558Y-133309638D02*
X258049415Y-133309638D01*
X257477986Y-135309638D02*
X257477986Y-133309638D01*
X248620844Y-244709638D02*
X249287510Y-246709638D01*
X249287510Y-246709638D02*
X249954177Y-244709638D01*
X250620844Y-245947733D02*
X252144654Y-245947733D01*
X254239891Y-246519161D02*
X254144653Y-246614400D01*
X254144653Y-246614400D02*
X253858939Y-246709638D01*
X253858939Y-246709638D02*
X253668463Y-246709638D01*
X253668463Y-246709638D02*
X253382748Y-246614400D01*
X253382748Y-246614400D02*
X253192272Y-246423923D01*
X253192272Y-246423923D02*
X253097034Y-246233447D01*
X253097034Y-246233447D02*
X253001796Y-245852495D01*
X253001796Y-245852495D02*
X253001796Y-245566780D01*
X253001796Y-245566780D02*
X253097034Y-245185828D01*
X253097034Y-245185828D02*
X253192272Y-244995352D01*
X253192272Y-244995352D02*
X253382748Y-244804876D01*
X253382748Y-244804876D02*
X253668463Y-244709638D01*
X253668463Y-244709638D02*
X253858939Y-244709638D01*
X253858939Y-244709638D02*
X254144653Y-244804876D01*
X254144653Y-244804876D02*
X254239891Y-244900114D01*
X255097034Y-244709638D02*
X255097034Y-246328685D01*
X255097034Y-246328685D02*
X255192272Y-246519161D01*
X255192272Y-246519161D02*
X255287510Y-246614400D01*
X255287510Y-246614400D02*
X255477986Y-246709638D01*
X255477986Y-246709638D02*
X255858939Y-246709638D01*
X255858939Y-246709638D02*
X256049415Y-246614400D01*
X256049415Y-246614400D02*
X256144653Y-246519161D01*
X256144653Y-246519161D02*
X256239891Y-246328685D01*
X256239891Y-246328685D02*
X256239891Y-244709638D01*
X256906558Y-244709638D02*
X258049415Y-244709638D01*
X257477986Y-246709638D02*
X257477986Y-244709638D01*
X248620844Y-73109638D02*
X249287510Y-75109638D01*
X249287510Y-75109638D02*
X249954177Y-73109638D01*
X250620844Y-74347733D02*
X252144654Y-74347733D01*
X254239891Y-74919161D02*
X254144653Y-75014400D01*
X254144653Y-75014400D02*
X253858939Y-75109638D01*
X253858939Y-75109638D02*
X253668463Y-75109638D01*
X253668463Y-75109638D02*
X253382748Y-75014400D01*
X253382748Y-75014400D02*
X253192272Y-74823923D01*
X253192272Y-74823923D02*
X253097034Y-74633447D01*
X253097034Y-74633447D02*
X253001796Y-74252495D01*
X253001796Y-74252495D02*
X253001796Y-73966780D01*
X253001796Y-73966780D02*
X253097034Y-73585828D01*
X253097034Y-73585828D02*
X253192272Y-73395352D01*
X253192272Y-73395352D02*
X253382748Y-73204876D01*
X253382748Y-73204876D02*
X253668463Y-73109638D01*
X253668463Y-73109638D02*
X253858939Y-73109638D01*
X253858939Y-73109638D02*
X254144653Y-73204876D01*
X254144653Y-73204876D02*
X254239891Y-73300114D01*
X255097034Y-73109638D02*
X255097034Y-74728685D01*
X255097034Y-74728685D02*
X255192272Y-74919161D01*
X255192272Y-74919161D02*
X255287510Y-75014400D01*
X255287510Y-75014400D02*
X255477986Y-75109638D01*
X255477986Y-75109638D02*
X255858939Y-75109638D01*
X255858939Y-75109638D02*
X256049415Y-75014400D01*
X256049415Y-75014400D02*
X256144653Y-74919161D01*
X256144653Y-74919161D02*
X256239891Y-74728685D01*
X256239891Y-74728685D02*
X256239891Y-73109638D01*
X256906558Y-73109638D02*
X258049415Y-73109638D01*
X257477986Y-75109638D02*
X257477986Y-73109638D01*
X60673638Y-13612155D02*
X62673638Y-12945489D01*
X62673638Y-12945489D02*
X60673638Y-12278822D01*
X61911733Y-11612155D02*
X61911733Y-10088346D01*
X62483161Y-7993108D02*
X62578400Y-8088346D01*
X62578400Y-8088346D02*
X62673638Y-8374060D01*
X62673638Y-8374060D02*
X62673638Y-8564536D01*
X62673638Y-8564536D02*
X62578400Y-8850251D01*
X62578400Y-8850251D02*
X62387923Y-9040727D01*
X62387923Y-9040727D02*
X62197447Y-9135965D01*
X62197447Y-9135965D02*
X61816495Y-9231203D01*
X61816495Y-9231203D02*
X61530780Y-9231203D01*
X61530780Y-9231203D02*
X61149828Y-9135965D01*
X61149828Y-9135965D02*
X60959352Y-9040727D01*
X60959352Y-9040727D02*
X60768876Y-8850251D01*
X60768876Y-8850251D02*
X60673638Y-8564536D01*
X60673638Y-8564536D02*
X60673638Y-8374060D01*
X60673638Y-8374060D02*
X60768876Y-8088346D01*
X60768876Y-8088346D02*
X60864114Y-7993108D01*
X60673638Y-7135965D02*
X62292685Y-7135965D01*
X62292685Y-7135965D02*
X62483161Y-7040727D01*
X62483161Y-7040727D02*
X62578400Y-6945489D01*
X62578400Y-6945489D02*
X62673638Y-6755013D01*
X62673638Y-6755013D02*
X62673638Y-6374060D01*
X62673638Y-6374060D02*
X62578400Y-6183584D01*
X62578400Y-6183584D02*
X62483161Y-6088346D01*
X62483161Y-6088346D02*
X62292685Y-5993108D01*
X62292685Y-5993108D02*
X60673638Y-5993108D01*
X60673638Y-5326441D02*
X60673638Y-4183584D01*
X62673638Y-4755013D02*
X60673638Y-4755013D01*
X248620844Y-247709638D02*
X249287510Y-249709638D01*
X249287510Y-249709638D02*
X249954177Y-247709638D01*
X250620844Y-248947733D02*
X252144654Y-248947733D01*
X254239891Y-249519161D02*
X254144653Y-249614400D01*
X254144653Y-249614400D02*
X253858939Y-249709638D01*
X253858939Y-249709638D02*
X253668463Y-249709638D01*
X253668463Y-249709638D02*
X253382748Y-249614400D01*
X253382748Y-249614400D02*
X253192272Y-249423923D01*
X253192272Y-249423923D02*
X253097034Y-249233447D01*
X253097034Y-249233447D02*
X253001796Y-248852495D01*
X253001796Y-248852495D02*
X253001796Y-248566780D01*
X253001796Y-248566780D02*
X253097034Y-248185828D01*
X253097034Y-248185828D02*
X253192272Y-247995352D01*
X253192272Y-247995352D02*
X253382748Y-247804876D01*
X253382748Y-247804876D02*
X253668463Y-247709638D01*
X253668463Y-247709638D02*
X253858939Y-247709638D01*
X253858939Y-247709638D02*
X254144653Y-247804876D01*
X254144653Y-247804876D02*
X254239891Y-247900114D01*
X255097034Y-247709638D02*
X255097034Y-249328685D01*
X255097034Y-249328685D02*
X255192272Y-249519161D01*
X255192272Y-249519161D02*
X255287510Y-249614400D01*
X255287510Y-249614400D02*
X255477986Y-249709638D01*
X255477986Y-249709638D02*
X255858939Y-249709638D01*
X255858939Y-249709638D02*
X256049415Y-249614400D01*
X256049415Y-249614400D02*
X256144653Y-249519161D01*
X256144653Y-249519161D02*
X256239891Y-249328685D01*
X256239891Y-249328685D02*
X256239891Y-247709638D01*
X256906558Y-247709638D02*
X258049415Y-247709638D01*
X257477986Y-249709638D02*
X257477986Y-247709638D01*
X248620844Y-187509638D02*
X249287510Y-189509638D01*
X249287510Y-189509638D02*
X249954177Y-187509638D01*
X250620844Y-188747733D02*
X252144654Y-188747733D01*
X254239891Y-189319161D02*
X254144653Y-189414400D01*
X254144653Y-189414400D02*
X253858939Y-189509638D01*
X253858939Y-189509638D02*
X253668463Y-189509638D01*
X253668463Y-189509638D02*
X253382748Y-189414400D01*
X253382748Y-189414400D02*
X253192272Y-189223923D01*
X253192272Y-189223923D02*
X253097034Y-189033447D01*
X253097034Y-189033447D02*
X253001796Y-188652495D01*
X253001796Y-188652495D02*
X253001796Y-188366780D01*
X253001796Y-188366780D02*
X253097034Y-187985828D01*
X253097034Y-187985828D02*
X253192272Y-187795352D01*
X253192272Y-187795352D02*
X253382748Y-187604876D01*
X253382748Y-187604876D02*
X253668463Y-187509638D01*
X253668463Y-187509638D02*
X253858939Y-187509638D01*
X253858939Y-187509638D02*
X254144653Y-187604876D01*
X254144653Y-187604876D02*
X254239891Y-187700114D01*
X255097034Y-187509638D02*
X255097034Y-189128685D01*
X255097034Y-189128685D02*
X255192272Y-189319161D01*
X255192272Y-189319161D02*
X255287510Y-189414400D01*
X255287510Y-189414400D02*
X255477986Y-189509638D01*
X255477986Y-189509638D02*
X255858939Y-189509638D01*
X255858939Y-189509638D02*
X256049415Y-189414400D01*
X256049415Y-189414400D02*
X256144653Y-189319161D01*
X256144653Y-189319161D02*
X256239891Y-189128685D01*
X256239891Y-189128685D02*
X256239891Y-187509638D01*
X256906558Y-187509638D02*
X258049415Y-187509638D01*
X257477986Y-189509638D02*
X257477986Y-187509638D01*
X148913638Y-13612155D02*
X150913638Y-12945489D01*
X150913638Y-12945489D02*
X148913638Y-12278822D01*
X150151733Y-11612155D02*
X150151733Y-10088346D01*
X150723161Y-7993108D02*
X150818400Y-8088346D01*
X150818400Y-8088346D02*
X150913638Y-8374060D01*
X150913638Y-8374060D02*
X150913638Y-8564536D01*
X150913638Y-8564536D02*
X150818400Y-8850251D01*
X150818400Y-8850251D02*
X150627923Y-9040727D01*
X150627923Y-9040727D02*
X150437447Y-9135965D01*
X150437447Y-9135965D02*
X150056495Y-9231203D01*
X150056495Y-9231203D02*
X149770780Y-9231203D01*
X149770780Y-9231203D02*
X149389828Y-9135965D01*
X149389828Y-9135965D02*
X149199352Y-9040727D01*
X149199352Y-9040727D02*
X149008876Y-8850251D01*
X149008876Y-8850251D02*
X148913638Y-8564536D01*
X148913638Y-8564536D02*
X148913638Y-8374060D01*
X148913638Y-8374060D02*
X149008876Y-8088346D01*
X149008876Y-8088346D02*
X149104114Y-7993108D01*
X148913638Y-7135965D02*
X150532685Y-7135965D01*
X150532685Y-7135965D02*
X150723161Y-7040727D01*
X150723161Y-7040727D02*
X150818400Y-6945489D01*
X150818400Y-6945489D02*
X150913638Y-6755013D01*
X150913638Y-6755013D02*
X150913638Y-6374060D01*
X150913638Y-6374060D02*
X150818400Y-6183584D01*
X150818400Y-6183584D02*
X150723161Y-6088346D01*
X150723161Y-6088346D02*
X150532685Y-5993108D01*
X150532685Y-5993108D02*
X148913638Y-5993108D01*
X148913638Y-5326441D02*
X148913638Y-4183584D01*
X150913638Y-4755013D02*
X148913638Y-4755013D01*
M02*
