%TF.GenerationSoftware,KiCad,Pcbnew,8.0.5+dfsg-1*%
%TF.CreationDate,2024-09-24T14:54:02+01:00*%
%TF.ProjectId,business card-generic-panel,62757369-6e65-4737-9320-636172642d67,rev?*%
%TF.SameCoordinates,Original*%
%TF.FileFunction,Soldermask,Bot*%
%TF.FilePolarity,Negative*%
%FSLAX46Y46*%
G04 Gerber Fmt 4.6, Leading zero omitted, Abs format (unit mm)*
G04 Created by KiCad (PCBNEW 8.0.5+dfsg-1) date 2024-09-24 14:54:02*
%MOMM*%
%LPD*%
G01*
G04 APERTURE LIST*
G04 Aperture macros list*
%AMRoundRect*
0 Rectangle with rounded corners*
0 $1 Rounding radius*
0 $2 $3 $4 $5 $6 $7 $8 $9 X,Y pos of 4 corners*
0 Add a 4 corners polygon primitive as box body*
4,1,4,$2,$3,$4,$5,$6,$7,$8,$9,$2,$3,0*
0 Add four circle primitives for the rounded corners*
1,1,$1+$1,$2,$3*
1,1,$1+$1,$4,$5*
1,1,$1+$1,$6,$7*
1,1,$1+$1,$8,$9*
0 Add four rect primitives between the rounded corners*
20,1,$1+$1,$2,$3,$4,$5,0*
20,1,$1+$1,$4,$5,$6,$7,0*
20,1,$1+$1,$6,$7,$8,$9,0*
20,1,$1+$1,$8,$9,$2,$3,0*%
G04 Aperture macros list end*
%ADD10C,0.410555*%
%ADD11C,4.200000*%
%ADD12C,2.000000*%
%ADD13RoundRect,0.135000X0.185000X-0.135000X0.185000X0.135000X-0.185000X0.135000X-0.185000X-0.135000X0*%
%ADD14RoundRect,0.140000X0.170000X-0.140000X0.170000X0.140000X-0.170000X0.140000X-0.170000X-0.140000X0*%
%ADD15RoundRect,0.218750X-0.218750X-0.256250X0.218750X-0.256250X0.218750X0.256250X-0.218750X0.256250X0*%
%ADD16R,0.320000X0.400000*%
%ADD17R,0.220000X0.400000*%
%ADD18R,0.400000X0.220000*%
%ADD19C,1.000000*%
G04 APERTURE END LIST*
D10*
X77773277Y-109900000D02*
G75*
G02*
X77362723Y-109900000I-205277J0D01*
G01*
X77362723Y-109900000D02*
G75*
G02*
X77773277Y-109900000I205277J0D01*
G01*
X77773277Y-281500000D02*
G75*
G02*
X77362723Y-281500000I-205277J0D01*
G01*
X77362723Y-281500000D02*
G75*
G02*
X77773277Y-281500000I205277J0D01*
G01*
X166005277Y-281500000D02*
G75*
G02*
X165594723Y-281500000I-205277J0D01*
G01*
X165594723Y-281500000D02*
G75*
G02*
X166005277Y-281500000I205277J0D01*
G01*
X166005277Y-109900000D02*
G75*
G02*
X165594723Y-109900000I-205277J0D01*
G01*
X165594723Y-109900000D02*
G75*
G02*
X166005277Y-109900000I205277J0D01*
G01*
X77773277Y-52700000D02*
G75*
G02*
X77362723Y-52700000I-205277J0D01*
G01*
X77362723Y-52700000D02*
G75*
G02*
X77773277Y-52700000I205277J0D01*
G01*
X166005277Y-52700000D02*
G75*
G02*
X165594723Y-52700000I-205277J0D01*
G01*
X165594723Y-52700000D02*
G75*
G02*
X166005277Y-52700000I205277J0D01*
G01*
X77773277Y-167100000D02*
G75*
G02*
X77362723Y-167100000I-205277J0D01*
G01*
X77362723Y-167100000D02*
G75*
G02*
X77773277Y-167100000I205277J0D01*
G01*
X77773277Y-224300000D02*
G75*
G02*
X77362723Y-224300000I-205277J0D01*
G01*
X77362723Y-224300000D02*
G75*
G02*
X77773277Y-224300000I205277J0D01*
G01*
X166005277Y-167100000D02*
G75*
G02*
X165594723Y-167100000I-205277J0D01*
G01*
X165594723Y-167100000D02*
G75*
G02*
X166005277Y-167100000I205277J0D01*
G01*
X166005277Y-224300000D02*
G75*
G02*
X165594723Y-224300000I-205277J0D01*
G01*
X165594723Y-224300000D02*
G75*
G02*
X166005277Y-224300000I205277J0D01*
G01*
D11*
%TO.C,REF\u002A\u002A*%
X142968000Y-138600000D03*
%TD*%
%TO.C,REF\u002A\u002A*%
X231200000Y-195800000D03*
%TD*%
%TO.C,REF\u002A\u002A*%
X231200000Y-253000000D03*
%TD*%
%TO.C,REF\u002A\u002A*%
X231200000Y-138600000D03*
%TD*%
%TO.C,REF\u002A\u002A*%
X231200000Y-24200000D03*
%TD*%
%TO.C,REF\u002A\u002A*%
X142968000Y-24200000D03*
%TD*%
%TO.C,REF\u002A\u002A*%
X142968000Y-195800000D03*
%TD*%
%TO.C,REF\u002A\u002A*%
X231200000Y-81400000D03*
%TD*%
D12*
%TO.C,KiKit_TO_1*%
X57267000Y-22500000D03*
%TD*%
%TO.C,KiKit_TO_2*%
X239733000Y-22500000D03*
%TD*%
D11*
%TO.C,REF\u002A\u002A*%
X142968000Y-253000000D03*
%TD*%
%TO.C,REF\u002A\u002A*%
X142968000Y-81400000D03*
%TD*%
D12*
%TO.C,KiKit_TO_3*%
X57267000Y-300500000D03*
%TD*%
D13*
%TO.C,R1*%
X102018000Y-116697500D03*
X102018000Y-115677500D03*
%TD*%
D14*
%TO.C,C1*%
X100968000Y-173867500D03*
X100968000Y-172907500D03*
%TD*%
D15*
%TO.C,D1*%
X100705500Y-228700000D03*
X102280500Y-228700000D03*
%TD*%
D14*
%TO.C,C1*%
X100968000Y-288267500D03*
X100968000Y-287307500D03*
%TD*%
D15*
%TO.C,D1*%
X188937500Y-114300000D03*
X190512500Y-114300000D03*
%TD*%
D13*
%TO.C,R1*%
X102018000Y-288297500D03*
X102018000Y-287277500D03*
%TD*%
D14*
%TO.C,C1*%
X189200000Y-116667500D03*
X189200000Y-115707500D03*
%TD*%
D16*
%TO.C,U1*%
X98632200Y-172765100D03*
D17*
X99182200Y-172765100D03*
X99682200Y-172765100D03*
D18*
X99782200Y-173365100D03*
D17*
X99682200Y-173965100D03*
X99182200Y-173965100D03*
X98682200Y-173965100D03*
D18*
X98582200Y-173365100D03*
%TD*%
D13*
%TO.C,R1*%
X190250000Y-231097500D03*
X190250000Y-230077500D03*
%TD*%
D15*
%TO.C,D1*%
X188937500Y-228700000D03*
X190512500Y-228700000D03*
%TD*%
D16*
%TO.C,U1*%
X98632200Y-58365100D03*
D17*
X99182200Y-58365100D03*
X99682200Y-58365100D03*
D18*
X99782200Y-58965100D03*
D17*
X99682200Y-59565100D03*
X99182200Y-59565100D03*
X98682200Y-59565100D03*
D18*
X98582200Y-58965100D03*
%TD*%
D16*
%TO.C,U1*%
X186864200Y-172765100D03*
D17*
X187414200Y-172765100D03*
X187914200Y-172765100D03*
D18*
X188014200Y-173365100D03*
D17*
X187914200Y-173965100D03*
X187414200Y-173965100D03*
X186914200Y-173965100D03*
D18*
X186814200Y-173365100D03*
%TD*%
D19*
%TO.C,KiKit_FID_B_3*%
X57617000Y-293000000D03*
%TD*%
D15*
%TO.C,D1*%
X188937500Y-57100000D03*
X190512500Y-57100000D03*
%TD*%
D14*
%TO.C,C1*%
X189200000Y-231067500D03*
X189200000Y-230107500D03*
%TD*%
D15*
%TO.C,D1*%
X188937500Y-171500000D03*
X190512500Y-171500000D03*
%TD*%
D13*
%TO.C,R1*%
X190250000Y-116697500D03*
X190250000Y-115677500D03*
%TD*%
%TO.C,R1*%
X102018000Y-173897500D03*
X102018000Y-172877500D03*
%TD*%
D14*
%TO.C,C1*%
X189200000Y-288267500D03*
X189200000Y-287307500D03*
%TD*%
D13*
%TO.C,R1*%
X190250000Y-173897500D03*
X190250000Y-172877500D03*
%TD*%
%TO.C,R1*%
X190250000Y-288297500D03*
X190250000Y-287277500D03*
%TD*%
D19*
%TO.C,KiKit_FID_B_2*%
X239383000Y-30000000D03*
%TD*%
D14*
%TO.C,C1*%
X189200000Y-59467500D03*
X189200000Y-58507500D03*
%TD*%
D19*
%TO.C,KiKit_FID_B_1*%
X57617000Y-30000000D03*
%TD*%
D16*
%TO.C,U1*%
X186864200Y-115565100D03*
D17*
X187414200Y-115565100D03*
X187914200Y-115565100D03*
D18*
X188014200Y-116165100D03*
D17*
X187914200Y-116765100D03*
X187414200Y-116765100D03*
X186914200Y-116765100D03*
D18*
X186814200Y-116165100D03*
%TD*%
D13*
%TO.C,R1*%
X190250000Y-59497500D03*
X190250000Y-58477500D03*
%TD*%
D15*
%TO.C,D1*%
X100705500Y-57100000D03*
X102280500Y-57100000D03*
%TD*%
D16*
%TO.C,U1*%
X186864200Y-287165100D03*
D17*
X187414200Y-287165100D03*
X187914200Y-287165100D03*
D18*
X188014200Y-287765100D03*
D17*
X187914200Y-288365100D03*
X187414200Y-288365100D03*
X186914200Y-288365100D03*
D18*
X186814200Y-287765100D03*
%TD*%
D14*
%TO.C,C1*%
X189200000Y-173867500D03*
X189200000Y-172907500D03*
%TD*%
D13*
%TO.C,R1*%
X102018000Y-59497500D03*
X102018000Y-58477500D03*
%TD*%
D16*
%TO.C,U1*%
X98632200Y-287165100D03*
D17*
X99182200Y-287165100D03*
X99682200Y-287165100D03*
D18*
X99782200Y-287765100D03*
D17*
X99682200Y-288365100D03*
X99182200Y-288365100D03*
X98682200Y-288365100D03*
D18*
X98582200Y-287765100D03*
%TD*%
D16*
%TO.C,U1*%
X98632200Y-229965100D03*
D17*
X99182200Y-229965100D03*
X99682200Y-229965100D03*
D18*
X99782200Y-230565100D03*
D17*
X99682200Y-231165100D03*
X99182200Y-231165100D03*
X98682200Y-231165100D03*
D18*
X98582200Y-230565100D03*
%TD*%
D16*
%TO.C,U1*%
X186864200Y-58365100D03*
D17*
X187414200Y-58365100D03*
X187914200Y-58365100D03*
D18*
X188014200Y-58965100D03*
D17*
X187914200Y-59565100D03*
X187414200Y-59565100D03*
X186914200Y-59565100D03*
D18*
X186814200Y-58965100D03*
%TD*%
D14*
%TO.C,C1*%
X100968000Y-116667500D03*
X100968000Y-115707500D03*
%TD*%
%TO.C,C1*%
X100968000Y-231067500D03*
X100968000Y-230107500D03*
%TD*%
D16*
%TO.C,U1*%
X98632200Y-115565100D03*
D17*
X99182200Y-115565100D03*
X99682200Y-115565100D03*
D18*
X99782200Y-116165100D03*
D17*
X99682200Y-116765100D03*
X99182200Y-116765100D03*
X98682200Y-116765100D03*
D18*
X98582200Y-116165100D03*
%TD*%
D15*
%TO.C,D1*%
X100705500Y-285900000D03*
X102280500Y-285900000D03*
%TD*%
D14*
%TO.C,C1*%
X100968000Y-59467500D03*
X100968000Y-58507500D03*
%TD*%
D16*
%TO.C,U1*%
X186864200Y-229965100D03*
D17*
X187414200Y-229965100D03*
X187914200Y-229965100D03*
D18*
X188014200Y-230565100D03*
D17*
X187914200Y-231165100D03*
X187414200Y-231165100D03*
X186914200Y-231165100D03*
D18*
X186814200Y-230565100D03*
%TD*%
D15*
%TO.C,D1*%
X100705500Y-171500000D03*
X102280500Y-171500000D03*
%TD*%
D13*
%TO.C,R1*%
X102018000Y-231097500D03*
X102018000Y-230077500D03*
%TD*%
D15*
%TO.C,D1*%
X100705500Y-114300000D03*
X102280500Y-114300000D03*
%TD*%
%TO.C,D1*%
X188937500Y-285900000D03*
X190512500Y-285900000D03*
%TD*%
M02*
