M48
; DRILL file {KiCad 8.0.5+dfsg-1} date 2024-09-24T14:54:04+0100
; FORMAT={-:-/ absolute / metric / decimal}
; #@! TF.CreationDate,2024-09-24T14:54:04+01:00
; #@! TF.GenerationSoftware,Kicad,Pcbnew,8.0.5+dfsg-1
; #@! TF.FileFunction,Plated,1,2,PTH
FMAT,2
METRIC
; #@! TA.AperFunction,Plated,PTH,ViaDrill
T1C0.400
; #@! TA.AperFunction,Plated,PTH,ComponentDrill
T2C4.000
%
G90
G05
T1
X91.763Y-57.871
X91.763Y-115.071
X91.763Y-172.271
X91.763Y-229.471
X91.763Y-286.671
X96.861Y-57.871
X96.861Y-59.87
X96.861Y-115.071
X96.861Y-117.07
X96.861Y-172.271
X96.861Y-174.27
X96.861Y-229.471
X96.861Y-231.47
X96.861Y-286.671
X96.861Y-288.67
X179.995Y-57.871
X179.995Y-115.071
X179.995Y-172.271
X179.995Y-229.471
X179.995Y-286.671
X185.093Y-57.871
X185.093Y-59.87
X185.093Y-115.071
X185.093Y-117.07
X185.093Y-172.271
X185.093Y-174.27
X185.093Y-229.471
X185.093Y-231.47
X185.093Y-286.671
X185.093Y-288.67
T2
X142.968Y-24.2
X142.968Y-81.4
X142.968Y-138.6
X142.968Y-195.8
X142.968Y-253.0
X231.2Y-24.2
X231.2Y-81.4
X231.2Y-138.6
X231.2Y-195.8
X231.2Y-253.0
M30
