G04 #@! TF.GenerationSoftware,KiCad,Pcbnew,6.0.11+dfsg-1*
G04 #@! TF.CreationDate,2023-08-15T18:05:06+01:00*
G04 #@! TF.ProjectId,business card-andrew,62757369-6e65-4737-9320-636172642d61,rev?*
G04 #@! TF.SameCoordinates,Original*
G04 #@! TF.FileFunction,Soldermask,Top*
G04 #@! TF.FilePolarity,Negative*
%FSLAX46Y46*%
G04 Gerber Fmt 4.6, Leading zero omitted, Abs format (unit mm)*
G04 Created by KiCad (PCBNEW 6.0.11+dfsg-1) date 2023-08-15 18:05:06*
%MOMM*%
%LPD*%
G01*
G04 APERTURE LIST*
%ADD10C,0.000000*%
%ADD11C,4.200000*%
G04 APERTURE END LIST*
D10*
G36*
X103700858Y-83063228D02*
G01*
X103711103Y-83063800D01*
X103721178Y-83064752D01*
X103731084Y-83066086D01*
X103740821Y-83067800D01*
X103750388Y-83069896D01*
X103759786Y-83072372D01*
X103769015Y-83075230D01*
X103778074Y-83078468D01*
X103786964Y-83082088D01*
X103795685Y-83086088D01*
X103804236Y-83090470D01*
X103812618Y-83095232D01*
X103820831Y-83100376D01*
X103828874Y-83105900D01*
X103836748Y-83111806D01*
X103840582Y-83114751D01*
X103844294Y-83117828D01*
X103847884Y-83121037D01*
X103851353Y-83124379D01*
X103854700Y-83127853D01*
X103857925Y-83131459D01*
X103861028Y-83135198D01*
X103864010Y-83139069D01*
X103866870Y-83143072D01*
X103869608Y-83147207D01*
X103872225Y-83151475D01*
X103874720Y-83155875D01*
X103877093Y-83160407D01*
X103879345Y-83165072D01*
X103883483Y-83174798D01*
X103887134Y-83185053D01*
X103890298Y-83195837D01*
X103892976Y-83207151D01*
X103895167Y-83218994D01*
X103896871Y-83231365D01*
X103898088Y-83244266D01*
X103898818Y-83257697D01*
X103899061Y-83271656D01*
X103898818Y-83285298D01*
X103898088Y-83298453D01*
X103896871Y-83311121D01*
X103895167Y-83323303D01*
X103892976Y-83334997D01*
X103890298Y-83346205D01*
X103887134Y-83356926D01*
X103883483Y-83367160D01*
X103879345Y-83376907D01*
X103874720Y-83386168D01*
X103869608Y-83394941D01*
X103864010Y-83403228D01*
X103857925Y-83411028D01*
X103851353Y-83418341D01*
X103844294Y-83425167D01*
X103836748Y-83431507D01*
X103828874Y-83437412D01*
X103820831Y-83442937D01*
X103812618Y-83448080D01*
X103804236Y-83452843D01*
X103795685Y-83457225D01*
X103786964Y-83461225D01*
X103778074Y-83464845D01*
X103769015Y-83468083D01*
X103759786Y-83470941D01*
X103750388Y-83473417D01*
X103740821Y-83475513D01*
X103731084Y-83477227D01*
X103721178Y-83478561D01*
X103711103Y-83479513D01*
X103700858Y-83480085D01*
X103690444Y-83480275D01*
X103679713Y-83480085D01*
X103669193Y-83479513D01*
X103658885Y-83478561D01*
X103648788Y-83477227D01*
X103638904Y-83475513D01*
X103629230Y-83473417D01*
X103619769Y-83470941D01*
X103610519Y-83468083D01*
X103601481Y-83464845D01*
X103592654Y-83461225D01*
X103584039Y-83457225D01*
X103575636Y-83452843D01*
X103567444Y-83448080D01*
X103559464Y-83442937D01*
X103551696Y-83437412D01*
X103544139Y-83431507D01*
X103536922Y-83425167D01*
X103530170Y-83418341D01*
X103523883Y-83411028D01*
X103518063Y-83403228D01*
X103512707Y-83394941D01*
X103507818Y-83386168D01*
X103503394Y-83376907D01*
X103499436Y-83367160D01*
X103495944Y-83356926D01*
X103492917Y-83346205D01*
X103490356Y-83334997D01*
X103488260Y-83323303D01*
X103486630Y-83311121D01*
X103485466Y-83298453D01*
X103484768Y-83285298D01*
X103484535Y-83271656D01*
X103484768Y-83257697D01*
X103485466Y-83244266D01*
X103486630Y-83231365D01*
X103488260Y-83218994D01*
X103490356Y-83207151D01*
X103492917Y-83195837D01*
X103495944Y-83185053D01*
X103499436Y-83174798D01*
X103503394Y-83165072D01*
X103507818Y-83155875D01*
X103512707Y-83147207D01*
X103518063Y-83139069D01*
X103523883Y-83131459D01*
X103530170Y-83124379D01*
X103536922Y-83117828D01*
X103544139Y-83111806D01*
X103551696Y-83105900D01*
X103559464Y-83100376D01*
X103567444Y-83095232D01*
X103575636Y-83090470D01*
X103584039Y-83086088D01*
X103592654Y-83082088D01*
X103601481Y-83078468D01*
X103610519Y-83075230D01*
X103619769Y-83072372D01*
X103629230Y-83069896D01*
X103638904Y-83067800D01*
X103648788Y-83066086D01*
X103658885Y-83064752D01*
X103669193Y-83063800D01*
X103679713Y-83063228D01*
X103690444Y-83063038D01*
X103700858Y-83063228D01*
G37*
D11*
X131500000Y-55250000D03*
M02*
