G04 #@! TF.GenerationSoftware,KiCad,Pcbnew,6.0.11+dfsg-1*
G04 #@! TF.CreationDate,2023-08-15T18:05:05+01:00*
G04 #@! TF.ProjectId,business card-andrew,62757369-6e65-4737-9320-636172642d61,rev?*
G04 #@! TF.SameCoordinates,Original*
G04 #@! TF.FileFunction,Copper,L2,Bot*
G04 #@! TF.FilePolarity,Positive*
%FSLAX46Y46*%
G04 Gerber Fmt 4.6, Leading zero omitted, Abs format (unit mm)*
G04 Created by KiCad (PCBNEW 6.0.11+dfsg-1) date 2023-08-15 18:05:05*
%MOMM*%
%LPD*%
G01*
G04 APERTURE LIST*
G04 Aperture macros list*
%AMRoundRect*
0 Rectangle with rounded corners*
0 $1 Rounding radius*
0 $2 $3 $4 $5 $6 $7 $8 $9 X,Y pos of 4 corners*
0 Add a 4 corners polygon primitive as box body*
4,1,4,$2,$3,$4,$5,$6,$7,$8,$9,$2,$3,0*
0 Add four circle primitives for the rounded corners*
1,1,$1+$1,$2,$3*
1,1,$1+$1,$4,$5*
1,1,$1+$1,$6,$7*
1,1,$1+$1,$8,$9*
0 Add four rect primitives between the rounded corners*
20,1,$1+$1,$2,$3,$4,$5,0*
20,1,$1+$1,$4,$5,$6,$7,0*
20,1,$1+$1,$6,$7,$8,$9,0*
20,1,$1+$1,$8,$9,$2,$3,0*%
G04 Aperture macros list end*
G04 #@! TA.AperFunction,ComponentPad*
%ADD10C,4.200000*%
G04 #@! TD*
G04 #@! TA.AperFunction,SMDPad,CuDef*
%ADD11RoundRect,0.218750X-0.256250X0.218750X-0.256250X-0.218750X0.256250X-0.218750X0.256250X0.218750X0*%
G04 #@! TD*
G04 #@! TA.AperFunction,SMDPad,CuDef*
%ADD12RoundRect,0.100000X-0.100000X0.637500X-0.100000X-0.637500X0.100000X-0.637500X0.100000X0.637500X0*%
G04 #@! TD*
G04 #@! TA.AperFunction,SMDPad,CuDef*
%ADD13RoundRect,0.225000X0.250000X-0.225000X0.250000X0.225000X-0.250000X0.225000X-0.250000X-0.225000X0*%
G04 #@! TD*
G04 #@! TA.AperFunction,SMDPad,CuDef*
%ADD14RoundRect,0.200000X0.275000X-0.200000X0.275000X0.200000X-0.275000X0.200000X-0.275000X-0.200000X0*%
G04 #@! TD*
G04 #@! TA.AperFunction,ViaPad*
%ADD15C,1.209040*%
G04 #@! TD*
G04 #@! TA.AperFunction,Conductor*
%ADD16C,0.250000*%
G04 #@! TD*
G04 APERTURE END LIST*
D10*
X131500000Y-55250000D03*
D11*
X95000000Y-89000000D03*
X95000000Y-90575000D03*
D12*
X87239200Y-86902600D03*
X87889200Y-86902600D03*
X88539200Y-86902600D03*
X89189200Y-86902600D03*
X89189200Y-92627600D03*
X88539200Y-92627600D03*
X87889200Y-92627600D03*
X87239200Y-92627600D03*
D13*
X91059000Y-90562500D03*
X91059000Y-89012500D03*
D14*
X93000000Y-90612500D03*
X93000000Y-88962500D03*
D15*
X85892640Y-88670620D03*
X85892640Y-90669600D03*
X80794580Y-88670620D03*
D16*
X87889200Y-91398300D02*
X88500000Y-90787500D01*
X88539200Y-92627600D02*
X88539200Y-90826700D01*
X88539200Y-90826700D02*
X88500000Y-90787500D01*
X87889200Y-92627600D02*
X87889200Y-91398300D01*
X91059000Y-90562500D02*
X92950000Y-90562500D01*
X92950000Y-90562500D02*
X93000000Y-90612500D01*
X91059000Y-90562500D02*
X88725000Y-90562500D01*
X88500000Y-90787500D02*
X88725000Y-90562500D01*
X93787500Y-87787500D02*
X95000000Y-89000000D01*
X92284000Y-87787500D02*
X93787500Y-87787500D01*
X91059000Y-89012500D02*
X92284000Y-87787500D01*
X87889200Y-86902600D02*
X87889200Y-88176700D01*
X87889200Y-88176700D02*
X88725000Y-89012500D01*
X88725000Y-89012500D02*
X91059000Y-89012500D01*
X93387500Y-88962500D02*
X95000000Y-90575000D01*
X93000000Y-88962500D02*
X93387500Y-88962500D01*
X85892640Y-88670620D02*
X85037720Y-88670620D01*
X87250000Y-86750000D02*
X87250000Y-87313260D01*
X87239200Y-92627600D02*
X87239200Y-92016160D01*
X85037720Y-88670620D02*
X81394300Y-88670620D01*
X87239200Y-92016160D02*
X85892640Y-90669600D01*
X87250000Y-87313260D02*
X85892640Y-88670620D01*
G04 #@! TA.AperFunction,NonConductor*
G36*
X134000000Y-50879385D02*
G01*
X134009238Y-50876383D01*
X134009920Y-50876605D01*
X134009950Y-50876152D01*
X134248904Y-50891814D01*
X134261729Y-50893502D01*
X134500021Y-50940901D01*
X134512521Y-50944251D01*
X134685398Y-51002935D01*
X134742575Y-51022344D01*
X134754537Y-51027298D01*
X134972436Y-51134754D01*
X134983641Y-51141223D01*
X135185654Y-51276204D01*
X135195911Y-51284074D01*
X135378576Y-51444268D01*
X135387731Y-51453423D01*
X135547926Y-51636089D01*
X135555796Y-51646346D01*
X135642421Y-51775989D01*
X135690774Y-51848354D01*
X135697249Y-51859569D01*
X135804701Y-52077462D01*
X135809656Y-52089425D01*
X135887748Y-52319475D01*
X135891099Y-52331979D01*
X135935725Y-52556326D01*
X135938497Y-52570264D01*
X135940186Y-52583096D01*
X135955848Y-52822050D01*
X135952615Y-52832000D01*
X135956500Y-52843957D01*
X135956500Y-102956043D01*
X135952615Y-102968000D01*
X135955617Y-102977238D01*
X135955395Y-102977920D01*
X135955848Y-102977950D01*
X135951487Y-103044495D01*
X135940187Y-103216897D01*
X135938498Y-103229729D01*
X135891100Y-103468016D01*
X135887749Y-103480521D01*
X135873858Y-103521444D01*
X135809656Y-103710575D01*
X135804701Y-103722538D01*
X135697249Y-103940431D01*
X135690777Y-103951641D01*
X135555796Y-104153654D01*
X135547926Y-104163911D01*
X135447453Y-104278478D01*
X135387732Y-104346576D01*
X135378577Y-104355731D01*
X135195911Y-104515926D01*
X135185654Y-104523796D01*
X134983641Y-104658777D01*
X134972436Y-104665246D01*
X134955184Y-104673754D01*
X134754538Y-104772701D01*
X134742576Y-104777656D01*
X134512521Y-104855749D01*
X134500021Y-104859099D01*
X134393968Y-104880194D01*
X134374618Y-104882096D01*
X85640053Y-104863940D01*
X52269853Y-104851508D01*
X52238068Y-104846254D01*
X52050221Y-104782489D01*
X52038258Y-104777533D01*
X52034278Y-104775570D01*
X51827816Y-104673754D01*
X51816611Y-104667285D01*
X51621501Y-104536917D01*
X51611239Y-104529042D01*
X51434826Y-104374331D01*
X51425669Y-104365174D01*
X51270958Y-104188761D01*
X51263083Y-104178499D01*
X51132715Y-103983389D01*
X51126246Y-103972184D01*
X51022467Y-103761742D01*
X51017511Y-103749778D01*
X50942088Y-103527590D01*
X50938736Y-103515081D01*
X50938647Y-103514632D01*
X50892959Y-103284941D01*
X50891270Y-103272109D01*
X50889407Y-103243674D01*
X50876152Y-103041450D01*
X50879385Y-103031500D01*
X50875500Y-103019543D01*
X50875500Y-95566387D01*
X50894407Y-95508196D01*
X50943907Y-95472232D01*
X50974493Y-95467387D01*
X75033567Y-95465634D01*
X81737201Y-95465145D01*
X82042000Y-95454700D01*
X82044629Y-95454324D01*
X82044634Y-95454324D01*
X82395313Y-95404227D01*
X82395319Y-95404226D01*
X82397600Y-95403900D01*
X82715100Y-95327700D01*
X82716294Y-95327349D01*
X82716305Y-95327346D01*
X82929398Y-95264692D01*
X82929413Y-95264687D01*
X82930998Y-95264221D01*
X82932572Y-95263641D01*
X83171327Y-95175659D01*
X83171345Y-95175652D01*
X83172300Y-95175300D01*
X83324700Y-95111800D01*
X83489802Y-95035600D01*
X83642200Y-94959400D01*
X83896200Y-94807000D01*
X84009816Y-94718632D01*
X84011196Y-94717578D01*
X84111512Y-94642341D01*
X84112683Y-94641476D01*
X84251800Y-94540300D01*
X84303360Y-94495185D01*
X84353251Y-94451531D01*
X84353333Y-94451458D01*
X84353400Y-94451400D01*
X84467700Y-94349800D01*
X84556600Y-94260900D01*
X84657840Y-94147005D01*
X84658580Y-94146182D01*
X84784155Y-94008050D01*
X84784162Y-94008042D01*
X84785200Y-94006900D01*
X84886800Y-93879900D01*
X84988400Y-93740200D01*
X85077300Y-93587800D01*
X85090176Y-93565268D01*
X85178217Y-93411195D01*
X85178900Y-93410000D01*
X85280500Y-93206800D01*
X85369400Y-93016300D01*
X85432194Y-92827919D01*
X85433713Y-92823687D01*
X85495449Y-92663172D01*
X85496400Y-92660700D01*
X85547200Y-92470200D01*
X85547370Y-92469478D01*
X85597393Y-92256882D01*
X85597395Y-92256873D01*
X85598000Y-92254300D01*
X85623400Y-92051100D01*
X85672945Y-91555655D01*
X85697548Y-91499636D01*
X85750381Y-91468776D01*
X85784546Y-91467377D01*
X85875674Y-91479536D01*
X85881180Y-91479035D01*
X85881182Y-91479035D01*
X85965605Y-91471352D01*
X86055536Y-91463168D01*
X86060798Y-91461458D01*
X86060804Y-91461457D01*
X86126408Y-91440141D01*
X86187593Y-91440140D01*
X86227005Y-91464291D01*
X86809704Y-92046991D01*
X86837481Y-92101508D01*
X86838700Y-92116995D01*
X86838700Y-93309746D01*
X86841818Y-93335946D01*
X86887261Y-93438253D01*
X86966487Y-93517341D01*
X86974845Y-93521036D01*
X87062064Y-93559596D01*
X87062066Y-93559596D01*
X87068873Y-93562606D01*
X87076267Y-93563468D01*
X87091578Y-93565253D01*
X87094554Y-93565600D01*
X87383846Y-93565600D01*
X87401761Y-93563468D01*
X87402669Y-93563360D01*
X87402670Y-93563360D01*
X87410046Y-93562482D01*
X87512353Y-93517039D01*
X87512892Y-93516499D01*
X87566798Y-93500532D01*
X87615433Y-93516289D01*
X87616487Y-93517341D01*
X87624844Y-93521036D01*
X87624846Y-93521037D01*
X87712064Y-93559596D01*
X87712066Y-93559596D01*
X87718873Y-93562606D01*
X87726267Y-93563468D01*
X87741578Y-93565253D01*
X87744554Y-93565600D01*
X88033846Y-93565600D01*
X88051761Y-93563468D01*
X88052669Y-93563360D01*
X88052670Y-93563360D01*
X88060046Y-93562482D01*
X88162353Y-93517039D01*
X88162892Y-93516499D01*
X88216798Y-93500532D01*
X88265433Y-93516289D01*
X88266487Y-93517341D01*
X88274844Y-93521036D01*
X88274846Y-93521037D01*
X88362064Y-93559596D01*
X88362066Y-93559596D01*
X88368873Y-93562606D01*
X88376267Y-93563468D01*
X88391578Y-93565253D01*
X88394554Y-93565600D01*
X88683846Y-93565600D01*
X88701761Y-93563468D01*
X88702669Y-93563360D01*
X88702670Y-93563360D01*
X88710046Y-93562482D01*
X88812353Y-93517039D01*
X88812892Y-93516499D01*
X88866798Y-93500532D01*
X88915433Y-93516289D01*
X88916487Y-93517341D01*
X88924844Y-93521036D01*
X88924846Y-93521037D01*
X89012064Y-93559596D01*
X89012066Y-93559596D01*
X89018873Y-93562606D01*
X89026267Y-93563468D01*
X89041578Y-93565253D01*
X89044554Y-93565600D01*
X89333846Y-93565600D01*
X89351761Y-93563468D01*
X89352669Y-93563360D01*
X89352670Y-93563360D01*
X89360046Y-93562482D01*
X89462353Y-93517039D01*
X89541441Y-93437813D01*
X89586706Y-93335427D01*
X89589700Y-93309746D01*
X89589700Y-91945454D01*
X89586582Y-91919254D01*
X89541139Y-91816947D01*
X89461913Y-91737859D01*
X89382834Y-91702898D01*
X89366336Y-91695604D01*
X89366334Y-91695604D01*
X89359527Y-91692594D01*
X89345522Y-91690961D01*
X89336694Y-91689932D01*
X89336693Y-91689932D01*
X89333846Y-91689600D01*
X89044554Y-91689600D01*
X89028151Y-91691552D01*
X89025731Y-91691840D01*
X89025730Y-91691840D01*
X89018354Y-91692718D01*
X89011568Y-91695732D01*
X89011565Y-91695733D01*
X89006808Y-91697846D01*
X89003889Y-91699143D01*
X88943035Y-91705487D01*
X88890073Y-91674850D01*
X88865234Y-91618933D01*
X88864700Y-91608668D01*
X88864700Y-90987000D01*
X88883607Y-90928809D01*
X88933107Y-90892845D01*
X88963700Y-90888000D01*
X90321990Y-90888000D01*
X90380181Y-90906907D01*
X90410199Y-90942054D01*
X90460472Y-91040720D01*
X90555780Y-91136028D01*
X90562717Y-91139563D01*
X90562719Y-91139564D01*
X90593075Y-91155031D01*
X90675874Y-91197219D01*
X90683568Y-91198438D01*
X90683569Y-91198438D01*
X90771666Y-91212391D01*
X90771668Y-91212391D01*
X90775512Y-91213000D01*
X91342488Y-91213000D01*
X91346332Y-91212391D01*
X91346334Y-91212391D01*
X91434431Y-91198438D01*
X91434432Y-91198438D01*
X91442126Y-91197219D01*
X91524925Y-91155031D01*
X91555281Y-91139564D01*
X91555283Y-91139563D01*
X91562220Y-91136028D01*
X91657528Y-91040720D01*
X91707801Y-90942054D01*
X91751065Y-90898790D01*
X91796010Y-90888000D01*
X92253310Y-90888000D01*
X92311501Y-90906907D01*
X92341520Y-90942055D01*
X92391793Y-91040720D01*
X92396950Y-91050842D01*
X92486658Y-91140550D01*
X92493595Y-91144085D01*
X92493597Y-91144086D01*
X92590937Y-91193683D01*
X92599696Y-91198146D01*
X92607390Y-91199365D01*
X92607391Y-91199365D01*
X92689635Y-91212391D01*
X92689637Y-91212391D01*
X92693481Y-91213000D01*
X92999960Y-91213000D01*
X93306518Y-91212999D01*
X93310361Y-91212390D01*
X93310366Y-91212390D01*
X93347217Y-91206553D01*
X93400304Y-91198146D01*
X93484922Y-91155031D01*
X93506403Y-91144086D01*
X93506405Y-91144085D01*
X93513342Y-91140550D01*
X93603050Y-91050842D01*
X93608208Y-91040720D01*
X93657110Y-90944744D01*
X93657110Y-90944743D01*
X93660646Y-90937804D01*
X93663906Y-90917225D01*
X93674891Y-90847865D01*
X93674891Y-90847863D01*
X93675500Y-90844019D01*
X93675499Y-90380982D01*
X93660646Y-90287196D01*
X93609798Y-90187401D01*
X93606586Y-90181097D01*
X93606585Y-90181095D01*
X93603050Y-90174158D01*
X93513342Y-90084450D01*
X93506405Y-90080915D01*
X93506403Y-90080914D01*
X93407244Y-90030390D01*
X93407243Y-90030390D01*
X93400304Y-90026854D01*
X93392610Y-90025635D01*
X93392609Y-90025635D01*
X93310365Y-90012609D01*
X93310363Y-90012609D01*
X93306519Y-90012000D01*
X93000040Y-90012000D01*
X92693482Y-90012001D01*
X92689639Y-90012610D01*
X92689634Y-90012610D01*
X92653405Y-90018348D01*
X92599696Y-90026854D01*
X92569629Y-90042174D01*
X92493597Y-90080914D01*
X92493595Y-90080915D01*
X92486658Y-90084450D01*
X92396950Y-90174158D01*
X92393412Y-90181102D01*
X92393411Y-90181103D01*
X92392471Y-90182947D01*
X92391008Y-90184410D01*
X92388835Y-90187401D01*
X92388361Y-90187057D01*
X92349206Y-90226211D01*
X92304263Y-90237000D01*
X91796010Y-90237000D01*
X91737819Y-90218093D01*
X91707800Y-90182945D01*
X91706862Y-90181103D01*
X91657528Y-90084280D01*
X91562220Y-89988972D01*
X91555283Y-89985437D01*
X91555281Y-89985436D01*
X91449066Y-89931317D01*
X91449065Y-89931317D01*
X91442126Y-89927781D01*
X91434432Y-89926562D01*
X91434431Y-89926562D01*
X91346334Y-89912609D01*
X91346332Y-89912609D01*
X91342488Y-89912000D01*
X90775512Y-89912000D01*
X90771668Y-89912609D01*
X90771666Y-89912609D01*
X90683569Y-89926562D01*
X90683568Y-89926562D01*
X90675874Y-89927781D01*
X90668935Y-89931317D01*
X90668934Y-89931317D01*
X90562719Y-89985436D01*
X90562717Y-89985437D01*
X90555780Y-89988972D01*
X90460472Y-90084280D01*
X90411139Y-90181103D01*
X90410200Y-90182945D01*
X90366935Y-90226210D01*
X90321990Y-90237000D01*
X88743534Y-90237000D01*
X88734905Y-90236623D01*
X88704822Y-90233991D01*
X88696193Y-90233236D01*
X88687826Y-90235478D01*
X88658651Y-90243296D01*
X88650216Y-90245166D01*
X88620483Y-90250408D01*
X88620481Y-90250409D01*
X88611955Y-90251912D01*
X88604456Y-90256242D01*
X88598971Y-90258238D01*
X88593684Y-90260704D01*
X88585316Y-90262946D01*
X88560594Y-90280257D01*
X88553489Y-90285232D01*
X88546208Y-90289871D01*
X88512545Y-90309306D01*
X88503940Y-90319561D01*
X88487569Y-90339071D01*
X88481735Y-90345439D01*
X88310422Y-90516752D01*
X88310420Y-90516753D01*
X88229253Y-90597920D01*
X88229252Y-90597922D01*
X87672143Y-91155031D01*
X87665776Y-91160865D01*
X87636006Y-91185845D01*
X87616573Y-91219505D01*
X87611932Y-91226789D01*
X87589646Y-91258616D01*
X87587404Y-91266984D01*
X87584938Y-91272271D01*
X87582942Y-91277756D01*
X87578612Y-91285255D01*
X87577109Y-91293781D01*
X87577108Y-91293783D01*
X87571866Y-91323516D01*
X87569996Y-91331950D01*
X87559936Y-91369493D01*
X87560691Y-91378122D01*
X87563323Y-91408205D01*
X87563700Y-91416834D01*
X87563700Y-91608743D01*
X87544793Y-91666934D01*
X87495293Y-91702898D01*
X87434107Y-91702898D01*
X87424668Y-91699288D01*
X87416336Y-91695604D01*
X87416334Y-91695604D01*
X87409527Y-91692594D01*
X87402133Y-91691732D01*
X87394951Y-91689774D01*
X87395634Y-91687267D01*
X87347188Y-91663821D01*
X87044493Y-91361126D01*
X86688765Y-91005399D01*
X86660988Y-90950882D01*
X86666222Y-90900238D01*
X86675336Y-90876246D01*
X86675337Y-90876243D01*
X86677303Y-90871067D01*
X86702438Y-90692220D01*
X86702754Y-90669600D01*
X86682622Y-90490120D01*
X86623227Y-90319561D01*
X86551250Y-90204374D01*
X86530453Y-90171091D01*
X86530452Y-90171090D01*
X86527521Y-90166399D01*
X86451610Y-90089956D01*
X86404161Y-90042174D01*
X86404159Y-90042173D01*
X86400261Y-90038247D01*
X86247771Y-89941474D01*
X86235207Y-89937000D01*
X86164998Y-89912000D01*
X86077630Y-89880890D01*
X86056614Y-89878384D01*
X85903792Y-89860161D01*
X85903789Y-89860161D01*
X85898296Y-89859506D01*
X85824063Y-89867308D01*
X85783548Y-89871566D01*
X85723700Y-89858844D01*
X85682759Y-89813375D01*
X85674200Y-89773108D01*
X85674200Y-89566760D01*
X85693107Y-89508569D01*
X85742607Y-89472605D01*
X85786293Y-89468630D01*
X85875674Y-89480556D01*
X85881180Y-89480055D01*
X85881182Y-89480055D01*
X85965605Y-89472372D01*
X86055536Y-89464188D01*
X86064388Y-89461312D01*
X86222045Y-89410086D01*
X86222044Y-89410086D01*
X86227302Y-89408378D01*
X86382434Y-89315900D01*
X86386443Y-89312082D01*
X86386446Y-89312080D01*
X86503966Y-89200166D01*
X86513223Y-89191351D01*
X86613169Y-89040921D01*
X86677303Y-88872087D01*
X86702438Y-88693240D01*
X86702754Y-88670620D01*
X86682622Y-88491140D01*
X86666373Y-88444478D01*
X86664257Y-88438401D01*
X86662976Y-88377229D01*
X86687746Y-88335840D01*
X87153990Y-87869596D01*
X87208507Y-87841819D01*
X87223994Y-87840600D01*
X87383846Y-87840600D01*
X87401761Y-87838468D01*
X87402669Y-87838360D01*
X87402670Y-87838360D01*
X87410046Y-87837482D01*
X87416832Y-87834468D01*
X87416835Y-87834467D01*
X87421592Y-87832354D01*
X87424511Y-87831057D01*
X87485365Y-87824713D01*
X87538327Y-87855350D01*
X87563166Y-87911267D01*
X87563700Y-87921532D01*
X87563700Y-88158166D01*
X87563323Y-88166795D01*
X87559936Y-88205507D01*
X87562178Y-88213874D01*
X87569996Y-88243049D01*
X87571866Y-88251483D01*
X87578612Y-88289745D01*
X87582942Y-88297244D01*
X87584938Y-88302729D01*
X87587404Y-88308016D01*
X87589646Y-88316384D01*
X87601284Y-88333004D01*
X87611932Y-88348211D01*
X87616571Y-88355492D01*
X87636006Y-88389155D01*
X87665771Y-88414131D01*
X87672139Y-88419965D01*
X88481731Y-89229557D01*
X88487565Y-89235924D01*
X88512545Y-89265694D01*
X88537515Y-89280110D01*
X88546205Y-89285127D01*
X88553489Y-89289768D01*
X88585316Y-89312054D01*
X88593684Y-89314296D01*
X88598971Y-89316762D01*
X88604456Y-89318758D01*
X88611955Y-89323088D01*
X88620481Y-89324591D01*
X88620483Y-89324592D01*
X88650216Y-89329834D01*
X88658650Y-89331704D01*
X88696193Y-89341764D01*
X88734908Y-89338377D01*
X88743537Y-89338000D01*
X90321990Y-89338000D01*
X90380181Y-89356907D01*
X90410199Y-89392054D01*
X90418517Y-89408378D01*
X90449217Y-89468630D01*
X90460472Y-89490720D01*
X90555780Y-89586028D01*
X90562717Y-89589563D01*
X90562719Y-89589564D01*
X90668934Y-89643683D01*
X90675874Y-89647219D01*
X90683568Y-89648438D01*
X90683569Y-89648438D01*
X90771666Y-89662391D01*
X90771668Y-89662391D01*
X90775512Y-89663000D01*
X91342488Y-89663000D01*
X91346332Y-89662391D01*
X91346334Y-89662391D01*
X91434431Y-89648438D01*
X91434432Y-89648438D01*
X91442126Y-89647219D01*
X91449066Y-89643683D01*
X91555281Y-89589564D01*
X91555283Y-89589563D01*
X91562220Y-89586028D01*
X91657528Y-89490720D01*
X91668784Y-89468630D01*
X91715183Y-89377566D01*
X91715183Y-89377565D01*
X91718719Y-89370626D01*
X91720900Y-89356860D01*
X91733891Y-89274834D01*
X91733891Y-89274832D01*
X91734500Y-89270988D01*
X91734500Y-88838334D01*
X91753407Y-88780143D01*
X91763496Y-88768330D01*
X92389830Y-88141996D01*
X92444347Y-88114219D01*
X92459834Y-88113000D01*
X93611666Y-88113000D01*
X93669857Y-88131907D01*
X93681670Y-88141996D01*
X94295504Y-88755830D01*
X94323281Y-88810347D01*
X94324500Y-88825834D01*
X94324500Y-89200166D01*
X94305593Y-89258357D01*
X94256093Y-89294321D01*
X94194907Y-89294321D01*
X94155496Y-89270170D01*
X93704495Y-88819169D01*
X93676718Y-88764652D01*
X93675499Y-88749165D01*
X93675499Y-88730982D01*
X93660646Y-88637196D01*
X93611743Y-88541219D01*
X93606586Y-88531097D01*
X93606585Y-88531095D01*
X93603050Y-88524158D01*
X93513342Y-88434450D01*
X93506405Y-88430915D01*
X93506403Y-88430914D01*
X93407244Y-88380390D01*
X93407243Y-88380390D01*
X93400304Y-88376854D01*
X93392610Y-88375635D01*
X93392609Y-88375635D01*
X93310365Y-88362609D01*
X93310363Y-88362609D01*
X93306519Y-88362000D01*
X93000040Y-88362000D01*
X92693482Y-88362001D01*
X92689639Y-88362610D01*
X92689634Y-88362610D01*
X92652783Y-88368447D01*
X92599696Y-88376854D01*
X92543177Y-88405652D01*
X92493597Y-88430914D01*
X92493595Y-88430915D01*
X92486658Y-88434450D01*
X92396950Y-88524158D01*
X92393415Y-88531095D01*
X92393414Y-88531097D01*
X92388257Y-88541219D01*
X92339354Y-88637196D01*
X92338135Y-88644890D01*
X92338135Y-88644891D01*
X92329989Y-88696322D01*
X92324500Y-88730981D01*
X92324501Y-89194018D01*
X92325110Y-89197861D01*
X92325110Y-89197866D01*
X92330129Y-89229557D01*
X92339354Y-89287804D01*
X92361152Y-89330585D01*
X92392473Y-89392055D01*
X92396950Y-89400842D01*
X92486658Y-89490550D01*
X92493595Y-89494085D01*
X92493597Y-89494086D01*
X92522022Y-89508569D01*
X92599696Y-89548146D01*
X92607390Y-89549365D01*
X92607391Y-89549365D01*
X92689635Y-89562391D01*
X92689637Y-89562391D01*
X92693481Y-89563000D01*
X92999960Y-89563000D01*
X93306518Y-89562999D01*
X93310361Y-89562390D01*
X93310366Y-89562390D01*
X93357986Y-89554848D01*
X93400304Y-89548146D01*
X93407247Y-89544608D01*
X93407251Y-89544607D01*
X93410756Y-89542821D01*
X93414639Y-89542206D01*
X93414658Y-89542200D01*
X93414659Y-89542203D01*
X93471189Y-89533251D01*
X93525702Y-89561028D01*
X93916003Y-89951330D01*
X94295504Y-90330831D01*
X94323281Y-90385348D01*
X94324500Y-90400835D01*
X94324500Y-90826746D01*
X94325109Y-90830590D01*
X94325109Y-90830592D01*
X94334202Y-90888000D01*
X94340049Y-90924920D01*
X94343585Y-90931859D01*
X94343585Y-90931860D01*
X94395517Y-91033781D01*
X94400342Y-91043251D01*
X94494249Y-91137158D01*
X94501186Y-91140693D01*
X94501188Y-91140694D01*
X94605185Y-91193683D01*
X94612580Y-91197451D01*
X94620273Y-91198670D01*
X94620275Y-91198670D01*
X94706908Y-91212391D01*
X94706910Y-91212391D01*
X94710754Y-91213000D01*
X95289246Y-91213000D01*
X95293090Y-91212391D01*
X95293092Y-91212391D01*
X95379725Y-91198670D01*
X95379727Y-91198670D01*
X95387420Y-91197451D01*
X95394815Y-91193683D01*
X95498812Y-91140694D01*
X95498814Y-91140693D01*
X95505751Y-91137158D01*
X95599658Y-91043251D01*
X95604484Y-91033781D01*
X95656415Y-90931860D01*
X95656415Y-90931859D01*
X95659951Y-90924920D01*
X95665799Y-90888000D01*
X95674891Y-90830592D01*
X95674891Y-90830590D01*
X95675500Y-90826746D01*
X95675500Y-90323254D01*
X95666735Y-90267915D01*
X95661170Y-90232775D01*
X95661170Y-90232773D01*
X95659951Y-90225080D01*
X95649401Y-90204374D01*
X95603194Y-90113688D01*
X95603193Y-90113686D01*
X95599658Y-90106749D01*
X95505751Y-90012842D01*
X95498814Y-90009307D01*
X95498812Y-90009306D01*
X95394360Y-89956085D01*
X95394359Y-89956085D01*
X95387420Y-89952549D01*
X95379727Y-89951330D01*
X95379725Y-89951330D01*
X95293092Y-89937609D01*
X95293090Y-89937609D01*
X95289246Y-89937000D01*
X94863335Y-89937000D01*
X94805144Y-89918093D01*
X94793331Y-89908004D01*
X94692331Y-89807004D01*
X94664554Y-89752487D01*
X94674125Y-89692055D01*
X94717390Y-89648790D01*
X94762335Y-89638000D01*
X95289246Y-89638000D01*
X95293090Y-89637391D01*
X95293092Y-89637391D01*
X95379725Y-89623670D01*
X95379727Y-89623670D01*
X95387420Y-89622451D01*
X95394360Y-89618915D01*
X95498812Y-89565694D01*
X95498814Y-89565693D01*
X95505751Y-89562158D01*
X95599658Y-89468251D01*
X95631200Y-89406348D01*
X95656415Y-89356860D01*
X95656415Y-89356859D01*
X95659951Y-89349920D01*
X95661363Y-89341009D01*
X95674891Y-89255592D01*
X95674891Y-89255590D01*
X95675500Y-89251746D01*
X95675500Y-88748254D01*
X95673381Y-88734874D01*
X95661170Y-88657775D01*
X95661170Y-88657773D01*
X95659951Y-88650080D01*
X95649850Y-88630256D01*
X95603194Y-88538688D01*
X95603193Y-88538686D01*
X95599658Y-88531749D01*
X95505751Y-88437842D01*
X95498814Y-88434307D01*
X95498812Y-88434306D01*
X95394360Y-88381085D01*
X95394359Y-88381085D01*
X95387420Y-88377549D01*
X95379727Y-88376330D01*
X95379725Y-88376330D01*
X95293092Y-88362609D01*
X95293090Y-88362609D01*
X95289246Y-88362000D01*
X94863334Y-88362000D01*
X94805143Y-88343093D01*
X94793330Y-88333004D01*
X94030769Y-87570443D01*
X94024934Y-87564075D01*
X94005522Y-87540941D01*
X93999955Y-87534306D01*
X93966292Y-87514871D01*
X93959011Y-87510232D01*
X93956556Y-87508513D01*
X93927184Y-87487946D01*
X93918816Y-87485704D01*
X93913529Y-87483238D01*
X93908044Y-87481242D01*
X93900545Y-87476912D01*
X93892019Y-87475409D01*
X93892017Y-87475408D01*
X93862284Y-87470166D01*
X93853849Y-87468296D01*
X93824674Y-87460478D01*
X93816307Y-87458236D01*
X93807678Y-87458991D01*
X93777595Y-87461623D01*
X93768966Y-87462000D01*
X92302534Y-87462000D01*
X92293905Y-87461623D01*
X92263822Y-87458991D01*
X92255193Y-87458236D01*
X92246826Y-87460478D01*
X92217651Y-87468296D01*
X92209216Y-87470166D01*
X92179483Y-87475408D01*
X92179481Y-87475409D01*
X92170955Y-87476912D01*
X92163456Y-87481242D01*
X92157971Y-87483238D01*
X92152684Y-87485704D01*
X92144316Y-87487946D01*
X92114944Y-87508513D01*
X92112489Y-87510232D01*
X92105208Y-87514871D01*
X92071545Y-87534306D01*
X92065978Y-87540941D01*
X92046569Y-87564071D01*
X92040735Y-87570439D01*
X91278170Y-88333004D01*
X91223653Y-88360781D01*
X91208166Y-88362000D01*
X90775512Y-88362000D01*
X90771668Y-88362609D01*
X90771666Y-88362609D01*
X90683569Y-88376562D01*
X90683568Y-88376562D01*
X90675874Y-88377781D01*
X90668935Y-88381317D01*
X90668934Y-88381317D01*
X90562719Y-88435436D01*
X90562717Y-88435437D01*
X90555780Y-88438972D01*
X90460472Y-88534280D01*
X90411570Y-88630257D01*
X90410200Y-88632945D01*
X90366935Y-88676210D01*
X90321990Y-88687000D01*
X88900834Y-88687000D01*
X88842643Y-88668093D01*
X88830830Y-88658004D01*
X88243696Y-88070870D01*
X88215919Y-88016353D01*
X88214700Y-88000866D01*
X88214700Y-87921457D01*
X88233607Y-87863266D01*
X88283107Y-87827302D01*
X88344293Y-87827302D01*
X88353732Y-87830912D01*
X88362064Y-87834596D01*
X88362066Y-87834596D01*
X88368873Y-87837606D01*
X88376267Y-87838468D01*
X88391578Y-87840253D01*
X88394554Y-87840600D01*
X88683846Y-87840600D01*
X88701761Y-87838468D01*
X88702669Y-87838360D01*
X88702670Y-87838360D01*
X88710046Y-87837482D01*
X88812353Y-87792039D01*
X88812892Y-87791499D01*
X88866798Y-87775532D01*
X88915433Y-87791289D01*
X88916487Y-87792341D01*
X88924844Y-87796036D01*
X88924846Y-87796037D01*
X89012064Y-87834596D01*
X89012066Y-87834596D01*
X89018873Y-87837606D01*
X89026267Y-87838468D01*
X89041578Y-87840253D01*
X89044554Y-87840600D01*
X89333846Y-87840600D01*
X89351761Y-87838468D01*
X89352669Y-87838360D01*
X89352670Y-87838360D01*
X89360046Y-87837482D01*
X89462353Y-87792039D01*
X89541441Y-87712813D01*
X89586706Y-87610427D01*
X89589700Y-87584746D01*
X89589700Y-86220454D01*
X89586582Y-86194254D01*
X89541139Y-86091947D01*
X89461913Y-86012859D01*
X89432791Y-85999984D01*
X89366336Y-85970604D01*
X89366334Y-85970604D01*
X89359527Y-85967594D01*
X89345522Y-85965961D01*
X89336694Y-85964932D01*
X89336693Y-85964932D01*
X89333846Y-85964600D01*
X89044554Y-85964600D01*
X89028151Y-85966552D01*
X89025731Y-85966840D01*
X89025730Y-85966840D01*
X89018354Y-85967718D01*
X88916047Y-86013161D01*
X88915508Y-86013701D01*
X88861602Y-86029668D01*
X88812967Y-86013911D01*
X88811913Y-86012859D01*
X88803556Y-86009164D01*
X88803554Y-86009163D01*
X88716336Y-85970604D01*
X88716334Y-85970604D01*
X88709527Y-85967594D01*
X88695522Y-85965961D01*
X88686694Y-85964932D01*
X88686693Y-85964932D01*
X88683846Y-85964600D01*
X88394554Y-85964600D01*
X88378151Y-85966552D01*
X88375731Y-85966840D01*
X88375730Y-85966840D01*
X88368354Y-85967718D01*
X88266047Y-86013161D01*
X88265508Y-86013701D01*
X88211602Y-86029668D01*
X88162967Y-86013911D01*
X88161913Y-86012859D01*
X88153556Y-86009164D01*
X88153554Y-86009163D01*
X88066336Y-85970604D01*
X88066334Y-85970604D01*
X88059527Y-85967594D01*
X88045522Y-85965961D01*
X88036694Y-85964932D01*
X88036693Y-85964932D01*
X88033846Y-85964600D01*
X87744554Y-85964600D01*
X87728151Y-85966552D01*
X87725731Y-85966840D01*
X87725730Y-85966840D01*
X87718354Y-85967718D01*
X87616047Y-86013161D01*
X87615508Y-86013701D01*
X87561602Y-86029668D01*
X87512967Y-86013911D01*
X87511913Y-86012859D01*
X87503556Y-86009164D01*
X87503554Y-86009163D01*
X87416336Y-85970604D01*
X87416334Y-85970604D01*
X87409527Y-85967594D01*
X87395522Y-85965961D01*
X87386694Y-85964932D01*
X87386693Y-85964932D01*
X87383846Y-85964600D01*
X87094554Y-85964600D01*
X87078151Y-85966552D01*
X87075731Y-85966840D01*
X87075730Y-85966840D01*
X87068354Y-85967718D01*
X86966047Y-86013161D01*
X86886959Y-86092387D01*
X86841694Y-86194773D01*
X86838700Y-86220454D01*
X86838700Y-87223226D01*
X86819793Y-87281417D01*
X86809704Y-87293230D01*
X86227626Y-87875308D01*
X86173109Y-87903085D01*
X86124413Y-87898568D01*
X86082842Y-87883766D01*
X86082843Y-87883766D01*
X86077630Y-87881910D01*
X86072143Y-87881256D01*
X86072140Y-87881255D01*
X85903792Y-87861181D01*
X85903789Y-87861181D01*
X85898296Y-87860526D01*
X85824063Y-87868328D01*
X85783548Y-87872586D01*
X85723700Y-87859864D01*
X85682759Y-87814395D01*
X85674200Y-87774128D01*
X85674200Y-64149200D01*
X85661500Y-63895200D01*
X85636100Y-63590400D01*
X85610700Y-63438000D01*
X85585300Y-63311000D01*
X85560999Y-63225945D01*
X85559113Y-63218164D01*
X85553137Y-63188284D01*
X85534500Y-63095100D01*
X85472281Y-62920888D01*
X85470003Y-62913645D01*
X85433643Y-62780323D01*
X85433641Y-62780317D01*
X85432900Y-62777600D01*
X85382100Y-62650600D01*
X85305900Y-62472800D01*
X85242400Y-62345800D01*
X85167387Y-62220778D01*
X85165112Y-62216779D01*
X85078881Y-62056635D01*
X85078877Y-62056628D01*
X85077300Y-62053700D01*
X84976884Y-61915628D01*
X84974576Y-61912314D01*
X84900509Y-61801214D01*
X84899500Y-61799700D01*
X84810600Y-61685400D01*
X84795235Y-61667840D01*
X84723140Y-61585445D01*
X84720339Y-61582098D01*
X84678113Y-61529316D01*
X84620100Y-61456800D01*
X84404200Y-61240900D01*
X84201000Y-61063100D01*
X84199499Y-61061974D01*
X84050638Y-60950328D01*
X84050632Y-60950324D01*
X84048600Y-60948800D01*
X83922375Y-60873065D01*
X83920840Y-60872125D01*
X83821224Y-60809865D01*
X83818779Y-60808286D01*
X83707372Y-60734015D01*
X83705700Y-60732900D01*
X83703957Y-60731932D01*
X83703951Y-60731928D01*
X83656116Y-60705354D01*
X83591400Y-60669400D01*
X83527823Y-60637611D01*
X83465223Y-60606311D01*
X83465202Y-60606301D01*
X83464400Y-60605900D01*
X83324700Y-60542400D01*
X83324471Y-60542298D01*
X83324415Y-60542273D01*
X83211742Y-60492196D01*
X83211729Y-60492191D01*
X83210400Y-60491600D01*
X83209044Y-60491091D01*
X83209033Y-60491087D01*
X83171497Y-60477011D01*
X83108800Y-60453500D01*
X83074114Y-60440887D01*
X82970429Y-60403183D01*
X82970421Y-60403180D01*
X82969100Y-60402700D01*
X82842100Y-60364600D01*
X82841570Y-60364455D01*
X82841544Y-60364448D01*
X82772206Y-60345538D01*
X82702400Y-60326500D01*
X82701904Y-60326376D01*
X82552473Y-60289018D01*
X82552468Y-60289017D01*
X82550000Y-60288400D01*
X82373334Y-60263162D01*
X82371060Y-60262810D01*
X82067400Y-60212200D01*
X82065796Y-60212040D01*
X82065784Y-60212038D01*
X81942845Y-60199744D01*
X81942835Y-60199744D01*
X81940400Y-60199500D01*
X50974500Y-60199500D01*
X50916309Y-60180593D01*
X50880345Y-60131093D01*
X50875500Y-60100500D01*
X50875500Y-55250000D01*
X129194564Y-55250000D01*
X129214287Y-55550920D01*
X129273120Y-55846691D01*
X129370055Y-56132252D01*
X129503434Y-56402718D01*
X129670975Y-56653461D01*
X129869811Y-56880189D01*
X130096539Y-57079025D01*
X130347282Y-57246566D01*
X130350188Y-57247999D01*
X130350193Y-57248002D01*
X130486633Y-57315286D01*
X130617748Y-57379945D01*
X130903309Y-57476880D01*
X131199080Y-57535713D01*
X131202302Y-57535924D01*
X131202308Y-57535925D01*
X131496765Y-57555224D01*
X131500000Y-57555436D01*
X131503235Y-57555224D01*
X131797692Y-57535925D01*
X131797698Y-57535924D01*
X131800920Y-57535713D01*
X132096691Y-57476880D01*
X132382252Y-57379945D01*
X132513367Y-57315286D01*
X132649807Y-57248002D01*
X132649812Y-57247999D01*
X132652718Y-57246566D01*
X132903461Y-57079025D01*
X133130189Y-56880189D01*
X133329025Y-56653461D01*
X133496566Y-56402718D01*
X133629945Y-56132252D01*
X133726880Y-55846691D01*
X133785713Y-55550920D01*
X133805436Y-55250000D01*
X133785713Y-54949080D01*
X133726880Y-54653309D01*
X133629945Y-54367748D01*
X133496566Y-54097282D01*
X133329025Y-53846539D01*
X133130189Y-53619811D01*
X132903461Y-53420975D01*
X132652718Y-53253434D01*
X132649812Y-53252001D01*
X132649807Y-53251998D01*
X132513367Y-53184714D01*
X132382252Y-53120055D01*
X132096691Y-53023120D01*
X131800920Y-52964287D01*
X131797698Y-52964076D01*
X131797692Y-52964075D01*
X131503235Y-52944776D01*
X131500000Y-52944564D01*
X131496765Y-52944776D01*
X131202308Y-52964075D01*
X131202302Y-52964076D01*
X131199080Y-52964287D01*
X130903309Y-53023120D01*
X130617748Y-53120055D01*
X130486633Y-53184714D01*
X130350193Y-53251998D01*
X130350188Y-53252001D01*
X130347282Y-53253434D01*
X130096539Y-53420975D01*
X129869811Y-53619811D01*
X129670975Y-53846539D01*
X129503434Y-54097282D01*
X129370055Y-54367748D01*
X129273120Y-54653309D01*
X129214287Y-54949080D01*
X129194564Y-55250000D01*
X50875500Y-55250000D01*
X50875500Y-52843957D01*
X50879385Y-52832000D01*
X50876383Y-52822762D01*
X50876605Y-52822080D01*
X50876152Y-52822050D01*
X50891813Y-52583103D01*
X50893503Y-52570264D01*
X50896276Y-52556326D01*
X50940901Y-52331979D01*
X50944252Y-52319475D01*
X51022344Y-52089425D01*
X51027299Y-52077462D01*
X51134751Y-51859569D01*
X51141226Y-51848354D01*
X51189579Y-51775989D01*
X51276204Y-51646346D01*
X51284074Y-51636089D01*
X51444269Y-51453423D01*
X51453424Y-51444268D01*
X51636089Y-51284074D01*
X51646346Y-51276204D01*
X51848359Y-51141223D01*
X51859564Y-51134754D01*
X52077463Y-51027298D01*
X52089425Y-51022344D01*
X52146602Y-51002935D01*
X52319479Y-50944251D01*
X52331979Y-50940901D01*
X52570271Y-50893502D01*
X52583096Y-50891814D01*
X52708186Y-50883615D01*
X52819005Y-50876352D01*
X52819008Y-50876351D01*
X52822050Y-50876152D01*
X52832000Y-50879385D01*
X52843957Y-50875500D01*
X133988043Y-50875500D01*
X134000000Y-50879385D01*
G37*
G04 #@! TD.AperFunction*
M02*
