%TF.GenerationSoftware,KiCad,Pcbnew,6.0.11+dfsg-1*%
%TF.CreationDate,2023-08-15T18:05:08+01:00*%
%TF.ProjectId,business card-andrew,62757369-6e65-4737-9320-636172642d61,rev?*%
%TF.SameCoordinates,Original*%
%TF.FileFunction,Drillmap*%
%TF.FilePolarity,Positive*%
%FSLAX45Y45*%
G04 Gerber Fmt 4.5, Leading zero omitted, Abs format (unit mm)*
G04 Created by KiCad (PCBNEW 6.0.11+dfsg-1) date 2023-08-15 18:05:08*
%MOMM*%
%LPD*%
G01*
G04 APERTURE LIST*
%ADD10C,0.150000*%
%ADD11C,0.200000*%
G04 APERTURE END LIST*
D10*
X13603200Y-10296800D02*
X13603200Y-5283200D01*
X13400000Y-10500000D02*
X5276850Y-10500000D01*
X5080000Y-10303150D02*
X5080000Y-5283200D01*
X5283200Y-5080000D02*
X13400000Y-5080000D01*
X13400000Y-10500000D02*
G75*
G03*
X13603200Y-10296800I0J203200D01*
G01*
X5283200Y-5080000D02*
G75*
G03*
X5080000Y-5283200I0J-203200D01*
G01*
X13603200Y-5283200D02*
G75*
G03*
X13400000Y-5080000I-203200J0D01*
G01*
X5080000Y-10303150D02*
G75*
G03*
X5276850Y-10500000I196850J0D01*
G01*
D11*
X5330119Y-10817976D02*
X5330119Y-10617976D01*
X5377738Y-10617976D01*
X5406310Y-10627500D01*
X5425357Y-10646548D01*
X5434881Y-10665595D01*
X5444405Y-10703690D01*
X5444405Y-10732262D01*
X5434881Y-10770357D01*
X5425357Y-10789405D01*
X5406310Y-10808452D01*
X5377738Y-10817976D01*
X5330119Y-10817976D01*
X5530119Y-10817976D02*
X5530119Y-10684643D01*
X5530119Y-10722738D02*
X5539643Y-10703690D01*
X5549167Y-10694167D01*
X5568214Y-10684643D01*
X5587262Y-10684643D01*
X5653928Y-10817976D02*
X5653928Y-10684643D01*
X5653928Y-10617976D02*
X5644405Y-10627500D01*
X5653928Y-10637024D01*
X5663452Y-10627500D01*
X5653928Y-10617976D01*
X5653928Y-10637024D01*
X5777738Y-10817976D02*
X5758690Y-10808452D01*
X5749167Y-10789405D01*
X5749167Y-10617976D01*
X5882500Y-10817976D02*
X5863452Y-10808452D01*
X5853928Y-10789405D01*
X5853928Y-10617976D01*
X6111071Y-10817976D02*
X6111071Y-10617976D01*
X6177738Y-10760833D01*
X6244405Y-10617976D01*
X6244405Y-10817976D01*
X6425357Y-10817976D02*
X6425357Y-10713214D01*
X6415833Y-10694167D01*
X6396786Y-10684643D01*
X6358690Y-10684643D01*
X6339643Y-10694167D01*
X6425357Y-10808452D02*
X6406309Y-10817976D01*
X6358690Y-10817976D01*
X6339643Y-10808452D01*
X6330119Y-10789405D01*
X6330119Y-10770357D01*
X6339643Y-10751310D01*
X6358690Y-10741786D01*
X6406309Y-10741786D01*
X6425357Y-10732262D01*
X6520595Y-10684643D02*
X6520595Y-10884643D01*
X6520595Y-10694167D02*
X6539643Y-10684643D01*
X6577738Y-10684643D01*
X6596786Y-10694167D01*
X6606309Y-10703690D01*
X6615833Y-10722738D01*
X6615833Y-10779881D01*
X6606309Y-10798929D01*
X6596786Y-10808452D01*
X6577738Y-10817976D01*
X6539643Y-10817976D01*
X6520595Y-10808452D01*
X6701548Y-10798929D02*
X6711071Y-10808452D01*
X6701548Y-10817976D01*
X6692024Y-10808452D01*
X6701548Y-10798929D01*
X6701548Y-10817976D01*
X6701548Y-10694167D02*
X6711071Y-10703690D01*
X6701548Y-10713214D01*
X6692024Y-10703690D01*
X6701548Y-10694167D01*
X6701548Y-10713214D01*
M02*
