%TF.GenerationSoftware,KiCad,Pcbnew,6.0.11+dfsg-1*%
%TF.CreationDate,2023-08-15T17:50:19+01:00*%
%TF.ProjectId,business card,62757369-6e65-4737-9320-636172642e6b,rev?*%
%TF.SameCoordinates,Original*%
%TF.FileFunction,Drillmap*%
%TF.FilePolarity,Positive*%
%FSLAX45Y45*%
G04 Gerber Fmt 4.5, Leading zero omitted, Abs format (unit mm)*
G04 Created by KiCad (PCBNEW 6.0.11+dfsg-1) date 2023-08-15 17:50:19*
%MOMM*%
%LPD*%
G01*
G04 APERTURE LIST*
%ADD10C,0.150000*%
%ADD11C,0.200000*%
%ADD12C,0.040000*%
%ADD13C,0.400000*%
G04 APERTURE END LIST*
D10*
X5283200Y-5080000D02*
X13400000Y-5080000D01*
X13603200Y-5283200D02*
G75*
G03*
X13400000Y-5080000I-203200J0D01*
G01*
X5283200Y-5080000D02*
G75*
G03*
X5080000Y-5283200I0J-203200D01*
G01*
X5080000Y-10303150D02*
X5080000Y-5283200D01*
X13400000Y-10500000D02*
X5276850Y-10500000D01*
X13603200Y-10296800D02*
X13603200Y-5283200D01*
X5080000Y-10303150D02*
G75*
G03*
X5276850Y-10500000I196850J0D01*
G01*
X13400000Y-10500000D02*
G75*
G03*
X13603200Y-10296800I0J203200D01*
G01*
D11*
D12*
X8059458Y-8847062D02*
X8099458Y-8887062D01*
X8099458Y-8847062D02*
X8059458Y-8887062D01*
X8569264Y-8847062D02*
X8609264Y-8887062D01*
X8609264Y-8847062D02*
X8569264Y-8887062D01*
X8569264Y-9046960D02*
X8609264Y-9086960D01*
X8609264Y-9046960D02*
X8569264Y-9086960D01*
D13*
X13350000Y-5525000D02*
G75*
G03*
X13350000Y-5525000I-200000J0D01*
G01*
D11*
X5330119Y-10817976D02*
X5330119Y-10617976D01*
X5377738Y-10617976D01*
X5406310Y-10627500D01*
X5425357Y-10646548D01*
X5434881Y-10665595D01*
X5444405Y-10703690D01*
X5444405Y-10732262D01*
X5434881Y-10770357D01*
X5425357Y-10789405D01*
X5406310Y-10808452D01*
X5377738Y-10817976D01*
X5330119Y-10817976D01*
X5530119Y-10817976D02*
X5530119Y-10684643D01*
X5530119Y-10722738D02*
X5539643Y-10703690D01*
X5549167Y-10694167D01*
X5568214Y-10684643D01*
X5587262Y-10684643D01*
X5653928Y-10817976D02*
X5653928Y-10684643D01*
X5653928Y-10617976D02*
X5644405Y-10627500D01*
X5653928Y-10637024D01*
X5663452Y-10627500D01*
X5653928Y-10617976D01*
X5653928Y-10637024D01*
X5777738Y-10817976D02*
X5758690Y-10808452D01*
X5749167Y-10789405D01*
X5749167Y-10617976D01*
X5882500Y-10817976D02*
X5863452Y-10808452D01*
X5853928Y-10789405D01*
X5853928Y-10617976D01*
X6111071Y-10817976D02*
X6111071Y-10617976D01*
X6177738Y-10760833D01*
X6244405Y-10617976D01*
X6244405Y-10817976D01*
X6425357Y-10817976D02*
X6425357Y-10713214D01*
X6415833Y-10694167D01*
X6396786Y-10684643D01*
X6358690Y-10684643D01*
X6339643Y-10694167D01*
X6425357Y-10808452D02*
X6406309Y-10817976D01*
X6358690Y-10817976D01*
X6339643Y-10808452D01*
X6330119Y-10789405D01*
X6330119Y-10770357D01*
X6339643Y-10751310D01*
X6358690Y-10741786D01*
X6406309Y-10741786D01*
X6425357Y-10732262D01*
X6520595Y-10684643D02*
X6520595Y-10884643D01*
X6520595Y-10694167D02*
X6539643Y-10684643D01*
X6577738Y-10684643D01*
X6596786Y-10694167D01*
X6606309Y-10703690D01*
X6615833Y-10722738D01*
X6615833Y-10779881D01*
X6606309Y-10798929D01*
X6596786Y-10808452D01*
X6577738Y-10817976D01*
X6539643Y-10817976D01*
X6520595Y-10808452D01*
X6701548Y-10798929D02*
X6711071Y-10808452D01*
X6701548Y-10817976D01*
X6692024Y-10808452D01*
X6701548Y-10798929D01*
X6701548Y-10817976D01*
X6701548Y-10694167D02*
X6711071Y-10703690D01*
X6701548Y-10713214D01*
X6692024Y-10703690D01*
X6701548Y-10694167D01*
X6701548Y-10713214D01*
D12*
X5032500Y-11127500D02*
X5072500Y-11167500D01*
X5072500Y-11127500D02*
X5032500Y-11167500D01*
D11*
X5368214Y-11037976D02*
X5387262Y-11037976D01*
X5406310Y-11047500D01*
X5415833Y-11057024D01*
X5425357Y-11076071D01*
X5434881Y-11114167D01*
X5434881Y-11161786D01*
X5425357Y-11199881D01*
X5415833Y-11218928D01*
X5406310Y-11228452D01*
X5387262Y-11237976D01*
X5368214Y-11237976D01*
X5349167Y-11228452D01*
X5339643Y-11218928D01*
X5330119Y-11199881D01*
X5320595Y-11161786D01*
X5320595Y-11114167D01*
X5330119Y-11076071D01*
X5339643Y-11057024D01*
X5349167Y-11047500D01*
X5368214Y-11037976D01*
X5520595Y-11218928D02*
X5530119Y-11228452D01*
X5520595Y-11237976D01*
X5511071Y-11228452D01*
X5520595Y-11218928D01*
X5520595Y-11237976D01*
X5701548Y-11104643D02*
X5701548Y-11237976D01*
X5653928Y-11028452D02*
X5606309Y-11171310D01*
X5730119Y-11171310D01*
X5844405Y-11037976D02*
X5863452Y-11037976D01*
X5882500Y-11047500D01*
X5892024Y-11057024D01*
X5901548Y-11076071D01*
X5911071Y-11114167D01*
X5911071Y-11161786D01*
X5901548Y-11199881D01*
X5892024Y-11218928D01*
X5882500Y-11228452D01*
X5863452Y-11237976D01*
X5844405Y-11237976D01*
X5825357Y-11228452D01*
X5815833Y-11218928D01*
X5806309Y-11199881D01*
X5796786Y-11161786D01*
X5796786Y-11114167D01*
X5806309Y-11076071D01*
X5815833Y-11057024D01*
X5825357Y-11047500D01*
X5844405Y-11037976D01*
X6034881Y-11037976D02*
X6053928Y-11037976D01*
X6072976Y-11047500D01*
X6082500Y-11057024D01*
X6092024Y-11076071D01*
X6101548Y-11114167D01*
X6101548Y-11161786D01*
X6092024Y-11199881D01*
X6082500Y-11218928D01*
X6072976Y-11228452D01*
X6053928Y-11237976D01*
X6034881Y-11237976D01*
X6015833Y-11228452D01*
X6006309Y-11218928D01*
X5996786Y-11199881D01*
X5987262Y-11161786D01*
X5987262Y-11114167D01*
X5996786Y-11076071D01*
X6006309Y-11057024D01*
X6015833Y-11047500D01*
X6034881Y-11037976D01*
X6187262Y-11237976D02*
X6187262Y-11104643D01*
X6187262Y-11123690D02*
X6196786Y-11114167D01*
X6215833Y-11104643D01*
X6244405Y-11104643D01*
X6263452Y-11114167D01*
X6272976Y-11133214D01*
X6272976Y-11237976D01*
X6272976Y-11133214D02*
X6282500Y-11114167D01*
X6301548Y-11104643D01*
X6330119Y-11104643D01*
X6349167Y-11114167D01*
X6358690Y-11133214D01*
X6358690Y-11237976D01*
X6453928Y-11237976D02*
X6453928Y-11104643D01*
X6453928Y-11123690D02*
X6463452Y-11114167D01*
X6482500Y-11104643D01*
X6511071Y-11104643D01*
X6530119Y-11114167D01*
X6539643Y-11133214D01*
X6539643Y-11237976D01*
X6539643Y-11133214D02*
X6549167Y-11114167D01*
X6568214Y-11104643D01*
X6596786Y-11104643D01*
X6615833Y-11114167D01*
X6625357Y-11133214D01*
X6625357Y-11237976D01*
X7015833Y-11028452D02*
X6844405Y-11285595D01*
X7272976Y-11037976D02*
X7292024Y-11037976D01*
X7311071Y-11047500D01*
X7320595Y-11057024D01*
X7330119Y-11076071D01*
X7339643Y-11114167D01*
X7339643Y-11161786D01*
X7330119Y-11199881D01*
X7320595Y-11218928D01*
X7311071Y-11228452D01*
X7292024Y-11237976D01*
X7272976Y-11237976D01*
X7253928Y-11228452D01*
X7244405Y-11218928D01*
X7234881Y-11199881D01*
X7225357Y-11161786D01*
X7225357Y-11114167D01*
X7234881Y-11076071D01*
X7244405Y-11057024D01*
X7253928Y-11047500D01*
X7272976Y-11037976D01*
X7425357Y-11218928D02*
X7434881Y-11228452D01*
X7425357Y-11237976D01*
X7415833Y-11228452D01*
X7425357Y-11218928D01*
X7425357Y-11237976D01*
X7558690Y-11037976D02*
X7577738Y-11037976D01*
X7596786Y-11047500D01*
X7606309Y-11057024D01*
X7615833Y-11076071D01*
X7625357Y-11114167D01*
X7625357Y-11161786D01*
X7615833Y-11199881D01*
X7606309Y-11218928D01*
X7596786Y-11228452D01*
X7577738Y-11237976D01*
X7558690Y-11237976D01*
X7539643Y-11228452D01*
X7530119Y-11218928D01*
X7520595Y-11199881D01*
X7511071Y-11161786D01*
X7511071Y-11114167D01*
X7520595Y-11076071D01*
X7530119Y-11057024D01*
X7539643Y-11047500D01*
X7558690Y-11037976D01*
X7815833Y-11237976D02*
X7701548Y-11237976D01*
X7758690Y-11237976D02*
X7758690Y-11037976D01*
X7739643Y-11066548D01*
X7720595Y-11085595D01*
X7701548Y-11095119D01*
X7996786Y-11037976D02*
X7901548Y-11037976D01*
X7892024Y-11133214D01*
X7901548Y-11123690D01*
X7920595Y-11114167D01*
X7968214Y-11114167D01*
X7987262Y-11123690D01*
X7996786Y-11133214D01*
X8006309Y-11152262D01*
X8006309Y-11199881D01*
X7996786Y-11218928D01*
X7987262Y-11228452D01*
X7968214Y-11237976D01*
X7920595Y-11237976D01*
X7901548Y-11228452D01*
X7892024Y-11218928D01*
X8072976Y-11037976D02*
X8206309Y-11037976D01*
X8120595Y-11237976D01*
X8272976Y-11037976D02*
X8272976Y-11076071D01*
X8349167Y-11037976D02*
X8349167Y-11076071D01*
X8644405Y-11314167D02*
X8634881Y-11304643D01*
X8615833Y-11276071D01*
X8606310Y-11257024D01*
X8596786Y-11228452D01*
X8587262Y-11180833D01*
X8587262Y-11142738D01*
X8596786Y-11095119D01*
X8606310Y-11066548D01*
X8615833Y-11047500D01*
X8634881Y-11018929D01*
X8644405Y-11009405D01*
X8701548Y-11037976D02*
X8825357Y-11037976D01*
X8758690Y-11114167D01*
X8787262Y-11114167D01*
X8806310Y-11123690D01*
X8815833Y-11133214D01*
X8825357Y-11152262D01*
X8825357Y-11199881D01*
X8815833Y-11218928D01*
X8806310Y-11228452D01*
X8787262Y-11237976D01*
X8730119Y-11237976D01*
X8711071Y-11228452D01*
X8701548Y-11218928D01*
X9063452Y-11237976D02*
X9063452Y-11037976D01*
X9149167Y-11237976D02*
X9149167Y-11133214D01*
X9139643Y-11114167D01*
X9120595Y-11104643D01*
X9092024Y-11104643D01*
X9072976Y-11114167D01*
X9063452Y-11123690D01*
X9272976Y-11237976D02*
X9253929Y-11228452D01*
X9244405Y-11218928D01*
X9234881Y-11199881D01*
X9234881Y-11142738D01*
X9244405Y-11123690D01*
X9253929Y-11114167D01*
X9272976Y-11104643D01*
X9301548Y-11104643D01*
X9320595Y-11114167D01*
X9330119Y-11123690D01*
X9339643Y-11142738D01*
X9339643Y-11199881D01*
X9330119Y-11218928D01*
X9320595Y-11228452D01*
X9301548Y-11237976D01*
X9272976Y-11237976D01*
X9453929Y-11237976D02*
X9434881Y-11228452D01*
X9425357Y-11209405D01*
X9425357Y-11037976D01*
X9606310Y-11228452D02*
X9587262Y-11237976D01*
X9549167Y-11237976D01*
X9530119Y-11228452D01*
X9520595Y-11209405D01*
X9520595Y-11133214D01*
X9530119Y-11114167D01*
X9549167Y-11104643D01*
X9587262Y-11104643D01*
X9606310Y-11114167D01*
X9615833Y-11133214D01*
X9615833Y-11152262D01*
X9520595Y-11171310D01*
X9692024Y-11228452D02*
X9711071Y-11237976D01*
X9749167Y-11237976D01*
X9768214Y-11228452D01*
X9777738Y-11209405D01*
X9777738Y-11199881D01*
X9768214Y-11180833D01*
X9749167Y-11171310D01*
X9720595Y-11171310D01*
X9701548Y-11161786D01*
X9692024Y-11142738D01*
X9692024Y-11133214D01*
X9701548Y-11114167D01*
X9720595Y-11104643D01*
X9749167Y-11104643D01*
X9768214Y-11114167D01*
X9844405Y-11314167D02*
X9853929Y-11304643D01*
X9872976Y-11276071D01*
X9882500Y-11257024D01*
X9892024Y-11228452D01*
X9901548Y-11180833D01*
X9901548Y-11142738D01*
X9892024Y-11095119D01*
X9882500Y-11066548D01*
X9872976Y-11047500D01*
X9853929Y-11018929D01*
X9844405Y-11009405D01*
X5072500Y-11411500D02*
G75*
G03*
X5072500Y-11411500I-100000J0D01*
G01*
X5415833Y-11368643D02*
X5415833Y-11501976D01*
X5368214Y-11292452D02*
X5320595Y-11435309D01*
X5444405Y-11435309D01*
X5520595Y-11482928D02*
X5530119Y-11492452D01*
X5520595Y-11501976D01*
X5511071Y-11492452D01*
X5520595Y-11482928D01*
X5520595Y-11501976D01*
X5653928Y-11301976D02*
X5672976Y-11301976D01*
X5692024Y-11311500D01*
X5701548Y-11321024D01*
X5711071Y-11340071D01*
X5720595Y-11378167D01*
X5720595Y-11425786D01*
X5711071Y-11463881D01*
X5701548Y-11482928D01*
X5692024Y-11492452D01*
X5672976Y-11501976D01*
X5653928Y-11501976D01*
X5634881Y-11492452D01*
X5625357Y-11482928D01*
X5615833Y-11463881D01*
X5606309Y-11425786D01*
X5606309Y-11378167D01*
X5615833Y-11340071D01*
X5625357Y-11321024D01*
X5634881Y-11311500D01*
X5653928Y-11301976D01*
X5844405Y-11301976D02*
X5863452Y-11301976D01*
X5882500Y-11311500D01*
X5892024Y-11321024D01*
X5901548Y-11340071D01*
X5911071Y-11378167D01*
X5911071Y-11425786D01*
X5901548Y-11463881D01*
X5892024Y-11482928D01*
X5882500Y-11492452D01*
X5863452Y-11501976D01*
X5844405Y-11501976D01*
X5825357Y-11492452D01*
X5815833Y-11482928D01*
X5806309Y-11463881D01*
X5796786Y-11425786D01*
X5796786Y-11378167D01*
X5806309Y-11340071D01*
X5815833Y-11321024D01*
X5825357Y-11311500D01*
X5844405Y-11301976D01*
X6034881Y-11301976D02*
X6053928Y-11301976D01*
X6072976Y-11311500D01*
X6082500Y-11321024D01*
X6092024Y-11340071D01*
X6101548Y-11378167D01*
X6101548Y-11425786D01*
X6092024Y-11463881D01*
X6082500Y-11482928D01*
X6072976Y-11492452D01*
X6053928Y-11501976D01*
X6034881Y-11501976D01*
X6015833Y-11492452D01*
X6006309Y-11482928D01*
X5996786Y-11463881D01*
X5987262Y-11425786D01*
X5987262Y-11378167D01*
X5996786Y-11340071D01*
X6006309Y-11321024D01*
X6015833Y-11311500D01*
X6034881Y-11301976D01*
X6187262Y-11501976D02*
X6187262Y-11368643D01*
X6187262Y-11387690D02*
X6196786Y-11378167D01*
X6215833Y-11368643D01*
X6244405Y-11368643D01*
X6263452Y-11378167D01*
X6272976Y-11397214D01*
X6272976Y-11501976D01*
X6272976Y-11397214D02*
X6282500Y-11378167D01*
X6301548Y-11368643D01*
X6330119Y-11368643D01*
X6349167Y-11378167D01*
X6358690Y-11397214D01*
X6358690Y-11501976D01*
X6453928Y-11501976D02*
X6453928Y-11368643D01*
X6453928Y-11387690D02*
X6463452Y-11378167D01*
X6482500Y-11368643D01*
X6511071Y-11368643D01*
X6530119Y-11378167D01*
X6539643Y-11397214D01*
X6539643Y-11501976D01*
X6539643Y-11397214D02*
X6549167Y-11378167D01*
X6568214Y-11368643D01*
X6596786Y-11368643D01*
X6615833Y-11378167D01*
X6625357Y-11397214D01*
X6625357Y-11501976D01*
X7015833Y-11292452D02*
X6844405Y-11549595D01*
X7272976Y-11301976D02*
X7292024Y-11301976D01*
X7311071Y-11311500D01*
X7320595Y-11321024D01*
X7330119Y-11340071D01*
X7339643Y-11378167D01*
X7339643Y-11425786D01*
X7330119Y-11463881D01*
X7320595Y-11482928D01*
X7311071Y-11492452D01*
X7292024Y-11501976D01*
X7272976Y-11501976D01*
X7253928Y-11492452D01*
X7244405Y-11482928D01*
X7234881Y-11463881D01*
X7225357Y-11425786D01*
X7225357Y-11378167D01*
X7234881Y-11340071D01*
X7244405Y-11321024D01*
X7253928Y-11311500D01*
X7272976Y-11301976D01*
X7425357Y-11482928D02*
X7434881Y-11492452D01*
X7425357Y-11501976D01*
X7415833Y-11492452D01*
X7425357Y-11482928D01*
X7425357Y-11501976D01*
X7625357Y-11501976D02*
X7511071Y-11501976D01*
X7568214Y-11501976D02*
X7568214Y-11301976D01*
X7549167Y-11330548D01*
X7530119Y-11349595D01*
X7511071Y-11359119D01*
X7806309Y-11301976D02*
X7711071Y-11301976D01*
X7701548Y-11397214D01*
X7711071Y-11387690D01*
X7730119Y-11378167D01*
X7777738Y-11378167D01*
X7796786Y-11387690D01*
X7806309Y-11397214D01*
X7815833Y-11416262D01*
X7815833Y-11463881D01*
X7806309Y-11482928D01*
X7796786Y-11492452D01*
X7777738Y-11501976D01*
X7730119Y-11501976D01*
X7711071Y-11492452D01*
X7701548Y-11482928D01*
X7882500Y-11301976D02*
X8015833Y-11301976D01*
X7930119Y-11501976D01*
X8187262Y-11301976D02*
X8092024Y-11301976D01*
X8082500Y-11397214D01*
X8092024Y-11387690D01*
X8111071Y-11378167D01*
X8158690Y-11378167D01*
X8177738Y-11387690D01*
X8187262Y-11397214D01*
X8196786Y-11416262D01*
X8196786Y-11463881D01*
X8187262Y-11482928D01*
X8177738Y-11492452D01*
X8158690Y-11501976D01*
X8111071Y-11501976D01*
X8092024Y-11492452D01*
X8082500Y-11482928D01*
X8272976Y-11301976D02*
X8272976Y-11340071D01*
X8349167Y-11301976D02*
X8349167Y-11340071D01*
X8644405Y-11578167D02*
X8634881Y-11568643D01*
X8615833Y-11540071D01*
X8606310Y-11521024D01*
X8596786Y-11492452D01*
X8587262Y-11444833D01*
X8587262Y-11406738D01*
X8596786Y-11359119D01*
X8606310Y-11330548D01*
X8615833Y-11311500D01*
X8634881Y-11282928D01*
X8644405Y-11273405D01*
X8825357Y-11501976D02*
X8711071Y-11501976D01*
X8768214Y-11501976D02*
X8768214Y-11301976D01*
X8749167Y-11330548D01*
X8730119Y-11349595D01*
X8711071Y-11359119D01*
X9063452Y-11501976D02*
X9063452Y-11301976D01*
X9149167Y-11501976D02*
X9149167Y-11397214D01*
X9139643Y-11378167D01*
X9120595Y-11368643D01*
X9092024Y-11368643D01*
X9072976Y-11378167D01*
X9063452Y-11387690D01*
X9272976Y-11501976D02*
X9253929Y-11492452D01*
X9244405Y-11482928D01*
X9234881Y-11463881D01*
X9234881Y-11406738D01*
X9244405Y-11387690D01*
X9253929Y-11378167D01*
X9272976Y-11368643D01*
X9301548Y-11368643D01*
X9320595Y-11378167D01*
X9330119Y-11387690D01*
X9339643Y-11406738D01*
X9339643Y-11463881D01*
X9330119Y-11482928D01*
X9320595Y-11492452D01*
X9301548Y-11501976D01*
X9272976Y-11501976D01*
X9453929Y-11501976D02*
X9434881Y-11492452D01*
X9425357Y-11473405D01*
X9425357Y-11301976D01*
X9606310Y-11492452D02*
X9587262Y-11501976D01*
X9549167Y-11501976D01*
X9530119Y-11492452D01*
X9520595Y-11473405D01*
X9520595Y-11397214D01*
X9530119Y-11378167D01*
X9549167Y-11368643D01*
X9587262Y-11368643D01*
X9606310Y-11378167D01*
X9615833Y-11397214D01*
X9615833Y-11416262D01*
X9520595Y-11435309D01*
X9682500Y-11578167D02*
X9692024Y-11568643D01*
X9711071Y-11540071D01*
X9720595Y-11521024D01*
X9730119Y-11492452D01*
X9739643Y-11444833D01*
X9739643Y-11406738D01*
X9730119Y-11359119D01*
X9720595Y-11330548D01*
X9711071Y-11311500D01*
X9692024Y-11282928D01*
X9682500Y-11273405D01*
M02*
