G04 #@! TF.GenerationSoftware,KiCad,Pcbnew,6.0.11+dfsg-1*
G04 #@! TF.CreationDate,2023-08-15T17:50:17+01:00*
G04 #@! TF.ProjectId,business card,62757369-6e65-4737-9320-636172642e6b,rev?*
G04 #@! TF.SameCoordinates,Original*
G04 #@! TF.FileFunction,Soldermask,Top*
G04 #@! TF.FilePolarity,Negative*
%FSLAX46Y46*%
G04 Gerber Fmt 4.6, Leading zero omitted, Abs format (unit mm)*
G04 Created by KiCad (PCBNEW 6.0.11+dfsg-1) date 2023-08-15 17:50:17*
%MOMM*%
%LPD*%
G01*
G04 APERTURE LIST*
%ADD10C,0.000000*%
%ADD11C,4.200000*%
G04 APERTURE END LIST*
D10*
G36*
X105090298Y-83009493D02*
G01*
X105101503Y-83010118D01*
X105112523Y-83011160D01*
X105123357Y-83012618D01*
X105134007Y-83014494D01*
X105144471Y-83016786D01*
X105154750Y-83019494D01*
X105164844Y-83022620D01*
X105174753Y-83026162D01*
X105184476Y-83030121D01*
X105194014Y-83034496D01*
X105203367Y-83039289D01*
X105212535Y-83044498D01*
X105221518Y-83050123D01*
X105230315Y-83056166D01*
X105238927Y-83062625D01*
X105243120Y-83065846D01*
X105247180Y-83069211D01*
X105251107Y-83072722D01*
X105254901Y-83076377D01*
X105258562Y-83080176D01*
X105262089Y-83084121D01*
X105265484Y-83088210D01*
X105268745Y-83092443D01*
X105271873Y-83096822D01*
X105274868Y-83101345D01*
X105277730Y-83106013D01*
X105280459Y-83110825D01*
X105283055Y-83115782D01*
X105285517Y-83120884D01*
X105290043Y-83131522D01*
X105294037Y-83142739D01*
X105297498Y-83154534D01*
X105300426Y-83166908D01*
X105302823Y-83179861D01*
X105304686Y-83193393D01*
X105306017Y-83207504D01*
X105306816Y-83222193D01*
X105307082Y-83237461D01*
X105306816Y-83252382D01*
X105306017Y-83266770D01*
X105304686Y-83280626D01*
X105302823Y-83293949D01*
X105300426Y-83306740D01*
X105297498Y-83318999D01*
X105294037Y-83330725D01*
X105290043Y-83341918D01*
X105285517Y-83352580D01*
X105280459Y-83362708D01*
X105274868Y-83372304D01*
X105268745Y-83381368D01*
X105262089Y-83389899D01*
X105254901Y-83397898D01*
X105247180Y-83405364D01*
X105238927Y-83412298D01*
X105230315Y-83418757D01*
X105221518Y-83424800D01*
X105212535Y-83430425D01*
X105203367Y-83435634D01*
X105194014Y-83440427D01*
X105184476Y-83444802D01*
X105174753Y-83448761D01*
X105164844Y-83452303D01*
X105154750Y-83455429D01*
X105144471Y-83458137D01*
X105134007Y-83460429D01*
X105123357Y-83462304D01*
X105112523Y-83463763D01*
X105101503Y-83464805D01*
X105090298Y-83465430D01*
X105078908Y-83465638D01*
X105067170Y-83465430D01*
X105055664Y-83464805D01*
X105044389Y-83463763D01*
X105033346Y-83462304D01*
X105022535Y-83460429D01*
X105011955Y-83458137D01*
X105001606Y-83455429D01*
X104991489Y-83452303D01*
X104981603Y-83448761D01*
X104971949Y-83444802D01*
X104962527Y-83440427D01*
X104953336Y-83435634D01*
X104944376Y-83430425D01*
X104935648Y-83424800D01*
X104927152Y-83418757D01*
X104918887Y-83412298D01*
X104910992Y-83405364D01*
X104903607Y-83397898D01*
X104896731Y-83389899D01*
X104890365Y-83381368D01*
X104884508Y-83372304D01*
X104879160Y-83362708D01*
X104874321Y-83352580D01*
X104869992Y-83341918D01*
X104866172Y-83330725D01*
X104862862Y-83318999D01*
X104860061Y-83306740D01*
X104857769Y-83293949D01*
X104855986Y-83280626D01*
X104854713Y-83266770D01*
X104853949Y-83252382D01*
X104853694Y-83237461D01*
X104853949Y-83222193D01*
X104854713Y-83207504D01*
X104855986Y-83193393D01*
X104857769Y-83179861D01*
X104860061Y-83166908D01*
X104862862Y-83154534D01*
X104866172Y-83142739D01*
X104869992Y-83131522D01*
X104874321Y-83120884D01*
X104879160Y-83110825D01*
X104884508Y-83101345D01*
X104890365Y-83092443D01*
X104896731Y-83084121D01*
X104903607Y-83076377D01*
X104910992Y-83069211D01*
X104918887Y-83062625D01*
X104927152Y-83056166D01*
X104935648Y-83050123D01*
X104944376Y-83044498D01*
X104953336Y-83039289D01*
X104962527Y-83034496D01*
X104971949Y-83030121D01*
X104981603Y-83026162D01*
X104991489Y-83022620D01*
X105001606Y-83019494D01*
X105011955Y-83016786D01*
X105022535Y-83014494D01*
X105033346Y-83012618D01*
X105044389Y-83011160D01*
X105055664Y-83010118D01*
X105067170Y-83009493D01*
X105078908Y-83009285D01*
X105090298Y-83009493D01*
G37*
D11*
X131500000Y-55250000D03*
M02*
